SplineFontDB: 3.2
FontName: Reijima-Italic
FullName: Reijima Italic
FamilyName: Reijima
Weight: Book
Copyright: Copyright (c) 2019 by Coji Morishita. All rights reserved.
Version: 1.000
ItalicAngle: -9
UnderlinePosition: -100
UnderlineWidth: 50
Ascent: 860
Descent: 140
InvalidEm: 0
sfntRevision: 0x00010000
LayerCount: 2
Layer: 0 1 "Back" 1
Layer: 1 1 "Fore" 0
XUID: [1021 531 -1996577725 1132266]
StyleMap: 0x0001
FSType: 8
OS2Version: 4
OS2_WeightWidthSlopeOnly: 0
OS2_UseTypoMetrics: 1
CreationTime: 1575364793
ModificationTime: 1707277265
PfmFamily: 81
TTFWeight: 400
TTFWidth: 5
LineGap: 0
VLineGap: 1000
Panose: 0 0 5 0 0 0 0 0 0 0
OS2TypoAscent: 960
OS2TypoAOffset: 0
OS2TypoDescent: -230
OS2TypoDOffset: 0
OS2TypoLinegap: 200
OS2WinAscent: 1060
OS2WinAOffset: 0
OS2WinDescent: 330
OS2WinDOffset: 0
HheadAscent: 1060
HheadAOffset: 0
HheadDescent: -230
HheadDOffset: 0
OS2SubXSize: 650
OS2SubYSize: 600
OS2SubXOff: 0
OS2SubYOff: 75
OS2SupXSize: 650
OS2SupYSize: 600
OS2SupXOff: 0
OS2SupYOff: 350
OS2StrikeYSize: 50
OS2StrikeYPos: 312
OS2CapHeight: 730
OS2XHeight: 520
OS2Vendor: 'M+  '
OS2CodePages: 20020193.00000000
OS2UnicodeRanges: 20000007.00060000.00000000.00000000
Lookup: 1 0 0 "'aalt' Access All Alternates in Latin lookup 0" { "'aalt' Access All Alternates in Latin lookup 0 subtable"  } ['aalt' ('DFLT' <'dflt' > 'latn' <'AZE ' 'CAT ' 'CRT ' 'KAZ ' 'MOL ' 'ROM ' 'TAT ' 'TRK ' 'dflt' > ) ]
Lookup: 3 0 0 "'aalt' Access All Alternates in Latin lookup 1" { "'aalt' Access All Alternates in Latin lookup 1 subtable"  } ['aalt' ('DFLT' <'dflt' > 'latn' <'AZE ' 'CAT ' 'CRT ' 'KAZ ' 'MOL ' 'ROM ' 'TAT ' 'TRK ' 'dflt' > ) ]
Lookup: 6 0 0 "'ccmp' Glyph Composition/Decomposition in Latin lookup 2" { "'ccmp' Glyph Composition/Decomposition in Latin lookup 2 contextual 0"  "'ccmp' Glyph Composition/Decomposition in Latin lookup 2 contextual 1"  } ['ccmp' ('DFLT' <'dflt' > 'latn' <'AZE ' 'CAT ' 'CRT ' 'KAZ ' 'MOL ' 'ROM ' 'TAT ' 'TRK ' 'dflt' > ) ]

StartChar: .notdef
Encoding: 65536 -1 0
Width: 477
Flags: W
LayerCount: 2
Fore
SplineSet
328 -140 m 1,0,-1
 17 -140 l 1,1,-1
 176 860 l 1,2,-1
 487 860 l 1,3,-1
 328 -140 l 1,0,-1
239 793 m 1,4,-1
 234 760 l 1,5,-1
 297 760 l 1,6,-1
 291 723 l 1,7,-1
 227 723 l 1,8,-1
 221 690 l 1,9,-1
 384 690 l 1,10,-1
 389 723 l 1,11,-1
 325 723 l 1,12,-1
 331 760 l 1,13,-1
 395 760 l 1,14,-1
 400 793 l 1,15,-1
 239 793 l 1,4,-1
217 664 m 1,16,-1
 201 560 l 1,17,-1
 364 560 l 1,18,-1
 369 594 l 1,19,-1
 304 594 l 1,20,-1
 315 664 l 1,21,-1
 217 664 l 1,16,-1
271 594 m 1,22,-1
 239 594 l 1,23,-1
 244 630 l 1,24,-1
 277 630 l 1,25,-1
 271 594 l 1,22,-1
197 533 m 1,26,-1
 191 500 l 1,27,-1
 256 500 l 1,28,-1
 250 463 l 1,29,-1
 185 463 l 1,30,-1
 180 430 l 1,31,-1
 278 430 l 1,32,-1
 289 500 l 1,33,-1
 354 500 l 1,34,-1
 359 533 l 1,35,-1
 197 533 l 1,26,-1
317 473 m 1,36,-1
 307 407 l 1,37,-1
 177 407 l 1,38,-1
 171 373 l 1,39,-1
 334 373 l 1,40,-1
 350 473 l 1,41,-1
 317 473 l 1,36,-1
232 351 m 1,42,-1
 224 295 l 1,43,-1
 257 295 l 1,44,-1
 261 318 l 1,45,-1
 293 318 l 1,46,-1
 285 271 l 1,47,-1
 187 271 l 1,48,-1
 200 351 l 1,49,-1
 168 351 l 1,50,-1
 150 238 l 1,51,-1
 313 238 l 1,52,-1
 330 351 l 1,53,-1
 232 351 l 1,42,-1
140 178 m 1,54,-1
 122 65 l 1,55,-1
 285 65 l 1,56,-1
 303 178 l 1,57,-1
 140 178 l 1,54,-1
258 98 m 1,58,-1
 160 98 l 1,59,-1
 167 145 l 1,60,-1
 265 145 l 1,61,-1
 258 98 l 1,58,-1
119 42 m 1,62,-1
 114 9 l 1,63,-1
 182 9 l 1,64,-1
 106 -38 l 1,65,-1
 101 -71 l 1,66,-1
 264 -71 l 1,67,-1
 269 -38 l 1,68,-1
 169 -38 l 1,69,-1
 245 9 l 1,70,-1
 276 9 l 1,71,-1
 281 42 l 1,72,-1
 119 42 l 1,62,-1
EndSplineSet
EndChar

StartChar: A
Encoding: 65 65 2
Width: 649
GlyphClass: 2
Flags: W
AnchorPoint: "Anchor-6" 288 730 basechar 0
AnchorPoint: "Anchor-5" 606 0 basechar 0
AnchorPoint: "Anchor-4" 288 0 basechar 0
LayerCount: 2
Fore
SplineSet
506 0 m 1,0,-1
 469 201 l 1,1,-1
 154 201 l 1,2,-1
 54 0 l 1,3,-1
 -32 0 l 1,4,-1
 342 730 l 1,5,-1
 450 730 l 1,6,-1
 592 0 l 1,7,-1
 506 0 l 1,0,-1
190 274 m 1,8,-1
 456 274 l 1,9,-1
 386 661 l 1,10,-1
 384 661 l 1,11,-1
 190 274 l 1,8,-1
EndSplineSet
Substitution2: "Single Substitution lookup 21 subtable" ordfeminine
Substitution2: "'aalt' Access All Alternates in Latin lookup 0 subtable" ordfeminine
EndChar

StartChar: uni1EB2
Encoding: 7858 7858 8
Width: 649
GlyphClass: 2
Flags: W
AnchorPoint: "Anchor-6" 289 1114 basechar 0
AnchorPoint: "Anchor-5" 606 0 basechar 0
AnchorPoint: "Anchor-4" 288 0 basechar 0
LayerCount: 2
Fore
SplineSet
485 875.5 m 128,-1,1
 514 896 514 896 528 934 c 1,2,-1
 476 934 l 1,3,4
 484 949 484 949 492 971 c 128,-1,5
 500 993 500 993 503 1008 c 0,6,7
 507 1033 507 1033 491.5 1041.5 c 128,-1,8
 476 1050 476 1050 431 1050 c 0,9,10
 370 1050 370 1050 308 1033 c 1,11,-1
 310 1097 l 1,12,13
 379 1114 379 1114 458 1114 c 0,14,15
 514 1114 514 1114 543.5 1107 c 128,-1,16
 573 1100 573 1100 583.5 1083 c 128,-1,17
 594 1066 594 1066 589 1035 c 0,18,19
 586 1015 586 1015 578 990 c 128,-1,20
 570 965 570 965 560 944 c 1,21,-1
 615 944 l 1,22,23
 598 876 598 876 540 833 c 128,-1,24
 482 790 482 790 405 790 c 256,25,26
 328 790 328 790 283.5 833 c 128,-1,27
 239 876 239 876 244 944 c 1,28,-1
 327 944 l 1,29,30
 326 901 326 901 349.5 878 c 128,-1,31
 373 855 373 855 416 855 c 0,32,0
 456 855 456 855 485 875.5 c 128,-1,1
506 0 m 1,33,-1
 469 201 l 1,34,-1
 154 201 l 1,35,-1
 54 0 l 1,36,-1
 -32 0 l 1,37,-1
 342 730 l 1,38,-1
 450 730 l 1,39,-1
 592 0 l 1,40,-1
 506 0 l 1,33,-1
190 274 m 1,41,-1
 456 274 l 1,42,-1
 386 661 l 1,43,-1
 384 661 l 1,44,-1
 190 274 l 1,41,-1
EndSplineSet
EndChar

StartChar: Aogonek
Encoding: 260 260 23
Width: 655
GlyphClass: 2
Flags: W
AnchorPoint: "Anchor-6" 288 730 basechar 0
AnchorPoint: "Anchor-5" 606 0 basechar 0
AnchorPoint: "Anchor-4" 288 0 basechar 0
LayerCount: 2
Fore
SplineSet
648 -197 m 1,0,1
 598 -218 598 -218 536 -218 c 0,2,3
 462 -218 462 -218 429.5 -191 c 128,-1,4
 397 -164 397 -164 404 -120 c 0,5,6
 415 -53 415 -53 505 7 c 1,7,-1
 469 201 l 1,8,-1
 154 201 l 1,9,-1
 54 0 l 1,10,-1
 -32 0 l 1,11,-1
 342 730 l 1,12,-1
 450 730 l 1,13,-1
 592 0 l 1,14,15
 542 -27 542 -27 513 -54.5 c 128,-1,16
 484 -82 484 -82 480 -107 c 0,17,18
 476 -131 476 -131 496 -142 c 128,-1,19
 516 -153 516 -153 552 -153 c 0,20,21
 601 -153 601 -153 644 -134 c 1,22,-1
 648 -197 l 1,0,1
190 274 m 1,23,-1
 456 274 l 1,24,-1
 386 661 l 1,25,-1
 384 661 l 1,26,-1
 190 274 l 1,23,-1
EndSplineSet
EndChar

StartChar: Aring
Encoding: 197 197 24
Width: 649
GlyphClass: 2
Flags: W
AnchorPoint: "Anchor-6" 288 908 basechar 0
AnchorPoint: "Anchor-5" 606 0 basechar 0
AnchorPoint: "Anchor-4" 288 0 basechar 0
LayerCount: 2
Fore
SplineSet
469 201 m 1,0,-1
 154 201 l 1,1,-1
 54 0 l 1,2,-1
 -32 0 l 1,3,-1
 335 717 l 1,4,5
 302 734 302 734 285.5 768.5 c 128,-1,6
 269 803 269 803 276 845 c 0,7,8
 282 883 282 883 306 916 c 128,-1,9
 330 949 330 949 364.5 968 c 128,-1,10
 399 987 399 987 438 987 c 0,11,12
 475 987 475 987 504 968 c 128,-1,13
 533 949 533 949 546 916 c 128,-1,14
 559 883 559 883 553 845 c 0,15,16
 546 803 546 803 519 768.5 c 128,-1,17
 492 734 492 734 453 716 c 1,18,-1
 592 0 l 1,19,-1
 506 0 l 1,20,-1
 469 201 l 1,0,-1
367.5 903 m 128,-1,22
 340 879 340 879 335 845 c 256,23,24
 330 811 330 811 349.5 787 c 128,-1,25
 369 763 369 763 402 763 c 256,26,27
 435 763 435 763 462 787 c 128,-1,28
 489 811 489 811 495 845 c 256,29,30
 500 879 500 879 480.5 903 c 128,-1,31
 461 927 461 927 428 927 c 256,32,21
 395 927 395 927 367.5 903 c 128,-1,22
190 274 m 1,33,-1
 456 274 l 1,34,-1
 386 661 l 1,35,-1
 384 661 l 1,36,-1
 190 274 l 1,33,-1
EndSplineSet
EndChar

StartChar: Aringacute
Encoding: 506 506 25
Width: 649
GlyphClass: 2
Flags: W
AnchorPoint: "Anchor-6" 288 908 basechar 0
AnchorPoint: "Anchor-5" 606 0 basechar 0
AnchorPoint: "Anchor-4" 288 0 basechar 0
LayerCount: 2
Fore
SplineSet
469 201 m 1,0,-1
 154 201 l 1,1,-1
 54 0 l 1,2,-1
 -32 0 l 1,3,-1
 335 717 l 1,4,5
 302 734 302 734 285.5 768.5 c 128,-1,6
 269 803 269 803 276 845 c 0,7,8
 281 878 281 878 300 907.5 c 128,-1,9
 319 937 319 937 347 957 c 1,10,-1
 476 1158 l 1,11,-1
 575 1158 l 1,12,-1
 449 987 l 1,13,14
 501 982 501 982 531.5 941 c 128,-1,15
 562 900 562 900 553 845 c 0,16,17
 546 803 546 803 519 768.5 c 128,-1,18
 492 734 492 734 453 716 c 1,19,-1
 592 0 l 1,20,-1
 506 0 l 1,21,-1
 469 201 l 1,0,-1
367.5 903 m 128,-1,23
 340 879 340 879 335 845 c 256,24,25
 330 811 330 811 349.5 787 c 128,-1,26
 369 763 369 763 402 763 c 256,27,28
 435 763 435 763 462 787 c 128,-1,29
 489 811 489 811 495 845 c 256,30,31
 500 879 500 879 480.5 903 c 128,-1,32
 461 927 461 927 428 927 c 256,33,22
 395 927 395 927 367.5 903 c 128,-1,23
190 274 m 1,34,-1
 456 274 l 1,35,-1
 386 661 l 1,36,-1
 384 661 l 1,37,-1
 190 274 l 1,34,-1
EndSplineSet
EndChar

StartChar: AE
Encoding: 198 198 27
Width: 817
GlyphClass: 2
Flags: W
AnchorPoint: "Anchor-6" 408 730 basechar 0
AnchorPoint: "Anchor-4" 408 0 basechar 0
LayerCount: 2
Fore
SplineSet
817 658 m 1,0,-1
 538 658 l 1,1,-1
 501 420 l 1,2,-1
 759 420 l 1,3,-1
 748 350 l 1,4,-1
 490 350 l 1,5,-1
 446 72 l 1,6,-1
 724 72 l 1,7,-1
 713 0 l 1,8,-1
 356 0 l 1,9,-1
 388 201 l 1,10,-1
 171 201 l 1,11,-1
 55 0 l 1,12,-1
 -32 0 l 1,13,-1
 399 730 l 1,14,-1
 828 730 l 1,15,-1
 817 658 l 1,0,-1
213 274 m 1,16,-1
 399 274 l 1,17,-1
 461 663 l 1,18,-1
 438 663 l 1,19,-1
 213 274 l 1,16,-1
EndSplineSet
EndChar

StartChar: B
Encoding: 66 66 29
Width: 613
Flags: W
LayerCount: 2
Fore
SplineSet
567 203 m 0,1,2
 551 100 551 100 469 50 c 128,-1,3
 387 0 387 0 235 0 c 2,4,-1
 32 0 l 1,5,-1
 148 730 l 1,6,-1
 347 730 l 2,7,8
 483 730 483 730 544 686.5 c 128,-1,9
 605 643 605 643 590 554 c 0,10,11
 580 488 580 488 538.5 446 c 128,-1,12
 497 404 497 404 428 390 c 1,13,-1
 428 388 l 1,14,0
 592 361 592 361 567 203 c 0,1,2
215 658 m 1,15,-1
 177 420 l 1,16,-1
 302 420 l 2,17,18
 399 420 399 420 449.5 449.5 c 128,-1,19
 500 479 500 479 510 541 c 0,20,21
 520 602 520 602 478.5 630 c 128,-1,22
 437 658 437 658 339 658 c 2,23,-1
 215 658 l 1,15,-1
419 105.5 m 128,-1,25
 478 139 478 139 489 211 c 256,26,27
 500 283 500 283 452 316.5 c 128,-1,28
 404 350 404 350 291 350 c 2,29,-1
 166 350 l 1,30,-1
 122 72 l 1,31,-1
 247 72 l 2,32,24
 360 72 360 72 419 105.5 c 128,-1,25
EndSplineSet
EndChar

StartChar: C
Encoding: 67 67 30
Width: 668
GlyphClass: 2
Flags: W
AnchorPoint: "Anchor-6" 335 730 basechar 0
AnchorPoint: "Anchor-4" 335 0 basechar 0
LayerCount: 2
Fore
SplineSet
164 35.5 m 128,-1,1
 91 81 91 81 62 165.5 c 128,-1,2
 33 250 33 250 51 365 c 256,3,4
 69 480 69 480 125 564.5 c 128,-1,5
 181 649 181 649 268 694.5 c 128,-1,6
 355 740 355 740 464 740 c 0,7,8
 596 740 596 740 684 674 c 1,9,-1
 639 609 l 1,10,11
 560 667 560 667 456 667 c 0,12,13
 372 667 372 667 303 630.5 c 128,-1,14
 234 594 234 594 190 525.5 c 128,-1,15
 146 457 146 457 131 365 c 256,16,17
 116 273 116 273 139 204.5 c 128,-1,18
 162 136 162 136 219 99.5 c 128,-1,19
 276 63 276 63 360 63 c 0,20,21
 465 63 465 63 562 121 c 1,22,-1
 586 56 l 1,23,24
 478 -10 478 -10 345 -10 c 0,25,0
 237 -10 237 -10 164 35.5 c 128,-1,1
EndSplineSet
EndChar

StartChar: Ccedilla
Encoding: 199 199 33
Width: 668
GlyphClass: 2
Flags: W
AnchorPoint: "Anchor-6" 335 730 basechar 0
AnchorPoint: "Anchor-4" 335 0 basechar 0
LayerCount: 2
Fore
SplineSet
586 56 m 1,0,1
 495 1 495 1 390 -8 c 1,2,3
 442 -62 442 -62 433 -120 c 0,4,5
 426 -164 426 -164 385 -191 c 128,-1,6
 344 -218 344 -218 270 -218 c 0,7,8
 209 -218 209 -218 166 -197 c 1,9,-1
 189 -135 l 1,10,11
 228 -154 228 -154 275 -154 c 0,12,13
 311 -154 311 -154 334.5 -142.5 c 128,-1,14
 358 -131 358 -131 361 -107 c 0,15,16
 368 -61 368 -61 294 -7 c 1,17,18
 202 3 202 3 141.5 51 c 128,-1,19
 81 99 81 99 57.5 179 c 128,-1,20
 34 259 34 259 51 365 c 0,21,22
 69 480 69 480 125 564.5 c 128,-1,23
 181 649 181 649 268 694.5 c 128,-1,24
 355 740 355 740 464 740 c 0,25,26
 596 740 596 740 684 674 c 1,27,-1
 639 609 l 1,28,29
 560 667 560 667 456 667 c 0,30,31
 372 667 372 667 303 630.5 c 128,-1,32
 234 594 234 594 190 525.5 c 128,-1,33
 146 457 146 457 131 365 c 256,34,35
 116 273 116 273 139 204.5 c 128,-1,36
 162 136 162 136 219 99.5 c 128,-1,37
 276 63 276 63 360 63 c 0,38,39
 465 63 465 63 562 121 c 1,40,-1
 586 56 l 1,0,1
EndSplineSet
EndChar

StartChar: D
Encoding: 68 68 36
Width: 658
GlyphClass: 2
Flags: W
AnchorPoint: "Anchor-6" 296 730 basechar 0
AnchorPoint: "Anchor-4" 296 0 basechar 0
LayerCount: 2
Fore
SplineSet
327 730 m 2,0,1
 509 730 509 730 585 639.5 c 128,-1,2
 661 549 661 549 632 365 c 256,3,4
 603 181 603 181 498.5 90.5 c 128,-1,5
 394 0 394 0 212 0 c 2,6,-1
 32 0 l 1,7,-1
 148 730 l 1,8,-1
 327 730 l 2,0,1
450 143.5 m 128,-1,10
 529 214 529 214 553 365 c 256,11,12
 577 516 577 516 520.5 586.5 c 128,-1,13
 464 657 464 657 321 657 c 2,14,-1
 215 657 l 1,15,-1
 122 73 l 1,16,-1
 228 73 l 2,17,9
 371 73 371 73 450 143.5 c 128,-1,10
EndSplineSet
EndChar

StartChar: Eth
Encoding: 208 208 38
Width: 712
GlyphClass: 2
Flags: W
CounterMasks: 1 e0
AnchorPoint: "Anchor-6" 347 730 basechar 0
AnchorPoint: "Anchor-4" 347 0 basechar 0
LayerCount: 2
Fore
SplineSet
640.5 639.5 m 128,-1,1
 716 549 716 549 687 365 c 256,2,3
 658 181 658 181 553.5 90.5 c 128,-1,4
 449 0 449 0 267 0 c 2,5,-1
 86 0 l 1,6,-1
 139 332 l 1,7,-1
 33 332 l 1,8,-1
 44 398 l 1,9,-1
 149 398 l 1,10,-1
 202 730 l 1,11,-1
 382 730 l 2,12,0
 565 730 565 730 640.5 639.5 c 128,-1,1
504.5 143.5 m 128,-1,14
 583 214 583 214 607 365 c 256,15,16
 631 516 631 516 575 586.5 c 128,-1,17
 519 657 519 657 375 657 c 2,18,-1
 269 657 l 1,19,-1
 228 398 l 1,20,-1
 450 398 l 1,21,-1
 440 332 l 1,22,-1
 217 332 l 1,23,-1
 176 73 l 1,24,-1
 282 73 l 2,25,13
 426 73 426 73 504.5 143.5 c 128,-1,14
EndSplineSet
EndChar

StartChar: E
Encoding: 69 69 42
Width: 572
GlyphClass: 2
Flags: W
AnchorPoint: "Anchor-6" 265 730 basechar 0
AnchorPoint: "Anchor-5" 483 0 basechar 0
AnchorPoint: "Anchor-4" 265 0 basechar 0
LayerCount: 2
Fore
SplineSet
148 730 m 1,0,-1
 582 730 l 1,1,-1
 571 658 l 1,2,-1
 215 658 l 1,3,-1
 177 420 l 1,4,-1
 513 420 l 1,5,-1
 502 350 l 1,6,-1
 166 350 l 1,7,-1
 122 72 l 1,8,-1
 478 72 l 1,9,-1
 466 0 l 1,10,-1
 32 0 l 1,11,-1
 148 730 l 1,0,-1
EndSplineSet
EndChar

StartChar: Eogonek
Encoding: 280 280 60
Width: 578
GlyphClass: 2
Flags: W
AnchorPoint: "Anchor-6" 265 730 basechar 0
AnchorPoint: "Anchor-5" 483 0 basechar 0
AnchorPoint: "Anchor-4" 265 0 basechar 0
LayerCount: 2
Fore
SplineSet
523 -197 m 1,0,1
 473 -218 473 -218 410 -218 c 0,2,3
 336 -218 336 -218 304 -191 c 128,-1,4
 272 -164 272 -164 279 -120 c 0,5,6
 289 -56 289 -56 369 0 c 1,7,-1
 32 0 l 1,8,-1
 148 730 l 1,9,-1
 582 730 l 1,10,-1
 571 658 l 1,11,-1
 215 658 l 1,12,-1
 177 420 l 1,13,-1
 513 420 l 1,14,-1
 502 350 l 1,15,-1
 166 350 l 1,16,-1
 122 72 l 1,17,-1
 478 72 l 1,18,-1
 466 0 l 1,19,20
 416 -27 416 -27 387 -54.5 c 128,-1,21
 358 -82 358 -82 354 -107 c 0,22,23
 350 -131 350 -131 370 -142 c 128,-1,24
 390 -153 390 -153 427 -153 c 0,25,26
 476 -153 476 -153 519 -134 c 1,27,-1
 523 -197 l 1,0,1
EndSplineSet
EndChar

StartChar: F
Encoding: 70 70 62
Width: 558
Flags: W
LayerCount: 2
Fore
SplineSet
148 730 m 1,0,-1
 582 730 l 1,1,-1
 571 657 l 1,2,-1
 215 657 l 1,3,-1
 176 410 l 1,4,-1
 512 410 l 1,5,-1
 500 338 l 1,6,-1
 164 338 l 1,7,-1
 111 0 l 1,8,-1
 32 0 l 1,9,-1
 148 730 l 1,0,-1
EndSplineSet
EndChar

StartChar: G
Encoding: 71 71 63
Width: 751
GlyphClass: 2
Flags: W
AnchorPoint: "Anchor-6" 362 730 basechar 0
AnchorPoint: "Anchor-4" 362 0 basechar 0
LayerCount: 2
Fore
SplineSet
706 418 m 1,0,-1
 647 46 l 1,1,2
 590 20 590 20 517 5 c 128,-1,3
 444 -10 444 -10 374 -10 c 0,4,5
 255 -10 255 -10 176.5 35 c 128,-1,6
 98 80 98 80 65 164 c 128,-1,7
 32 248 32 248 51 365 c 256,8,9
 70 482 70 482 129 566 c 128,-1,10
 188 650 188 650 281 695 c 128,-1,11
 374 740 374 740 493 740 c 0,12,13
 633 740 633 740 722 678 c 1,14,-1
 680 615 l 1,15,16
 598 668 598 668 481 668 c 0,17,18
 337 668 337 668 245.5 589 c 128,-1,19
 154 510 154 510 131 365 c 256,20,21
 108 220 108 220 174.5 141 c 128,-1,22
 241 62 241 62 385 62 c 0,23,24
 432 62 432 62 483 71 c 128,-1,25
 534 80 534 80 577 96 c 1,26,-1
 617 348 l 1,27,-1
 362 348 l 1,28,-1
 373 418 l 1,29,-1
 706 418 l 1,0,-1
EndSplineSet
EndChar

StartChar: H
Encoding: 72 72 69
Width: 683
GlyphClass: 2
Flags: W
AnchorPoint: "Anchor-6" 310 730 basechar 0
AnchorPoint: "Anchor-4" 310 0 basechar 0
LayerCount: 2
Fore
SplineSet
599 730 m 1,0,-1
 677 730 l 1,1,-1
 562 0 l 1,2,-1
 483 0 l 1,3,-1
 539 350 l 1,4,-1
 166 350 l 1,5,-1
 111 0 l 1,6,-1
 32 0 l 1,7,-1
 148 730 l 1,8,-1
 226 730 l 1,9,-1
 178 423 l 1,10,-1
 550 423 l 1,11,-1
 599 730 l 1,0,-1
EndSplineSet
EndChar

StartChar: Hbar
Encoding: 294 294 70
Width: 764
GlyphClass: 2
Flags: W
AnchorPoint: "Anchor-6" 347 730 basechar 0
AnchorPoint: "Anchor-4" 347 0 basechar 0
LayerCount: 2
Fore
SplineSet
792 629 m 1,0,-1
 782 563 l 1,1,-1
 691 563 l 1,2,-1
 602 0 l 1,3,-1
 523 0 l 1,4,-1
 579 350 l 1,5,-1
 206 350 l 1,6,-1
 151 0 l 1,7,-1
 73 0 l 1,8,-1
 162 563 l 1,9,-1
 71 563 l 1,10,-1
 81 629 l 1,11,-1
 172 629 l 1,12,-1
 188 730 l 1,13,-1
 267 730 l 1,14,-1
 251 629 l 1,15,-1
 623 629 l 1,16,-1
 639 730 l 1,17,-1
 717 730 l 1,18,-1
 701 629 l 1,19,-1
 792 629 l 1,0,-1
590 423 m 1,20,-1
 613 563 l 1,21,-1
 240 563 l 1,22,-1
 218 423 l 1,23,-1
 590 423 l 1,20,-1
EndSplineSet
EndChar

StartChar: I
Encoding: 73 73 72
Width: 251
GlyphClass: 2
Flags: W
AnchorPoint: "Anchor-6" 90 730 basechar 0
AnchorPoint: "Anchor-5" 131 0 basechar 0
AnchorPoint: "Anchor-4" 90 0 basechar 0
LayerCount: 2
Fore
SplineSet
156 730 m 1,0,-1
 237 730 l 1,1,-1
 121 0 l 1,2,-1
 41 0 l 1,3,-1
 156 730 l 1,0,-1
EndSplineSet
EndChar

StartChar: Iogonek
Encoding: 302 302 84
Width: 263
GlyphClass: 2
Flags: W
AnchorPoint: "Anchor-6" 90 730 basechar 0
AnchorPoint: "Anchor-5" 131 0 basechar 0
AnchorPoint: "Anchor-4" 90 0 basechar 0
LayerCount: 2
Fore
SplineSet
183 -197 m 1,0,1
 133 -218 133 -218 71 -218 c 0,2,3
 -3 -218 -3 -218 -35 -191 c 128,-1,4
 -67 -164 -67 -164 -60 -120 c 0,5,6
 -49 -51 -49 -51 49 13 c 1,7,-1
 162 730 l 1,8,-1
 243 730 l 1,9,-1
 127 0 l 1,10,11
 77 -27 77 -27 48 -54.5 c 128,-1,12
 19 -82 19 -82 15 -107 c 0,13,14
 11 -131 11 -131 31 -142 c 128,-1,15
 51 -153 51 -153 87 -153 c 0,16,17
 136 -153 136 -153 179 -134 c 1,18,-1
 183 -197 l 1,0,1
EndSplineSet
EndChar

StartChar: J
Encoding: 74 74 86
Width: 543
GlyphClass: 2
Flags: W
AnchorPoint: "Anchor-6" 236 730 basechar 0
AnchorPoint: "Anchor-4" 236 0 basechar 0
LayerCount: 2
Fore
SplineSet
64.5 4.5 m 128,-1,1
 12 19 12 19 -28 47 c 1,2,-1
 11 114 l 1,3,4
 48 90 48 90 92 76.5 c 128,-1,5
 136 63 136 63 182 63 c 0,6,7
 272 63 272 63 324 116 c 128,-1,8
 376 169 376 169 394 280 c 2,9,-1
 465 730 l 1,10,-1
 545 730 l 1,11,-1
 474 280 l 2,12,13
 451 132 451 132 378 61 c 128,-1,14
 305 -10 305 -10 177 -10 c 0,15,0
 117 -10 117 -10 64.5 4.5 c 128,-1,1
EndSplineSet
EndChar

StartChar: K
Encoding: 75 75 88
Width: 617
GlyphClass: 2
Flags: W
AnchorPoint: "Anchor-6" 255 730 basechar 0
AnchorPoint: "Anchor-4" 255 0 basechar 0
LayerCount: 2
Fore
SplineSet
148 730 m 1,0,-1
 226 730 l 1,1,-1
 176 415 l 1,2,-1
 178 415 l 1,3,-1
 558 730 l 1,4,-1
 658 730 l 1,5,-1
 245 387 l 1,6,-1
 552 0 l 1,7,-1
 453 0 l 1,8,-1
 170 359 l 1,9,-1
 168 359 l 1,10,-1
 111 0 l 1,11,-1
 32 0 l 1,12,-1
 148 730 l 1,0,-1
EndSplineSet
EndChar

StartChar: L
Encoding: 76 76 90
Width: 564
GlyphClass: 2
Flags: W
AnchorPoint: "Anchor-7" 520 730 basechar 0
AnchorPoint: "Anchor-6" 248 730 basechar 0
AnchorPoint: "Anchor-4" 248 0 basechar 0
LayerCount: 2
Fore
SplineSet
148 730 m 1,0,-1
 228 730 l 1,1,-1
 124 73 l 1,2,-1
 495 73 l 1,3,-1
 483 0 l 1,4,-1
 32 0 l 1,5,-1
 148 730 l 1,0,-1
EndSplineSet
EndChar

StartChar: Lslash
Encoding: 321 321 97
Width: 654
GlyphClass: 2
Flags: W
AnchorPoint: "Anchor-7" 607 730 basechar 0
AnchorPoint: "Anchor-6" 334 730 basechar 0
AnchorPoint: "Anchor-4" 334 0 basechar 0
LayerCount: 2
Fore
SplineSet
215 73 m 1,0,-1
 585 73 l 1,1,-1
 574 0 l 1,2,-1
 123 0 l 1,3,-1
 172 310 l 1,4,-1
 32 253 l 1,5,-1
 16 315 l 1,6,-1
 184 384 l 1,7,-1
 238 730 l 1,8,-1
 319 730 l 1,9,-1
 269 419 l 1,10,-1
 411 477 l 1,11,-1
 427 415 l 1,12,-1
 258 346 l 1,13,-1
 215 73 l 1,0,-1
EndSplineSet
EndChar

StartChar: M
Encoding: 77 77 98
Width: 833
Flags: W
LayerCount: 2
Fore
SplineSet
148 730 m 1,0,-1
 250 730 l 1,1,-1
 411 247 l 1,2,-1
 413 247 l 1,3,-1
 726 730 l 1,4,-1
 827 730 l 1,5,-1
 711 0 l 1,6,-1
 633 0 l 1,7,-1
 729 606 l 1,8,-1
 727 606 l 1,9,-1
 434 155 l 1,10,-1
 359 155 l 1,11,-1
 209 606 l 1,12,-1
 207 606 l 1,13,-1
 111 0 l 1,14,-1
 32 0 l 1,15,-1
 148 730 l 1,0,-1
EndSplineSet
EndChar

StartChar: N
Encoding: 78 78 99
Width: 693
GlyphClass: 2
Flags: W
AnchorPoint: "Anchor-6" 315 730 basechar 0
AnchorPoint: "Anchor-4" 315 0 basechar 0
LayerCount: 2
Fore
SplineSet
148 730 m 1,0,-1
 237 730 l 1,1,-1
 511 127 l 1,2,-1
 513 127 l 1,3,-1
 609 730 l 1,4,-1
 687 730 l 1,5,-1
 571 0 l 1,6,-1
 482 0 l 1,7,-1
 208 603 l 1,8,-1
 206 603 l 1,9,-1
 111 0 l 1,10,-1
 32 0 l 1,11,-1
 148 730 l 1,0,-1
EndSplineSet
EndChar

StartChar: Eng
Encoding: 330 330 104
Width: 693
GlyphClass: 2
Flags: W
AnchorPoint: "Anchor-6" 315 730 basechar 0
AnchorPoint: "Anchor-4" 315 0 basechar 0
LayerCount: 2
Fore
SplineSet
687 730 m 1,0,-1
 565 -38 l 2,1,2
 550 -132 550 -132 505 -175 c 128,-1,3
 460 -218 460 -218 376 -218 c 0,4,5
 328 -218 328 -218 278 -202 c 1,6,-1
 302 -135 l 1,7,8
 336 -148 336 -148 372 -148 c 0,9,10
 424 -148 424 -148 451.5 -122.5 c 128,-1,11
 479 -97 479 -97 488 -38 c 2,12,-1
 491 -19 l 1,13,-1
 207 596 l 1,14,-1
 205 596 l 1,15,-1
 111 0 l 1,16,-1
 32 0 l 1,17,-1
 148 730 l 1,18,-1
 237 730 l 1,19,-1
 512 134 l 1,20,-1
 514 134 l 1,21,-1
 609 730 l 1,22,-1
 687 730 l 1,0,-1
EndSplineSet
EndChar

StartChar: O
Encoding: 79 79 107
Width: 780
GlyphClass: 2
Flags: W
AnchorPoint: "Anchor-7" 546 690 basechar 0
AnchorPoint: "Anchor-6" 356 730 basechar 0
AnchorPoint: "Anchor-5" 412 0 basechar 0
AnchorPoint: "Anchor-4" 356 0 basechar 0
LayerCount: 2
Fore
SplineSet
165 36 m 128,-1,1
 92 82 92 82 62.5 167 c 128,-1,2
 33 252 33 252 51 365 c 256,3,4
 69 478 69 478 125.5 563 c 128,-1,5
 182 648 182 648 269 694 c 128,-1,6
 356 740 356 740 462 740 c 256,7,8
 568 740 568 740 640.5 694 c 128,-1,9
 713 648 713 648 743 563 c 128,-1,10
 773 478 773 478 755 365 c 256,11,12
 737 252 737 252 680.5 167 c 128,-1,13
 624 82 624 82 536.5 36 c 128,-1,14
 449 -10 449 -10 343 -10 c 256,15,0
 238 -10 238 -10 165 36 c 128,-1,1
504 99.5 m 128,-1,17
 571 136 571 136 615.5 204.5 c 128,-1,18
 660 273 660 273 674 365 c 256,19,20
 689 457 689 457 666.5 525.5 c 128,-1,21
 644 594 644 594 588.5 630.5 c 128,-1,22
 533 667 533 667 451 667 c 256,23,24
 369 667 369 667 301.5 630.5 c 128,-1,25
 234 594 234 594 190 525.5 c 128,-1,26
 146 457 146 457 131 365 c 256,27,28
 116 273 116 273 139 204.5 c 128,-1,29
 162 136 162 136 217.5 99.5 c 128,-1,30
 273 63 273 63 355 63 c 256,31,16
 437 63 437 63 504 99.5 c 128,-1,17
EndSplineSet
Substitution2: "Single Substitution lookup 21 subtable" ordmasculine
Substitution2: "'aalt' Access All Alternates in Latin lookup 0 subtable" ordmasculine
EndChar

StartChar: Ohorn
Encoding: 416 416 123
Width: 797
GlyphClass: 2
Flags: W
AnchorPoint: "Anchor-7" 760 842 basechar 0
AnchorPoint: "Anchor-6" 356 730 basechar 0
AnchorPoint: "Anchor-5" 412 0 basechar 0
AnchorPoint: "Anchor-4" 356 0 basechar 0
LayerCount: 2
Fore
SplineSet
798.5 643 m 128,-1,1
 770 610 770 610 725 603 c 1,2,3
 777 506 777 506 755 365 c 0,4,5
 737 252 737 252 680.5 167 c 128,-1,6
 624 82 624 82 536.5 36 c 128,-1,7
 449 -10 449 -10 343 -10 c 256,8,9
 237 -10 237 -10 164.5 36 c 128,-1,10
 92 82 92 82 62.5 167 c 128,-1,11
 33 252 33 252 51 365 c 256,12,13
 69 478 69 478 125.5 563 c 128,-1,14
 182 648 182 648 269 694 c 128,-1,15
 356 740 356 740 462 740 c 0,16,17
 588 740 588 740 667 674 c 1,18,19
 677 671 677 671 689 671 c 0,20,21
 717 671 717 671 735 689 c 128,-1,22
 753 707 753 707 758 741 c 0,23,24
 762 764 762 764 761 793.5 c 128,-1,25
 760 823 760 823 755 842 c 1,26,-1
 835 842 l 1,27,28
 845 785 845 785 836 731 c 0,29,0
 827 676 827 676 798.5 643 c 128,-1,1
504 99.5 m 128,-1,31
 571 136 571 136 615.5 204.5 c 128,-1,32
 660 273 660 273 674 365 c 256,33,34
 689 457 689 457 666.5 525.5 c 128,-1,35
 644 594 644 594 588.5 630.5 c 128,-1,36
 533 667 533 667 451 667 c 256,37,38
 369 667 369 667 301.5 630.5 c 128,-1,39
 234 594 234 594 190 525.5 c 128,-1,40
 146 457 146 457 131 365 c 256,41,42
 116 273 116 273 139 204.5 c 128,-1,43
 162 136 162 136 217.5 99.5 c 128,-1,44
 273 63 273 63 355 63 c 256,45,30
 437 63 437 63 504 99.5 c 128,-1,31
EndSplineSet
EndChar

StartChar: uni01EA
Encoding: 490 490 132
Width: 780
GlyphClass: 2
Flags: W
AnchorPoint: "Anchor-7" 546 690 basechar 0
AnchorPoint: "Anchor-6" 356 730 basechar 0
AnchorPoint: "Anchor-5" 412 0 basechar 0
AnchorPoint: "Anchor-4" 356 0 basechar 0
LayerCount: 2
Fore
SplineSet
288 -107 m 0,1,2
 284 -131 284 -131 304 -142 c 128,-1,3
 324 -153 324 -153 360 -153 c 0,4,5
 409 -153 409 -153 452 -134 c 1,6,-1
 456 -197 l 1,7,8
 406 -218 406 -218 344 -218 c 0,9,10
 270 -218 270 -218 237.5 -191 c 128,-1,11
 205 -164 205 -164 212 -120 c 0,12,13
 222 -60 222 -60 293 -7 c 1,14,15
 204 4 204 4 143.5 52.5 c 128,-1,16
 83 101 83 101 59 181.5 c 128,-1,17
 35 262 35 262 51 365 c 0,18,19
 69 478 69 478 125.5 563 c 128,-1,20
 182 648 182 648 269 694 c 128,-1,21
 356 740 356 740 462 740 c 256,22,23
 568 740 568 740 640.5 694 c 128,-1,24
 713 648 713 648 743 563 c 128,-1,25
 773 478 773 478 755 365 c 0,26,27
 738 260 738 260 687.5 178.5 c 128,-1,28
 637 97 637 97 559 49 c 128,-1,29
 481 1 481 1 386 -8 c 1,30,0
 295 -61 295 -61 288 -107 c 0,1,2
139.5 204.5 m 128,-1,32
 162 136 162 136 217.5 99.5 c 128,-1,33
 273 63 273 63 355 63 c 256,34,35
 437 63 437 63 504 99.5 c 128,-1,36
 571 136 571 136 615.5 204.5 c 128,-1,37
 660 273 660 273 674 365 c 256,38,39
 689 457 689 457 666.5 525.5 c 128,-1,40
 644 594 644 594 588.5 630.5 c 128,-1,41
 533 667 533 667 451 667 c 256,42,43
 369 667 369 667 301.5 630.5 c 128,-1,44
 234 594 234 594 190 525.5 c 128,-1,45
 146 457 146 457 131 365 c 256,46,31
 117 273 117 273 139.5 204.5 c 128,-1,32
EndSplineSet
EndChar

StartChar: Oslash
Encoding: 216 216 133
Width: 780
GlyphClass: 2
Flags: W
AnchorPoint: "Anchor-7" 546 690 basechar 0
AnchorPoint: "Anchor-6" 356 730 basechar 0
AnchorPoint: "Anchor-5" 412 0 basechar 0
AnchorPoint: "Anchor-4" 356 0 basechar 0
LayerCount: 2
Fore
SplineSet
753.5 525 m 128,-1,1
 769 453 769 453 755 365 c 0,2,3
 737 252 737 252 680.5 167 c 128,-1,4
 624 82 624 82 536.5 36 c 128,-1,5
 449 -10 449 -10 343 -10 c 0,6,7
 230 -10 230 -10 157 42 c 1,8,-1
 92 -30 l 1,9,-1
 46 10 l 1,10,-1
 111 83 l 1,11,12
 68 133 68 133 52.5 205 c 128,-1,13
 37 277 37 277 51 365 c 0,14,15
 69 478 69 478 125.5 563 c 128,-1,16
 182 648 182 648 269 694 c 128,-1,17
 356 740 356 740 462 740 c 0,18,19
 575 740 575 740 649 688 c 1,20,-1
 713 760 l 1,21,-1
 760 720 l 1,22,-1
 694 647 l 1,23,0
 738 597 738 597 753.5 525 c 128,-1,1
130 241.5 m 128,-1,25
 139 186 139 186 167 147 c 1,26,-1
 594 626 l 1,27,28
 538 667 538 667 451 667 c 0,29,30
 369 667 369 667 301.5 630.5 c 128,-1,31
 234 594 234 594 190 525.5 c 128,-1,32
 146 457 146 457 131 365 c 0,33,24
 121 297 121 297 130 241.5 c 128,-1,25
504 99.5 m 128,-1,35
 571 136 571 136 615.5 204.5 c 128,-1,36
 660 273 660 273 674 365 c 0,37,38
 685 433 685 433 675.5 488.5 c 128,-1,39
 666 544 666 544 638 583 c 1,40,-1
 212 104 l 1,41,42
 268 63 268 63 355 63 c 0,43,34
 437 63 437 63 504 99.5 c 128,-1,35
EndSplineSet
EndChar

StartChar: OE
Encoding: 338 338 137
Width: 976
GlyphClass: 2
Flags: W
AnchorPoint: "Anchor-6" 675 730 basechar 0
AnchorPoint: "Anchor-5" 893 0 basechar 0
AnchorPoint: "Anchor-4" 675 0 basechar 0
LayerCount: 2
Fore
SplineSet
620 658 m 1,0,-1
 582 420 l 1,1,-1
 918 420 l 1,2,-1
 907 350 l 1,3,-1
 571 350 l 1,4,-1
 527 72 l 1,5,-1
 883 72 l 1,6,-1
 871 0 l 1,7,-1
 437 0 l 1,8,9
 388 -10 388 -10 343 -10 c 0,10,11
 237 -10 237 -10 164.5 36 c 128,-1,12
 92 82 92 82 62.5 167 c 128,-1,13
 33 252 33 252 51 365 c 256,14,15
 69 478 69 478 125.5 563 c 128,-1,16
 182 648 182 648 269 694 c 128,-1,17
 356 740 356 740 462 740 c 0,18,19
 507 740 507 740 553 730 c 1,20,-1
 987 730 l 1,21,-1
 976 658 l 1,22,-1
 620 658 l 1,0,-1
450 78 m 1,24,-1
 540 652 l 1,25,26
 501 667 501 667 451 667 c 0,27,28
 369 667 369 667 301.5 630.5 c 128,-1,29
 234 594 234 594 190 525.5 c 128,-1,30
 146 457 146 457 131 365 c 256,31,32
 116 273 116 273 139 204.5 c 128,-1,33
 162 136 162 136 217.5 99.5 c 128,-1,34
 273 63 273 63 355 63 c 0,35,23
 406 63 406 63 450 78 c 1,24,-1
EndSplineSet
EndChar

StartChar: P
Encoding: 80 80 138
Width: 577
Flags: W
LayerCount: 2
Fore
SplineSet
539.5 675.5 m 128,-1,1
 604 621 604 621 586 505 c 0,2,3
 568 390 568 390 488.5 334.5 c 128,-1,4
 409 279 409 279 263 279 c 2,5,-1
 155 279 l 1,6,-1
 111 0 l 1,7,-1
 32 0 l 1,8,-1
 148 730 l 1,9,-1
 321 730 l 2,10,0
 475 730 475 730 539.5 675.5 c 128,-1,1
436 387.5 m 128,-1,12
 493 424 493 424 506 504 c 256,13,14
 519 584 519 584 473 620.5 c 128,-1,15
 427 657 427 657 313 657 c 2,16,-1
 215 657 l 1,17,-1
 166 351 l 1,18,-1
 264 351 l 2,19,11
 379 351 379 351 436 387.5 c 128,-1,12
EndSplineSet
EndChar

StartChar: Thorn
Encoding: 222 222 139
Width: 577
Flags: W
LayerCount: 2
Fore
SplineSet
519.5 545.5 m 128,-1,1
 583 491 583 491 565 375 c 0,2,3
 547 260 547 260 467.5 205 c 128,-1,4
 388 150 388 150 242 150 c 2,5,-1
 135 150 l 1,6,-1
 111 0 l 1,7,-1
 32 0 l 1,8,-1
 148 730 l 1,9,-1
 226 730 l 1,10,-1
 206 600 l 1,11,-1
 301 600 l 2,12,0
 456 600 456 600 519.5 545.5 c 128,-1,1
416 258 m 128,-1,14
 473 294 473 294 486 374 c 256,15,16
 499 454 499 454 453 490.5 c 128,-1,17
 407 527 407 527 292 527 c 2,18,-1
 194 527 l 1,19,-1
 146 222 l 1,20,-1
 244 222 l 2,21,13
 359 222 359 222 416 258 c 128,-1,14
EndSplineSet
EndChar

StartChar: Q
Encoding: 81 81 140
Width: 787
Flags: W
LayerCount: 2
Fore
SplineSet
698 -81 m 1,1,-1
 629 -127 l 1,2,3
 590 -70 590 -70 516 -40 c 128,-1,4
 442 -10 442 -10 343 -10 c 0,5,6
 237 -10 237 -10 164.5 36 c 128,-1,7
 92 82 92 82 62.5 167 c 128,-1,8
 33 252 33 252 51 365 c 256,9,10
 69 478 69 478 125.5 563 c 128,-1,11
 182 648 182 648 269 694 c 128,-1,12
 356 740 356 740 462 740 c 256,13,14
 568 740 568 740 640.5 694 c 128,-1,15
 713 648 713 648 743 563 c 128,-1,16
 773 478 773 478 755 365 c 0,17,18
 736 245 736 245 671.5 158 c 128,-1,19
 607 71 607 71 510 30 c 1,20,0
 636 -2 636 -2 698 -81 c 1,1,-1
139.5 204.5 m 128,-1,22
 162 136 162 136 217.5 99.5 c 128,-1,23
 273 63 273 63 355 63 c 256,24,25
 437 63 437 63 504 99.5 c 128,-1,26
 571 136 571 136 615.5 204.5 c 128,-1,27
 660 273 660 273 674 365 c 256,28,29
 689 457 689 457 666.5 525.5 c 128,-1,30
 644 594 644 594 588.5 630.5 c 128,-1,31
 533 667 533 667 451 667 c 256,32,33
 369 667 369 667 301.5 630.5 c 128,-1,34
 234 594 234 594 190 525.5 c 128,-1,35
 146 457 146 457 131 365 c 256,36,21
 117 273 117 273 139.5 204.5 c 128,-1,22
EndSplineSet
EndChar

StartChar: R
Encoding: 82 82 141
Width: 605
GlyphClass: 2
Flags: W
AnchorPoint: "Anchor-6" 258 730 basechar 0
AnchorPoint: "Anchor-4" 258 0 basechar 0
LayerCount: 2
Fore
SplineSet
229 318 m 1,0,-1
 161 318 l 1,1,-1
 111 0 l 1,2,-1
 32 0 l 1,3,-1
 148 730 l 1,4,-1
 334 730 l 2,5,6
 483 730 483 730 544.5 681 c 128,-1,7
 606 632 606 632 589 525 c 0,8,9
 573 427 573 427 507.5 376.5 c 128,-1,10
 442 326 442 326 320 319 c 1,11,-1
 529 0 l 1,12,-1
 435 0 l 1,13,-1
 229 318 l 1,0,-1
172 389 m 1,14,-1
 283 389 l 2,15,16
 392 389 392 389 445 420 c 128,-1,17
 498 451 498 451 509 522 c 256,18,19
 520 593 520 593 477 625 c 128,-1,20
 434 657 434 657 326 657 c 2,21,-1
 215 657 l 1,22,-1
 172 389 l 1,14,-1
EndSplineSet
EndChar

StartChar: S
Encoding: 83 83 147
Width: 589
GlyphClass: 2
Flags: W
AnchorPoint: "Anchor-6" 258 730 basechar 0
AnchorPoint: "Anchor-4" 258 0 basechar 0
LayerCount: 2
Fore
SplineSet
115 5.5 m 128,-1,1
 57 21 57 21 15 50 c 1,2,-1
 54 119 l 1,3,4
 95 92 95 92 146 77.5 c 128,-1,5
 197 63 197 63 251 63 c 0,6,7
 332 63 332 63 382.5 96.5 c 128,-1,8
 433 130 433 130 443 192 c 0,9,10
 450 234 450 234 432.5 260.5 c 128,-1,11
 415 287 415 287 383 302 c 128,-1,12
 351 317 351 317 295 335 c 0,13,14
 221 360 221 360 176 385 c 128,-1,15
 131 410 131 410 108.5 449.5 c 128,-1,16
 86 489 86 489 96 549 c 0,17,18
 110 639 110 639 181.5 689.5 c 128,-1,19
 253 740 253 740 368 740 c 0,20,21
 428 740 428 740 488.5 726.5 c 128,-1,22
 549 713 549 713 586 691 c 1,23,-1
 546 622 l 1,24,25
 513 642 513 642 461.5 654.5 c 128,-1,26
 410 667 410 667 360 667 c 0,27,28
 282 667 282 667 234 636.5 c 128,-1,29
 186 606 186 606 176 549 c 0,30,31
 170 510 170 510 187 485 c 128,-1,32
 204 460 204 460 235 445 c 128,-1,33
 266 430 266 430 321 413 c 0,34,35
 396 387 396 387 441.5 361.5 c 128,-1,36
 487 336 487 336 510 295.5 c 128,-1,37
 533 255 533 255 523 192 c 0,38,39
 509 97 509 97 434 43.5 c 128,-1,40
 359 -10 359 -10 240 -10 c 0,41,0
 173 -10 173 -10 115 5.5 c 128,-1,1
EndSplineSet
EndChar

StartChar: Scedilla
Encoding: 350 350 150
Width: 589
GlyphClass: 2
Flags: W
AnchorPoint: "Anchor-6" 258 730 basechar 0
AnchorPoint: "Anchor-4" 258 0 basechar 0
LayerCount: 2
Fore
SplineSet
457 62 m 128,-1,1
 402 11 402 11 313 -4 c 1,2,3
 370 -60 370 -60 360 -120 c 0,4,5
 353 -164 353 -164 312 -191 c 128,-1,6
 271 -218 271 -218 198 -218 c 0,7,8
 137 -218 137 -218 93 -197 c 1,9,-1
 117 -135 l 1,10,11
 156 -154 156 -154 202 -154 c 0,12,13
 238 -154 238 -154 262 -142.5 c 128,-1,14
 286 -131 286 -131 290 -107 c 0,15,16
 293 -85 293 -85 276.5 -60 c 128,-1,17
 260 -35 260 -35 225 -10 c 1,18,19
 164 -8 164 -8 109.5 7 c 128,-1,20
 55 22 55 22 15 50 c 1,21,-1
 54 119 l 1,22,23
 95 92 95 92 146 77.5 c 128,-1,24
 197 63 197 63 251 63 c 0,25,26
 332 63 332 63 382.5 96.5 c 128,-1,27
 433 130 433 130 443 192 c 0,28,29
 450 234 450 234 432.5 260.5 c 128,-1,30
 415 287 415 287 383 302 c 128,-1,31
 351 317 351 317 295 335 c 0,32,33
 221 360 221 360 176 385 c 128,-1,34
 131 410 131 410 108.5 449.5 c 128,-1,35
 86 489 86 489 96 549 c 0,36,37
 110 639 110 639 181.5 689.5 c 128,-1,38
 253 740 253 740 368 740 c 0,39,40
 428 740 428 740 488.5 726.5 c 128,-1,41
 549 713 549 713 586 691 c 1,42,-1
 546 622 l 1,43,44
 513 642 513 642 461.5 654.5 c 128,-1,45
 410 667 410 667 360 667 c 0,46,47
 282 667 282 667 234 636.5 c 128,-1,48
 186 606 186 606 176 549 c 0,49,50
 170 510 170 510 187 485 c 128,-1,51
 204 460 204 460 235 445 c 128,-1,52
 266 430 266 430 321 413 c 0,53,54
 396 387 396 387 441.5 361.5 c 128,-1,55
 487 336 487 336 510 295.5 c 128,-1,56
 533 255 533 255 523 192 c 0,57,0
 512 113 512 113 457 62 c 128,-1,1
EndSplineSet
Substitution2: "'locl' Localized Forms in Latin lookup 4 subtable" uni0218
Substitution2: "'aalt' Access All Alternates in Latin lookup 0 subtable" uni0218
EndChar

StartChar: uni1E9E
Encoding: 7838 7838 153
Width: 645
Flags: W
LayerCount: 2
Fore
SplineSet
211 10 m 1,1,-1
 234 81 l 1,2,3
 283 63 283 63 337 63 c 0,4,5
 419 63 419 63 468.5 96 c 128,-1,6
 518 129 518 129 528 190 c 0,7,8
 538 254 538 254 496 285.5 c 128,-1,9
 454 317 454 317 358 317 c 2,10,-1
 345 317 l 1,11,-1
 357 393 l 1,12,-1
 513 565 l 1,13,14
 526 667 526 667 380 667 c 0,15,16
 294 667 294 667 249 628.5 c 128,-1,17
 204 590 204 590 191 504 c 2,18,-1
 111 0 l 1,19,-1
 32 0 l 1,20,-1
 112 504 l 2,21,22
 131 623 131 623 200 681.5 c 128,-1,23
 269 740 269 740 392 740 c 0,24,25
 619 740 619 740 588 544 c 1,26,-1
 440 381 l 1,27,-1
 439 379 l 1,28,29
 534 374 534 374 578 325 c 128,-1,30
 622 276 622 276 608 190 c 0,31,32
 593 93 593 93 522.5 41.5 c 128,-1,33
 452 -10 452 -10 336 -10 c 0,34,0
 267 -10 267 -10 211 10 c 1,1,-1
EndSplineSet
EndChar

StartChar: uni018F
Encoding: 399 399 154
Width: 735
Flags: W
LayerCount: 2
Fore
SplineSet
658 643 m 128,-1,1
 738 546 738 546 710 365 c 0,2,3
 691 248 691 248 638 163.5 c 128,-1,4
 585 79 585 79 503.5 34.5 c 128,-1,5
 422 -10 422 -10 318 -10 c 0,6,7
 215 -10 215 -10 148 34 c 128,-1,8
 81 78 81 78 55.5 161 c 128,-1,9
 30 244 30 244 48 360 c 0,10,11
 52 384 52 384 56 398 c 1,12,-1
 637 398 l 1,13,14
 655 531 655 531 593.5 599 c 128,-1,15
 532 667 532 667 393 667 c 0,16,17
 330 667 330 667 266 653.5 c 128,-1,18
 202 640 202 640 143 615 c 1,19,-1
 137 684 l 1,20,21
 194 710 194 710 263 725 c 128,-1,22
 332 740 332 740 400 740 c 0,23,0
 578 740 578 740 658 643 c 128,-1,1
521.5 130 m 128,-1,25
 597 197 597 197 624 325 c 1,26,-1
 122 325 l 1,27,28
 109 197 109 197 163 130 c 128,-1,29
 217 63 217 63 332 63 c 256,30,24
 446 63 446 63 521.5 130 c 128,-1,25
EndSplineSet
EndChar

StartChar: T
Encoding: 84 84 155
Width: 612
GlyphClass: 2
Flags: W
AnchorPoint: "Anchor-8" 228 0 basechar 0
AnchorPoint: "Anchor-6" 270 730 basechar 0
AnchorPoint: "Anchor-4" 270 0 basechar 0
LayerCount: 2
Fore
SplineSet
325 657 m 1,0,-1
 85 657 l 1,1,-1
 96 730 l 1,2,-1
 658 730 l 1,3,-1
 646 657 l 1,4,-1
 405 657 l 1,5,-1
 301 0 l 1,6,-1
 221 0 l 1,7,-1
 325 657 l 1,0,-1
EndSplineSet
EndChar

StartChar: Tbar
Encoding: 358 358 156
Width: 663
GlyphClass: 2
Flags: W
AnchorPoint: "Anchor-8" 256 0 basechar 0
AnchorPoint: "Anchor-6" 298 730 basechar 0
AnchorPoint: "Anchor-4" 298 0 basechar 0
LayerCount: 2
Fore
SplineSet
672 657 m 1,0,-1
 430 657 l 1,1,-1
 382 348 l 1,2,-1
 561 348 l 1,3,-1
 550 282 l 1,4,-1
 371 282 l 1,5,-1
 326 0 l 1,6,-1
 246 0 l 1,7,-1
 291 282 l 1,8,-1
 112 282 l 1,9,-1
 123 348 l 1,10,-1
 301 348 l 1,11,-1
 350 657 l 1,12,-1
 110 657 l 1,13,-1
 122 730 l 1,14,-1
 683 730 l 1,15,-1
 672 657 l 1,0,-1
EndSplineSet
EndChar

StartChar: uni0162
Encoding: 354 354 158
Width: 612
GlyphClass: 2
Flags: W
AnchorPoint: "Anchor-8" 228 0 basechar 0
AnchorPoint: "Anchor-6" 270 730 basechar 0
AnchorPoint: "Anchor-4" 270 0 basechar 0
LayerCount: 2
Fore
SplineSet
405 657 m 1,0,-1
 303 14 l 1,1,2
 382 -49 382 -49 371 -120 c 0,3,4
 364 -164 364 -164 323 -191 c 128,-1,5
 282 -218 282 -218 209 -218 c 0,6,7
 147 -218 147 -218 103 -197 c 1,8,-1
 127 -134 l 1,9,10
 164 -153 164 -153 213 -153 c 0,11,12
 249 -153 249 -153 272.5 -142 c 128,-1,13
 296 -131 296 -131 300 -107 c 0,14,15
 304 -82 304 -82 283.5 -54.5 c 128,-1,16
 263 -27 263 -27 222 0 c 1,17,-1
 221 0 l 1,18,-1
 325 657 l 1,19,-1
 85 657 l 1,20,-1
 96 730 l 1,21,-1
 658 730 l 1,22,-1
 646 657 l 1,23,-1
 405 657 l 1,0,-1
EndSplineSet
Substitution2: "'locl' Localized Forms in Latin lookup 4 subtable" uni021A
Substitution2: "'aalt' Access All Alternates in Latin lookup 0 subtable" uni021A
EndChar

StartChar: U
Encoding: 85 85 160
Width: 674
GlyphClass: 2
Flags: W
AnchorPoint: "Anchor-7" 568 690 basechar 0
AnchorPoint: "Anchor-6" 305 730 basechar 0
AnchorPoint: "Anchor-5" 425 10 basechar 0
AnchorPoint: "Anchor-4" 305 0 basechar 0
LayerCount: 2
Fore
SplineSet
102 61 m 128,-1,1
 45 132 45 132 67 270 c 2,2,-1
 140 730 l 1,3,-1
 218 730 l 1,4,-1
 147 279 l 2,5,6
 129 168 129 168 167.5 115.5 c 128,-1,7
 206 63 206 63 303 63 c 256,8,9
 400 63 400 63 454 115.5 c 128,-1,10
 508 168 508 168 526 279 c 2,11,-1
 597 730 l 1,12,-1
 676 730 l 1,13,-1
 603 270 l 2,14,15
 581 132 581 132 501.5 61 c 128,-1,16
 422 -10 422 -10 291 -10 c 0,17,0
 159 -10 159 -10 102 61 c 128,-1,1
EndSplineSet
EndChar

StartChar: Uhorn
Encoding: 431 431 169
Width: 759
GlyphClass: 2
Flags: W
AnchorPoint: "Anchor-7" 782 842 basechar 0
AnchorPoint: "Anchor-6" 305 730 basechar 0
AnchorPoint: "Anchor-5" 425 10 basechar 0
AnchorPoint: "Anchor-4" 305 0 basechar 0
LayerCount: 2
Fore
SplineSet
855 731 m 0,1,2
 845 670 845 670 810.5 636 c 128,-1,3
 776 602 776 602 723 602 c 0,4,5
 692 602 692 602 658 615 c 1,6,-1
 603 270 l 2,7,8
 581 132 581 132 501.5 61 c 128,-1,9
 422 -10 422 -10 291 -10 c 0,10,11
 159 -10 159 -10 102 61 c 128,-1,12
 45 132 45 132 67 270 c 2,13,-1
 140 730 l 1,14,-1
 218 730 l 1,15,-1
 147 279 l 2,16,17
 129 168 129 168 167.5 115.5 c 128,-1,18
 206 63 206 63 303 63 c 256,19,20
 400 63 400 63 454 115.5 c 128,-1,21
 508 168 508 168 526 279 c 2,22,-1
 597 730 l 1,23,-1
 676 730 l 1,24,-1
 668 683 l 1,25,26
 687 671 687 671 709 671 c 0,27,28
 737 671 737 671 754.5 689 c 128,-1,29
 772 707 772 707 778 741 c 0,30,31
 782 764 782 764 780.5 793.5 c 128,-1,32
 779 823 779 823 774 842 c 1,33,-1
 854 842 l 1,34,0
 864 785 864 785 855 731 c 0,1,2
EndSplineSet
EndChar

StartChar: Uogonek
Encoding: 370 370 178
Width: 674
GlyphClass: 2
Flags: W
AnchorPoint: "Anchor-7" 568 690 basechar 0
AnchorPoint: "Anchor-6" 305 730 basechar 0
AnchorPoint: "Anchor-5" 425 10 basechar 0
AnchorPoint: "Anchor-4" 305 0 basechar 0
LayerCount: 2
Fore
SplineSet
331 -46.5 m 128,-1,1
 304 -73 304 -73 300 -97 c 256,2,3
 296 -121 296 -121 316 -132 c 128,-1,4
 336 -143 336 -143 372 -143 c 0,5,6
 421 -143 421 -143 464 -124 c 1,7,-1
 468 -187 l 1,8,9
 418 -208 418 -208 356 -208 c 0,10,11
 282 -208 282 -208 249.5 -181 c 128,-1,12
 217 -154 217 -154 224 -110 c 0,13,14
 232 -57 232 -57 289 -10 c 1,15,16
 158 -9 158 -9 101.5 62 c 128,-1,17
 45 133 45 133 67 270 c 2,18,-1
 140 730 l 1,19,-1
 218 730 l 1,20,-1
 147 279 l 2,21,22
 129 168 129 168 167.5 115.5 c 128,-1,23
 206 63 206 63 303 63 c 256,24,25
 400 63 400 63 454 115.5 c 128,-1,26
 508 168 508 168 526 279 c 2,27,-1
 597 730 l 1,28,-1
 676 730 l 1,29,-1
 603 270 l 2,30,31
 586 165 586 165 536.5 98.5 c 128,-1,32
 487 32 487 32 405 6 c 1,33,0
 358 -20 358 -20 331 -46.5 c 128,-1,1
EndSplineSet
EndChar

StartChar: V
Encoding: 86 86 181
Width: 649
Flags: W
LayerCount: 2
Fore
SplineSet
83 730 m 1,0,-1
 170 730 l 1,1,-1
 292 80 l 1,2,-1
 294 80 l 1,3,-1
 621 730 l 1,4,-1
 708 730 l 1,5,-1
 332 0 l 1,6,-1
 228 0 l 1,7,-1
 83 730 l 1,0,-1
EndSplineSet
EndChar

StartChar: W
Encoding: 87 87 182
Width: 894
GlyphClass: 2
Flags: W
AnchorPoint: "Anchor-6" 413 730 basechar 0
AnchorPoint: "Anchor-4" 413 0 basechar 0
LayerCount: 2
Fore
SplineSet
507 644 m 1,0,-1
 505 644 l 1,1,-1
 256 0 l 1,2,-1
 157 0 l 1,3,-1
 96 730 l 1,4,-1
 176 730 l 1,5,-1
 219 86 l 1,6,-1
 220 86 l 1,7,-1
 469 730 l 1,8,-1
 571 730 l 1,9,-1
 617 86 l 1,10,-1
 619 86 l 1,11,-1
 865 730 l 1,12,-1
 943 730 l 1,13,-1
 651 0 l 1,14,-1
 552 0 l 1,15,-1
 507 644 l 1,0,-1
EndSplineSet
EndChar

StartChar: X
Encoding: 88 88 187
Width: 667
Flags: W
LayerCount: 2
Fore
SplineSet
290 368 m 1,0,-1
 121 730 l 1,1,-1
 210 730 l 1,2,-1
 353 416 l 1,3,-1
 355 416 l 1,4,-1
 598 730 l 1,5,-1
 687 730 l 1,6,-1
 404 368 l 1,7,-1
 576 0 l 1,8,-1
 487 0 l 1,9,-1
 340 320 l 1,10,-1
 338 320 l 1,11,-1
 91 0 l 1,12,-1
 1 0 l 1,13,-1
 290 368 l 1,0,-1
EndSplineSet
EndChar

StartChar: Y
Encoding: 89 89 188
Width: 629
GlyphClass: 2
Flags: W
AnchorPoint: "Anchor-6" 277 730 basechar 0
AnchorPoint: "Anchor-4" 277 0 basechar 0
LayerCount: 2
Fore
SplineSet
277 302 m 1,0,-1
 78 730 l 1,1,-1
 168 730 l 1,2,-1
 329 377 l 1,3,-1
 331 377 l 1,4,-1
 602 730 l 1,5,-1
 692 730 l 1,6,-1
 358 302 l 1,7,-1
 310 0 l 1,8,-1
 229 0 l 1,9,-1
 277 302 l 1,0,-1
EndSplineSet
EndChar

StartChar: Z
Encoding: 90 90 197
Width: 613
GlyphClass: 2
Flags: W
AnchorPoint: "Anchor-6" 273 730 basechar 0
AnchorPoint: "Anchor-4" 273 0 basechar 0
LayerCount: 2
Fore
SplineSet
28 73 m 1,0,-1
 514 655 l 1,1,-1
 514 657 l 1,2,-1
 121 657 l 1,3,-1
 133 730 l 1,4,-1
 623 730 l 1,5,-1
 611 657 l 1,6,-1
 126 75 l 1,7,-1
 125 73 l 1,8,-1
 518 73 l 1,9,-1
 507 0 l 1,10,-1
 17 0 l 1,11,-1
 28 73 l 1,0,-1
EndSplineSet
EndChar

StartChar: a
Encoding: 97 97 201
Width: 502
GlyphClass: 2
Flags: W
AnchorPoint: "Anchor-6" 218 520 basechar 0
AnchorPoint: "Anchor-5" 424 0 basechar 0
AnchorPoint: "Anchor-4" 218 0 basechar 0
LayerCount: 2
Fore
SplineSet
398.5 510 m 128,-1,1
 436 490 436 490 447 445.5 c 128,-1,2
 458 401 458 401 447 326 c 2,3,-1
 395 0 l 1,4,-1
 324 0 l 1,5,-1
 336 77 l 1,6,-1
 334 77 l 1,7,8
 301 37 301 37 250 13.5 c 128,-1,9
 199 -10 199 -10 143 -10 c 0,10,11
 68 -10 68 -10 31 31.5 c 128,-1,12
 -6 73 -6 73 5 144 c 0,13,14
 19 235 19 235 103 284.5 c 128,-1,15
 187 334 187 334 328 334 c 2,16,-1
 374 334 l 1,17,18
 381 384 381 384 374 411.5 c 128,-1,19
 367 439 367 439 344.5 451 c 128,-1,20
 322 463 322 463 277 463 c 0,21,22
 180 463 180 463 87 419 c 1,23,-1
 76 481 l 1,24,25
 178 530 178 530 292 530 c 0,26,0
 361 530 361 530 398.5 510 c 128,-1,1
252.5 75.5 m 128,-1,28
 292 96 292 96 319.5 130.5 c 128,-1,29
 347 165 347 165 353 205 c 2,30,-1
 363 270 l 1,31,-1
 318 270 l 2,32,33
 213 270 213 270 151.5 239 c 128,-1,34
 90 208 90 208 80 150 c 0,35,36
 73 107 73 107 98 81 c 128,-1,37
 123 55 123 55 171 55 c 0,38,27
 213 55 213 55 252.5 75.5 c 128,-1,28
EndSplineSet
Substitution2: "Single Substitution lookup 21 subtable" ordfeminine
Substitution2: "'aalt' Access All Alternates in Latin lookup 0 subtable" ordfeminine
EndChar

StartChar: uni1EB3
Encoding: 7859 7859 207
Width: 501
GlyphClass: 2
Flags: W
AnchorPoint: "Anchor-6" 220 904 basechar 0
AnchorPoint: "Anchor-5" 423 0 basechar 0
AnchorPoint: "Anchor-4" 218 0 basechar 0
LayerCount: 2
Fore
SplineSet
369.5 665.5 m 128,-1,1
 398 686 398 686 412 724 c 1,2,-1
 363 724 l 1,3,4
 371 739 371 739 378.5 761 c 128,-1,5
 386 783 386 783 389 798 c 0,6,7
 393 823 393 823 378 831.5 c 128,-1,8
 363 840 363 840 319 840 c 0,9,10
 260 840 260 840 200 823 c 1,11,-1
 203 887 l 1,12,13
 270 904 270 904 345 904 c 0,14,15
 399 904 399 904 428 897 c 128,-1,16
 457 890 457 890 467 873 c 128,-1,17
 477 856 477 856 472 825 c 0,18,19
 469 805 469 805 461 780 c 128,-1,20
 453 755 453 755 443 734 c 1,21,-1
 495 734 l 1,22,23
 479 666 479 666 422.5 623 c 128,-1,24
 366 580 366 580 292 580 c 0,25,26
 217 580 217 580 174.5 623 c 128,-1,27
 132 666 132 666 137 734 c 1,28,-1
 217 734 l 1,29,30
 216 691 216 691 238.5 668 c 128,-1,31
 261 645 261 645 302 645 c 0,32,0
 341 645 341 645 369.5 665.5 c 128,-1,1
397.5 510 m 128,-1,34
 435 490 435 490 446 445.5 c 128,-1,35
 457 401 457 401 445 326 c 2,36,-1
 394 0 l 1,37,-1
 322 0 l 1,38,-1
 335 77 l 1,39,-1
 333 77 l 1,40,41
 300 37 300 37 249 13.5 c 128,-1,42
 198 -10 198 -10 142 -10 c 0,43,44
 67 -10 67 -10 30.5 31.5 c 128,-1,45
 -6 73 -6 73 5 144 c 0,46,47
 19 235 19 235 102.5 284.5 c 128,-1,48
 186 334 186 334 327 334 c 2,49,-1
 372 334 l 1,50,51
 379 384 379 384 372.5 411.5 c 128,-1,52
 366 439 366 439 343.5 451 c 128,-1,53
 321 463 321 463 277 463 c 0,54,55
 181 463 181 463 87 419 c 1,56,-1
 76 481 l 1,57,58
 178 530 178 530 292 530 c 0,59,33
 360 530 360 530 397.5 510 c 128,-1,34
251.5 75.5 m 128,-1,61
 291 96 291 96 318.5 130.5 c 128,-1,62
 346 165 346 165 352 205 c 2,63,-1
 362 270 l 1,64,-1
 317 270 l 2,65,66
 212 270 212 270 151 239 c 128,-1,67
 90 208 90 208 80 150 c 0,68,69
 73 107 73 107 98 81 c 128,-1,70
 123 55 123 55 170 55 c 0,71,60
 212 55 212 55 251.5 75.5 c 128,-1,61
EndSplineSet
EndChar

StartChar: aogonek
Encoding: 261 261 222
Width: 505
GlyphClass: 2
Flags: W
AnchorPoint: "Anchor-6" 218 520 basechar 0
AnchorPoint: "Anchor-5" 424 0 basechar 0
AnchorPoint: "Anchor-4" 218 0 basechar 0
LayerCount: 2
Fore
SplineSet
448 -197 m 1,0,1
 399 -218 399 -218 339 -218 c 0,2,3
 268 -218 268 -218 237 -191 c 128,-1,4
 206 -164 206 -164 213 -120 c 0,5,6
 224 -48 224 -48 325 17 c 1,7,-1
 335 77 l 1,8,-1
 333 77 l 1,9,10
 300 37 300 37 249 13.5 c 128,-1,11
 198 -10 198 -10 142 -10 c 0,12,13
 67 -10 67 -10 30.5 31.5 c 128,-1,14
 -6 73 -6 73 5 144 c 0,15,16
 19 235 19 235 103 284.5 c 128,-1,17
 187 334 187 334 327 334 c 2,18,-1
 373 334 l 1,19,20
 380 384 380 384 373.5 411.5 c 128,-1,21
 367 439 367 439 344 451 c 128,-1,22
 321 463 321 463 277 463 c 0,23,24
 180 463 180 463 87 419 c 1,25,-1
 76 481 l 1,26,27
 178 530 178 530 292 530 c 0,28,29
 360 530 360 530 397.5 510 c 128,-1,30
 435 490 435 490 446.5 445.5 c 128,-1,31
 458 401 458 401 446 326 c 2,32,-1
 394 0 l 1,33,34
 345 -27 345 -27 317.5 -54.5 c 128,-1,35
 290 -82 290 -82 286 -107 c 0,36,37
 282 -131 282 -131 301 -142 c 128,-1,38
 320 -153 320 -153 355 -153 c 0,39,40
 402 -153 402 -153 444 -134 c 1,41,-1
 448 -197 l 1,0,1
252 75.5 m 128,-1,43
 292 96 292 96 319 130.5 c 128,-1,44
 346 165 346 165 352 205 c 2,45,-1
 363 270 l 1,46,-1
 317 270 l 2,47,48
 212 270 212 270 151 239 c 128,-1,49
 90 208 90 208 80 150 c 0,50,51
 73 107 73 107 98 81 c 128,-1,52
 123 55 123 55 170 55 c 0,53,42
 212 55 212 55 252 75.5 c 128,-1,43
EndSplineSet
EndChar

StartChar: aring
Encoding: 229 229 223
Width: 501
GlyphClass: 2
Flags: W
AnchorPoint: "Anchor-6" 217 723 basechar 0
AnchorPoint: "Anchor-5" 423 0 basechar 0
AnchorPoint: "Anchor-4" 217 0 basechar 0
LayerCount: 2
Fore
SplineSet
435 472 m 128,-1,1
 461 425 461 425 446 326 c 2,2,-1
 394 0 l 1,3,-1
 322 0 l 1,4,-1
 335 77 l 1,5,-1
 333 77 l 1,6,7
 300 37 300 37 249 13.5 c 128,-1,8
 198 -10 198 -10 142 -10 c 0,9,10
 67 -10 67 -10 30.5 31.5 c 128,-1,11
 -6 73 -6 73 5 144 c 0,12,13
 19 235 19 235 102.5 284.5 c 128,-1,14
 186 334 186 334 327 334 c 2,15,-1
 373 334 l 1,16,17
 380 384 380 384 373 411.5 c 128,-1,18
 366 439 366 439 343.5 451 c 128,-1,19
 321 463 321 463 277 463 c 0,20,21
 181 463 181 463 87 419 c 1,22,-1
 76 481 l 1,23,24
 153 518 153 518 237 527 c 1,25,26
 201 542 201 542 182.5 578.5 c 128,-1,27
 164 615 164 615 172 660 c 0,28,29
 178 698 178 698 201 731 c 128,-1,30
 224 764 224 764 257.5 783 c 128,-1,31
 291 802 291 802 328 802 c 0,32,33
 364 802 364 802 392 783 c 128,-1,34
 420 764 420 764 432.5 731 c 128,-1,35
 445 698 445 698 439 660 c 0,36,37
 432 616 432 616 403.5 580 c 128,-1,38
 375 544 375 544 334 528 c 1,39,0
 409 519 409 519 435 472 c 128,-1,1
242 602 m 128,-1,41
 261 578 261 578 293 578 c 256,42,43
 325 578 325 578 351 602 c 128,-1,44
 377 626 377 626 383 660 c 256,45,46
 388 694 388 694 369.5 718 c 128,-1,47
 351 742 351 742 319 742 c 256,48,49
 287 742 287 742 260 718 c 128,-1,50
 233 694 233 694 228 660 c 256,51,40
 223 626 223 626 242 602 c 128,-1,41
251.5 75.5 m 128,-1,53
 291 96 291 96 318.5 130.5 c 128,-1,54
 346 165 346 165 352 205 c 2,55,-1
 362 270 l 1,56,-1
 317 270 l 2,57,58
 212 270 212 270 151 239 c 128,-1,59
 90 208 90 208 80 150 c 0,60,61
 73 107 73 107 98 81 c 128,-1,62
 123 55 123 55 170 55 c 0,63,52
 212 55 212 55 251.5 75.5 c 128,-1,53
EndSplineSet
EndChar

StartChar: aringacute
Encoding: 507 507 224
Width: 501
GlyphClass: 2
Flags: W
AnchorPoint: "Anchor-6" 217 723 basechar 0
AnchorPoint: "Anchor-5" 423 0 basechar 0
AnchorPoint: "Anchor-4" 217 0 basechar 0
LayerCount: 2
Fore
SplineSet
435 472 m 128,-1,1
 461 425 461 425 446 326 c 2,2,-1
 394 0 l 1,3,-1
 322 0 l 1,4,-1
 335 77 l 1,5,-1
 333 77 l 1,6,7
 300 37 300 37 249 13.5 c 128,-1,8
 198 -10 198 -10 142 -10 c 0,9,10
 67 -10 67 -10 30.5 31.5 c 128,-1,11
 -6 73 -6 73 5 144 c 0,12,13
 19 235 19 235 102.5 284.5 c 128,-1,14
 186 334 186 334 327 334 c 2,15,-1
 373 334 l 1,16,17
 380 384 380 384 373 411.5 c 128,-1,18
 366 439 366 439 343.5 451 c 128,-1,19
 321 463 321 463 277 463 c 0,20,21
 181 463 181 463 87 419 c 1,22,-1
 76 481 l 1,23,24
 153 518 153 518 237 527 c 1,25,26
 201 542 201 542 182.5 578.5 c 128,-1,27
 164 615 164 615 172 660 c 0,28,29
 177 694 177 694 196 723.5 c 128,-1,30
 215 753 215 753 242 773 c 1,31,-1
 367 973 l 1,32,-1
 462 973 l 1,33,-1
 341 801 l 1,34,35
 391 796 391 796 419.5 755.5 c 128,-1,36
 448 715 448 715 439 660 c 0,37,38
 432 616 432 616 403.5 580 c 128,-1,39
 375 544 375 544 334 528 c 1,40,0
 409 519 409 519 435 472 c 128,-1,1
242 602 m 128,-1,42
 261 578 261 578 293 578 c 256,43,44
 325 578 325 578 351 602 c 128,-1,45
 377 626 377 626 383 660 c 256,46,47
 388 694 388 694 369.5 718 c 128,-1,48
 351 742 351 742 319 742 c 256,49,50
 287 742 287 742 260 718 c 128,-1,51
 233 694 233 694 228 660 c 256,52,41
 223 626 223 626 242 602 c 128,-1,42
251.5 75.5 m 128,-1,54
 291 96 291 96 318.5 130.5 c 128,-1,55
 346 165 346 165 352 205 c 2,56,-1
 362 270 l 1,57,-1
 317 270 l 2,58,59
 212 270 212 270 151 239 c 128,-1,60
 90 208 90 208 80 150 c 0,61,62
 73 107 73 107 98 81 c 128,-1,63
 123 55 123 55 170 55 c 0,64,53
 212 55 212 55 251.5 75.5 c 128,-1,54
EndSplineSet
EndChar

StartChar: ae
Encoding: 230 230 226
Width: 844
GlyphClass: 2
Flags: W
AnchorPoint: "Anchor-6" 405 520 basechar 0
AnchorPoint: "Anchor-4" 405 0 basechar 0
LayerCount: 2
Fore
SplineSet
801 229 m 1,1,-1
 429 229 l 1,2,3
 419 144 419 144 456.5 100.5 c 128,-1,4
 494 57 494 57 576 57 c 0,5,6
 616 57 616 57 658 67 c 128,-1,7
 700 77 700 77 734 94 c 1,8,-1
 743 33 l 1,9,10
 703 13 703 13 655.5 1.5 c 128,-1,11
 608 -10 608 -10 561 -10 c 0,12,13
 490 -10 490 -10 442.5 16.5 c 128,-1,14
 395 43 395 43 373 94 c 1,15,16
 336 44 336 44 280.5 17 c 128,-1,17
 225 -10 225 -10 157 -10 c 0,18,19
 76 -10 76 -10 35.5 31 c 128,-1,20
 -5 72 -5 72 6 143 c 0,21,22
 21 235 21 235 104.5 284.5 c 128,-1,23
 188 334 188 334 328 334 c 2,24,-1
 374 334 l 1,25,26
 381 384 381 384 374.5 412 c 128,-1,27
 368 440 368 440 344.5 451.5 c 128,-1,28
 321 463 321 463 276 463 c 0,29,30
 180 463 180 463 87 419 c 1,31,-1
 76 481 l 1,32,33
 178 530 178 530 292 530 c 0,34,35
 357 530 357 530 394 511 c 128,-1,36
 431 492 431 492 444 450 c 1,37,38
 516 530 516 530 630 530 c 0,39,40
 736 530 736 530 782 460.5 c 128,-1,41
 828 391 828 391 807 260 c 0,42,0
 803 238 803 238 801 229 c 1,1,-1
440 293 m 1,44,-1
 742 293 l 1,45,46
 761 465 761 465 620 465 c 0,47,43
 477 465 477 465 440 293 c 1,44,-1
363 270 m 1,48,-1
 318 270 l 2,49,50
 212 270 212 270 150.5 239 c 128,-1,51
 89 208 89 208 80 149 c 0,52,53
 73 106 73 106 98 80.5 c 128,-1,54
 123 55 123 55 171 55 c 0,55,56
 213 55 213 55 252.5 75.5 c 128,-1,57
 292 96 292 96 319.5 130.5 c 128,-1,58
 347 165 347 165 353 205 c 2,59,-1
 363 270 l 1,48,-1
EndSplineSet
EndChar

StartChar: b
Encoding: 98 98 228
Width: 545
Flags: W
LayerCount: 2
Fore
SplineSet
484.5 459.5 m 128,-1,1
 524 389 524 389 504 260 c 256,2,3
 484 131 484 131 421.5 60.5 c 128,-1,4
 359 -10 359 -10 267 -10 c 0,5,6
 213 -10 213 -10 171.5 13.5 c 128,-1,7
 130 37 130 37 110 80 c 1,8,-1
 108 80 l 1,9,-1
 96 0 l 1,10,-1
 24 0 l 1,11,-1
 143 750 l 1,12,-1
 217 750 l 1,13,-1
 168 440 l 1,14,-1
 170 440 l 1,15,16
 202 483 202 483 250 506.5 c 128,-1,17
 298 530 298 530 352 530 c 0,18,0
 445 530 445 530 484.5 459.5 c 128,-1,1
367.5 111 m 128,-1,20
 413 165 413 165 428 260 c 256,21,22
 443 355 443 355 414.5 409 c 128,-1,23
 386 463 386 463 322 463 c 0,24,25
 280 463 280 463 241.5 439.5 c 128,-1,26
 203 416 203 416 177 375 c 128,-1,27
 151 334 151 334 143 283 c 2,28,-1
 136 237 l 2,29,30
 128 186 128 186 141 145 c 128,-1,31
 154 104 154 104 185 80.5 c 128,-1,32
 216 57 216 57 258 57 c 0,33,19
 322 57 322 57 367.5 111 c 128,-1,20
EndSplineSet
EndChar

StartChar: c
Encoding: 99 99 229
Width: 491
GlyphClass: 2
Flags: W
AnchorPoint: "Anchor-6" 232 520 basechar 0
AnchorPoint: "Anchor-4" 232 0 basechar 0
LayerCount: 2
Fore
SplineSet
65.5 61.5 m 128,-1,1
 11 133 11 133 31 260 c 256,2,3
 51 387 51 387 128 458.5 c 128,-1,4
 205 530 205 530 324 530 c 0,5,6
 405 530 405 530 466 493 c 1,7,-1
 434 432 l 1,8,9
 379 463 379 463 317 463 c 0,10,11
 232 463 232 463 176 410 c 128,-1,12
 120 357 120 357 105 260 c 256,13,14
 90 163 90 163 128.5 110 c 128,-1,15
 167 57 167 57 252 57 c 0,16,17
 315 57 315 57 380 88 c 1,18,-1
 392 27 l 1,19,20
 319 -10 319 -10 238 -10 c 0,21,0
 120 -10 120 -10 65.5 61.5 c 128,-1,1
EndSplineSet
EndChar

StartChar: ccedilla
Encoding: 231 231 232
Width: 491
GlyphClass: 2
Flags: W
AnchorPoint: "Anchor-6" 232 520 basechar 0
AnchorPoint: "Anchor-4" 232 0 basechar 0
LayerCount: 2
Fore
SplineSet
391 27 m 1,0,1
 340 1 340 1 284 -7 c 1,2,3
 335 -61 335 -61 325 -120 c 0,4,5
 318 -164 318 -164 278.5 -191 c 128,-1,6
 239 -218 239 -218 168 -218 c 0,7,8
 109 -218 109 -218 67 -197 c 1,9,-1
 90 -135 l 1,10,11
 128 -154 128 -154 172 -154 c 0,12,13
 207 -154 207 -154 230.5 -142.5 c 128,-1,14
 254 -131 254 -131 258 -107 c 0,15,16
 262 -84 262 -84 245 -58.5 c 128,-1,17
 228 -33 228 -33 192 -7 c 1,18,19
 98 7 98 7 55.5 76.5 c 128,-1,20
 13 146 13 146 31 260 c 0,21,22
 51 387 51 387 128 458.5 c 128,-1,23
 205 530 205 530 323 530 c 0,24,25
 403 530 403 530 465 493 c 1,26,-1
 434 432 l 1,27,28
 379 463 379 463 316 463 c 0,29,30
 231 463 231 463 175.5 410 c 128,-1,31
 120 357 120 357 105 260 c 256,32,33
 90 163 90 163 128.5 110 c 128,-1,34
 167 57 167 57 252 57 c 0,35,36
 315 57 315 57 379 88 c 1,37,-1
 391 27 l 1,0,1
EndSplineSet
EndChar

StartChar: d
Encoding: 100 100 235
Width: 545
Flags: W
LayerCount: 2
Fore
SplineSet
550 750 m 1,0,-1
 431 0 l 1,1,-1
 360 0 l 1,2,-1
 373 80 l 1,3,-1
 371 80 l 1,4,5
 338 37 338 37 289 13.5 c 128,-1,6
 240 -10 240 -10 186 -10 c 0,7,8
 93 -10 93 -10 53.5 60.5 c 128,-1,9
 14 131 14 131 34 260 c 256,10,11
 54 389 54 389 116.5 459.5 c 128,-1,12
 179 530 179 530 271 530 c 0,13,14
 325 530 325 530 365.5 506.5 c 128,-1,15
 406 483 406 483 425 440 c 1,16,-1
 427 440 l 1,17,-1
 476 750 l 1,18,-1
 550 750 l 1,0,-1
296.5 80.5 m 128,-1,20
 335 104 335 104 361 145 c 128,-1,21
 387 186 387 186 395 237 c 2,22,-1
 402 283 l 2,23,24
 410 334 410 334 397 375 c 128,-1,25
 384 416 384 416 353 439.5 c 128,-1,26
 322 463 322 463 280 463 c 0,27,28
 215 463 215 463 170 409 c 128,-1,29
 125 355 125 355 110 260 c 256,30,31
 95 165 95 165 123.5 111 c 128,-1,32
 152 57 152 57 216 57 c 0,33,19
 258 57 258 57 296.5 80.5 c 128,-1,20
EndSplineSet
EndChar

StartChar: eth
Encoding: 240 240 236
Width: 548
Flags: W
LayerCount: 2
Fore
SplineSet
442 619 m 1,0,1
 485 544 485 544 500.5 449 c 128,-1,2
 516 354 516 354 500 254 c 0,3,4
 480 129 480 129 407.5 59.5 c 128,-1,5
 335 -10 335 -10 224 -10 c 256,6,7
 113 -10 113 -10 61 56.5 c 128,-1,8
 9 123 9 123 28 241 c 0,9,10
 46 353 46 353 116.5 416.5 c 128,-1,11
 187 480 187 480 291 480 c 0,12,13
 383 480 383 480 427 428 c 1,14,-1
 429 429 l 1,15,16
 414 523 414 523 370 591 c 1,17,-1
 138 500 l 1,18,-1
 123 563 l 1,19,-1
 330 644 l 1,20,21
 269 709 269 709 194 724 c 1,22,-1
 220 790 l 1,23,24
 328 770 328 770 405 674 c 1,25,-1
 568 738 l 1,26,-1
 583 675 l 1,27,-1
 442 619 l 1,0,1
360 105.5 m 128,-1,29
 410 154 410 154 424 241 c 0,30,31
 437 324 437 324 403 368.5 c 128,-1,32
 369 413 369 413 291 413 c 256,33,34
 213 413 213 413 164 368.5 c 128,-1,35
 115 324 115 324 102 241 c 0,36,37
 88 154 88 154 123 105.5 c 128,-1,38
 158 57 158 57 234 57 c 256,39,28
 310 57 310 57 360 105.5 c 128,-1,29
EndSplineSet
EndChar

StartChar: dcroat
Encoding: 273 273 238
Width: 609
Flags: W
LayerCount: 2
Fore
SplineSet
633 592 m 1,0,-1
 525 592 l 1,1,-1
 431 0 l 1,2,-1
 360 0 l 1,3,-1
 373 80 l 1,4,-1
 371 80 l 1,5,6
 338 37 338 37 289 13.5 c 128,-1,7
 240 -10 240 -10 186 -10 c 0,8,9
 93 -10 93 -10 53.5 60.5 c 128,-1,10
 14 131 14 131 34 260 c 256,11,12
 54 389 54 389 116.5 459.5 c 128,-1,13
 179 530 179 530 271 530 c 0,14,15
 325 530 325 530 365.5 506.5 c 128,-1,16
 406 483 406 483 425 440 c 1,17,-1
 427 440 l 1,18,-1
 451 592 l 1,19,-1
 234 592 l 1,20,-1
 245 658 l 1,21,-1
 461 658 l 1,22,-1
 476 750 l 1,23,-1
 550 750 l 1,24,-1
 536 658 l 1,25,-1
 643 658 l 1,26,-1
 633 592 l 1,0,-1
296.5 80.5 m 128,-1,28
 335 104 335 104 361 145 c 128,-1,29
 387 186 387 186 395 237 c 2,30,-1
 402 283 l 2,31,32
 410 334 410 334 397 375 c 128,-1,33
 384 416 384 416 353 439.5 c 128,-1,34
 322 463 322 463 280 463 c 0,35,36
 215 463 215 463 170 409 c 128,-1,37
 125 355 125 355 110 260 c 256,38,39
 95 165 95 165 123.5 111 c 128,-1,40
 152 57 152 57 216 57 c 0,41,27
 258 57 258 57 296.5 80.5 c 128,-1,28
EndSplineSet
EndChar

StartChar: e
Encoding: 101 101 240
Width: 513
GlyphClass: 2
Flags: W
AnchorPoint: "Anchor-6" 233 520 basechar 0
AnchorPoint: "Anchor-5" 441 30 basechar 0
AnchorPoint: "Anchor-4" 233 0 basechar 0
LayerCount: 2
Fore
SplineSet
471 229 m 1,0,-1
 99 229 l 1,1,2
 80 57 80 57 255 57 c 0,3,4
 332 57 332 57 405 89 c 1,5,-1
 414 26 l 1,6,7
 332 -10 332 -10 241 -10 c 0,8,9
 120 -10 120 -10 65 60 c 128,-1,10
 10 130 10 130 31 260 c 0,11,12
 51 388 51 388 122 459 c 128,-1,13
 193 530 193 530 300 530 c 0,14,15
 406 530 406 530 451.5 460 c 128,-1,16
 497 390 497 390 477 260 c 1,17,-1
 471 229 l 1,0,-1
110 293 m 1,19,-1
 411 293 l 1,20,21
 430 465 430 465 289 465 c 0,22,18
 147 465 147 465 110 293 c 1,19,-1
EndSplineSet
EndChar

StartChar: eogonek
Encoding: 281 281 258
Width: 514
GlyphClass: 2
Flags: W
AnchorPoint: "Anchor-6" 233 520 basechar 0
AnchorPoint: "Anchor-5" 440 30 basechar 0
AnchorPoint: "Anchor-4" 233 0 basechar 0
LayerCount: 2
Fore
SplineSet
467 -167 m 1,0,1
 418 -188 418 -188 359 -188 c 0,2,3
 288 -188 288 -188 257 -161 c 128,-1,4
 226 -134 226 -134 233 -90 c 0,5,6
 240 -47 240 -47 277 -8 c 1,7,8
 252 -10 252 -10 241 -10 c 0,9,10
 120 -10 120 -10 65 60 c 128,-1,11
 10 130 10 130 31 260 c 0,12,13
 51 388 51 388 122 459 c 128,-1,14
 193 530 193 530 299 530 c 128,-1,15
 405 530 405 530 451 460 c 128,-1,16
 497 390 497 390 476 260 c 1,17,-1
 470 229 l 1,18,-1
 99 229 l 1,19,20
 80 57 80 57 255 57 c 0,21,22
 332 57 332 57 405 89 c 1,23,-1
 413 30 l 1,24,-1
 414 30 l 1,25,-1
 413.5 29.5 l 0,26,-1
 413 29 l 1,27,-1
 413 26 l 1,28,29
 408 23 408 23 402.5 21.5 c 128,-1,30
 397 20 397 20 393 18 c 0,31,32
 354 -6 354 -6 331.5 -30.5 c 128,-1,33
 309 -55 309 -55 306 -77 c 0,34,35
 302 -101 302 -101 321 -112 c 128,-1,36
 340 -123 340 -123 375 -123 c 0,37,38
 422 -123 422 -123 464 -104 c 1,39,-1
 467 -167 l 1,0,1
110 293 m 1,40,-1
 411 293 l 1,41,42
 430 465 430 465 289 465 c 0,43,44
 147 465 147 465 110 293 c 1,40,-1
EndSplineSet
EndChar

StartChar: uni0259
Encoding: 601 601 260
Width: 514
GlyphClass: 2
Flags: W
AnchorPoint: "Anchor-6" 226 520 basechar 0
AnchorPoint: "Anchor-5" 18 490 basechar 0
AnchorPoint: "Anchor-4" 226 0 basechar 0
LayerCount: 2
Fore
SplineSet
441 460 m 128,-1,1
 495 390 495 390 475 260 c 0,2,3
 455 132 455 132 384.5 61 c 128,-1,4
 314 -10 314 -10 206 -10 c 0,5,6
 100 -10 100 -10 54 60 c 128,-1,7
 8 130 8 130 29 260 c 0,8,9
 31 273 31 273 36 291 c 1,10,-1
 407 291 l 1,11,12
 425 463 425 463 251 463 c 0,13,14
 173 463 173 463 100 431 c 1,15,-1
 92 494 l 1,16,17
 131 511 131 511 176 520.5 c 128,-1,18
 221 530 221 530 266 530 c 0,19,0
 387 530 387 530 441 460 c 128,-1,1
396 227 m 1,21,-1
 94 227 l 1,22,23
 75 55 75 55 216 55 c 0,24,20
 359 55 359 55 396 227 c 1,21,-1
EndSplineSet
EndChar

StartChar: f
Encoding: 102 102 261
Width: 418
Flags: W
LayerCount: 2
Fore
SplineSet
48 453 m 1,0,-1
 58 520 l 1,1,-1
 194 520 l 1,2,-1
 205 587 l 2,3,4
 232 760 232 760 378 760 c 0,5,6
 425 760 425 760 470 745 c 1,7,-1
 447 680 l 1,8,9
 415 693 415 693 378 693 c 0,10,11
 333 693 333 693 311 669 c 128,-1,12
 289 645 289 645 280 587 c 2,13,-1
 269 520 l 1,14,-1
 429 520 l 1,15,-1
 418 453 l 1,16,-1
 259 453 l 1,17,-1
 187 0 l 1,18,-1
 112 0 l 1,19,-1
 184 453 l 1,20,-1
 48 453 l 1,0,-1
EndSplineSet
EndChar

StartChar: g
Encoding: 103 103 262
Width: 545
GlyphClass: 2
Flags: W
AnchorPoint: "Anchor-6" 244 520 basechar 0
AnchorPoint: "Anchor-4" 244 -140 basechar 0
LayerCount: 2
Fore
SplineSet
513 520 m 1,0,-1
 437 40 l 2,1,2
 394 -230 394 -230 156 -230 c 0,3,4
 62 -230 62 -230 -23 -189 c 1,5,-1
 6 -127 l 1,6,7
 78 -163 78 -163 157 -163 c 0,8,9
 246 -163 246 -163 296 -113.5 c 128,-1,10
 346 -64 346 -64 363 40 c 2,11,-1
 369 80 l 1,12,-1
 367 80 l 1,13,14
 336 37 336 37 288 13.5 c 128,-1,15
 240 -10 240 -10 186 -10 c 0,16,17
 93 -10 93 -10 53.5 60.5 c 128,-1,18
 14 131 14 131 34 260 c 256,19,20
 54 389 54 389 116.5 459.5 c 128,-1,21
 179 530 179 530 271 530 c 0,22,23
 325 530 325 530 366 506.5 c 128,-1,24
 407 483 407 483 427 440 c 1,25,-1
 429 440 l 1,26,-1
 442 520 l 1,27,-1
 513 520 l 1,0,-1
296 80.5 m 128,-1,29
 334 104 334 104 360 145 c 128,-1,30
 386 186 386 186 394 237 c 2,31,-1
 401 283 l 2,32,33
 409 334 409 334 396 375 c 128,-1,34
 383 416 383 416 352.5 439.5 c 128,-1,35
 322 463 322 463 280 463 c 0,36,37
 215 463 215 463 169.5 408.5 c 128,-1,38
 124 354 124 354 109 260 c 256,39,40
 94 166 94 166 123 111.5 c 128,-1,41
 152 57 152 57 216 57 c 0,42,28
 258 57 258 57 296 80.5 c 128,-1,29
EndSplineSet
EndChar

StartChar: h
Encoding: 104 104 268
Width: 549
GlyphClass: 2
Flags: W
AnchorPoint: "Anchor-6" 241 750 basechar 0
AnchorPoint: "Anchor-4" 241 0 basechar 0
LayerCount: 2
Fore
SplineSet
492 320 m 2,1,-1
 442 0 l 1,2,-1
 366 0 l 1,3,-1
 415 306 l 2,4,5
 428 385 428 385 408.5 424 c 128,-1,6
 389 463 389 463 339 463 c 0,7,8
 295 463 295 463 252.5 436.5 c 128,-1,9
 210 410 210 410 180 366.5 c 128,-1,10
 150 323 150 323 142 273 c 2,11,-1
 98 0 l 1,12,-1
 24 0 l 1,13,-1
 143 750 l 1,14,-1
 217 750 l 1,15,-1
 167 433 l 1,16,-1
 169 433 l 1,17,18
 205 478 205 478 258 504 c 128,-1,19
 311 530 311 530 368 530 c 0,20,0
 525 530 525 530 492 320 c 2,1,-1
EndSplineSet
EndChar

StartChar: hbar
Encoding: 295 295 269
Width: 612
GlyphClass: 2
Flags: W
AnchorPoint: "Anchor-6" 307 750 basechar 0
AnchorPoint: "Anchor-4" 307 0 basechar 0
LayerCount: 2
Fore
SplineSet
542 478 m 128,-1,1
 573 426 573 426 556 320 c 2,2,-1
 505 0 l 1,3,-1
 431 0 l 1,4,-1
 479 306 l 2,5,6
 492 385 492 385 473 424 c 128,-1,7
 454 463 454 463 404 463 c 0,8,9
 360 463 360 463 317 436.5 c 128,-1,10
 274 410 274 410 244 366.5 c 128,-1,11
 214 323 214 323 206 273 c 2,12,-1
 163 0 l 1,13,-1
 89 0 l 1,14,-1
 183 592 l 1,15,-1
 75 592 l 1,16,-1
 86 658 l 1,17,-1
 193 658 l 1,18,-1
 208 750 l 1,19,-1
 282 750 l 1,20,-1
 267 658 l 1,21,-1
 484 658 l 1,22,-1
 473 592 l 1,23,-1
 257 592 l 1,24,-1
 232 433 l 1,25,-1
 233 433 l 1,26,27
 268 478 268 478 321.5 504 c 128,-1,28
 375 530 375 530 433 530 c 0,29,0
 511 530 511 530 542 478 c 128,-1,1
EndSplineSet
EndChar

StartChar: i
Encoding: 105 105 271
Width: 240
GlyphClass: 2
Flags: W
AnchorPoint: "Anchor-6" 87 520 basechar 0
AnchorPoint: "Anchor-5" 127 0 basechar 0
AnchorPoint: "Anchor-4" 87 0 basechar 0
LayerCount: 2
Fore
SplineSet
148 737 m 1,0,-1
 236 737 l 1,1,-1
 221 643 l 1,2,-1
 133 643 l 1,3,-1
 148 737 l 1,0,-1
120 520 m 1,4,-1
 196 520 l 1,5,-1
 113 0 l 1,6,-1
 38 0 l 1,7,-1
 120 520 l 1,4,-1
EndSplineSet
Substitution2: "Single Substitution lookup 19 subtable" dotlessi
Substitution2: "'locl' Localized Forms in Latin lookup 3 subtable" i.loclTRK
Substitution2: "'aalt' Access All Alternates in Latin lookup 0 subtable" i.loclTRK
EndChar

StartChar: dotlessi
Encoding: 305 305 272
Width: 228
GlyphClass: 2
Flags: W
AnchorPoint: "Anchor-6" 79 520 basechar 0
AnchorPoint: "Anchor-5" 119 0 basechar 0
AnchorPoint: "Anchor-4" 79 0 basechar 0
LayerCount: 2
Fore
SplineSet
114 520 m 1,0,-1
 189 520 l 1,1,-1
 107 0 l 1,2,-1
 31 0 l 1,3,-1
 114 520 l 1,0,-1
EndSplineSet
EndChar

StartChar: iogonek
Encoding: 303 303 284
Width: 234
GlyphClass: 2
Flags: W
AnchorPoint: "Anchor-6" 79 717 basechar 0
AnchorPoint: "Anchor-5" 119 0 basechar 0
AnchorPoint: "Anchor-4" 79 0 basechar 0
LayerCount: 2
Fore
SplineSet
234 717 m 1,0,-1
 218 613 l 1,1,-1
 120 613 l 1,2,-1
 137 717 l 1,3,-1
 234 717 l 1,0,-1
163 -197 m 1,4,5
 114 -218 114 -218 55 -218 c 0,6,7
 -16 -218 -16 -218 -47 -191 c 128,-1,8
 -78 -164 -78 -164 -71 -120 c 0,9,10
 -60 -49 -60 -49 36 14 c 1,11,-1
 117 520 l 1,12,-1
 192 520 l 1,13,-1
 109 0 l 1,14,15
 61 -27 61 -27 33 -54.5 c 128,-1,16
 5 -82 5 -82 1 -107 c 0,17,18
 -3 -131 -3 -131 16.5 -142 c 128,-1,19
 36 -153 36 -153 70 -153 c 0,20,21
 117 -153 117 -153 159 -134 c 1,22,-1
 163 -197 l 1,4,5
EndSplineSet
EndChar

StartChar: j
Encoding: 106 106 286
Width: 299
GlyphClass: 2
Flags: W
AnchorPoint: "Anchor-6" 111 520 basechar 0
AnchorPoint: "Anchor-4" 111 -140 basechar 0
LayerCount: 2
Fore
SplineSet
207 737 m 1,0,-1
 295 737 l 1,1,-1
 280 643 l 1,2,-1
 192 643 l 1,3,-1
 207 737 l 1,0,-1
0 -149.5 m 128,-1,5
 44 -136 44 -136 65 -99.5 c 128,-1,6
 86 -63 86 -63 98 13 c 2,7,-1
 179 520 l 1,8,-1
 254 520 l 1,9,-1
 174 13 l 2,10,11
 159 -84 159 -84 126.5 -135.5 c 128,-1,12
 94 -187 94 -187 32 -208.5 c 128,-1,13
 -30 -230 -30 -230 -140 -230 c 1,14,-1
 -133 -163 l 1,15,4
 -44 -163 -44 -163 0 -149.5 c 128,-1,5
EndSplineSet
Substitution2: "Single Substitution lookup 19 subtable" uni0237
EndChar

StartChar: uni0237
Encoding: 567 567 287
Width: 293
GlyphClass: 2
Flags: W
AnchorPoint: "Anchor-6" 111 520 basechar 0
AnchorPoint: "Anchor-4" 111 -140 basechar 0
LayerCount: 2
Fore
SplineSet
0 -149.5 m 128,-1,1
 44 -136 44 -136 65 -99.5 c 128,-1,2
 86 -63 86 -63 98 13 c 2,3,-1
 179 520 l 1,4,-1
 254 520 l 1,5,-1
 174 13 l 2,6,7
 159 -84 159 -84 126.5 -135.5 c 128,-1,8
 94 -187 94 -187 32 -208.5 c 128,-1,9
 -30 -230 -30 -230 -140 -230 c 1,10,-1
 -133 -163 l 1,11,0
 -44 -163 -44 -163 0 -149.5 c 128,-1,1
EndSplineSet
EndChar

StartChar: k
Encoding: 107 107 289
Width: 521
GlyphClass: 2
Flags: W
AnchorPoint: "Anchor-6" 204 750 basechar 0
AnchorPoint: "Anchor-4" 204 0 basechar 0
LayerCount: 2
Fore
SplineSet
143 750 m 1,0,-1
 217 750 l 1,1,-1
 145 296 l 1,2,-1
 147 296 l 1,3,-1
 420 520 l 1,4,-1
 519 520 l 1,5,-1
 209 270 l 1,6,-1
 448 0 l 1,7,-1
 349 0 l 1,8,-1
 139 244 l 1,9,-1
 137 244 l 1,10,-1
 98 0 l 1,11,-1
 24 0 l 1,12,-1
 143 750 l 1,0,-1
EndSplineSet
EndChar

StartChar: kgreenlandic
Encoding: 312 312 291
Width: 521
GlyphClass: 2
Flags: W
AnchorPoint: "Anchor-6" 204 520 basechar 0
AnchorPoint: "Anchor-4" 204 0 basechar 0
LayerCount: 2
Fore
SplineSet
107 520 m 1,0,-1
 181 520 l 1,1,-1
 145 296 l 1,2,-1
 147 296 l 1,3,-1
 420 520 l 1,4,-1
 519 520 l 1,5,-1
 209 270 l 1,6,-1
 448 0 l 1,7,-1
 349 0 l 1,8,-1
 139 244 l 1,9,-1
 137 244 l 1,10,-1
 98 0 l 1,11,-1
 24 0 l 1,12,-1
 107 520 l 1,0,-1
EndSplineSet
EndChar

StartChar: l
Encoding: 108 108 292
Width: 228
GlyphClass: 2
Flags: W
AnchorPoint: "Anchor-7" 183 750 basechar 0
AnchorPoint: "Anchor-6" 79 750 basechar 0
AnchorPoint: "Anchor-4" 79 0 basechar 0
LayerCount: 2
Fore
SplineSet
150 750 m 1,0,-1
 225 750 l 1,1,-1
 107 0 l 1,2,-1
 31 0 l 1,3,-1
 150 750 l 1,0,-1
EndSplineSet
EndChar

StartChar: lslash
Encoding: 322 322 298
Width: 403
GlyphClass: 2
Flags: W
AnchorPoint: "Anchor-7" 276 750 basechar 0
AnchorPoint: "Anchor-6" 171 750 basechar 0
AnchorPoint: "Anchor-4" 171 0 basechar 0
LayerCount: 2
Fore
SplineSet
414 415 m 1,0,-1
 250 346 l 1,1,-1
 195 0 l 1,2,-1
 120 0 l 1,3,-1
 169 311 l 1,4,-1
 32 253 l 1,5,-1
 16 315 l 1,6,-1
 181 385 l 1,7,-1
 239 750 l 1,8,-1
 314 750 l 1,9,-1
 261 419 l 1,10,-1
 399 477 l 1,11,-1
 414 415 l 1,0,-1
EndSplineSet
EndChar

StartChar: m
Encoding: 109 109 299
Width: 766
Flags: W
LayerCount: 2
Fore
SplineSet
701.5 478.5 m 128,-1,1
 726 427 726 427 709 320 c 2,2,-1
 658 0 l 1,3,-1
 585 0 l 1,4,-1
 633 306 l 2,5,6
 645 383 645 383 631 423 c 128,-1,7
 617 463 617 463 577 463 c 0,8,9
 544 463 544 463 511 438.5 c 128,-1,10
 478 414 478 414 454 373 c 128,-1,11
 430 332 430 332 423 285 c 2,12,-1
 378 0 l 1,13,-1
 305 0 l 1,14,-1
 353 306 l 2,15,16
 365 383 365 383 351 423 c 128,-1,17
 337 463 337 463 296 463 c 0,18,19
 262 463 262 463 229 436.5 c 128,-1,20
 196 410 196 410 172 365 c 128,-1,21
 148 320 148 320 140 266 c 2,22,-1
 97 0 l 1,23,-1
 24 0 l 1,24,-1
 107 520 l 1,25,-1
 176 520 l 1,26,-1
 164 440 l 1,27,-1
 166 440 l 1,28,29
 197 483 197 483 239.5 506.5 c 128,-1,30
 282 530 282 530 328 530 c 0,31,32
 417 530 417 530 433 440 c 1,33,-1
 433 440 l 1,34,35
 466 482 466 482 513.5 506 c 128,-1,36
 561 530 561 530 610 530 c 0,37,0
 677 530 677 530 701.5 478.5 c 128,-1,1
EndSplineSet
EndChar

StartChar: n
Encoding: 110 110 300
Width: 549
GlyphClass: 2
Flags: W
AnchorPoint: "Anchor-6" 250 520 basechar 0
AnchorPoint: "Anchor-4" 250 0 basechar 0
LayerCount: 2
Fore
SplineSet
492 320 m 2,1,-1
 442 0 l 1,2,-1
 366 0 l 1,3,-1
 415 306 l 2,4,5
 440 463 440 463 336 463 c 0,6,7
 292 463 292 463 250.5 437 c 128,-1,8
 209 411 209 411 179.5 367 c 128,-1,9
 150 323 150 323 142 273 c 2,10,-1
 98 0 l 1,11,-1
 24 0 l 1,12,-1
 107 520 l 1,13,-1
 178 520 l 1,14,-1
 164 433 l 1,15,-1
 166 433 l 1,16,17
 202 478 202 478 254.5 504 c 128,-1,18
 307 530 307 530 365 530 c 0,19,0
 525 530 525 530 492 320 c 2,1,-1
EndSplineSet
EndChar

StartChar: eng
Encoding: 331 331 304
Width: 548
GlyphClass: 2
Flags: W
AnchorPoint: "Anchor-6" 250 520 basechar 0
AnchorPoint: "Anchor-4" 250 0 basechar 0
LayerCount: 2
Fore
SplineSet
491 320 m 2,1,-1
 435 -38 l 2,2,3
 420 -132 420 -132 376 -175 c 128,-1,4
 332 -218 332 -218 251 -218 c 0,5,6
 205 -218 205 -218 157 -202 c 1,7,-1
 180 -135 l 1,8,9
 215 -148 215 -148 249 -148 c 0,10,11
 299 -148 299 -148 325.5 -122.5 c 128,-1,12
 352 -97 352 -97 361 -38 c 2,13,-1
 416 307 l 2,14,15
 441 463 441 463 336 463 c 0,16,17
 292 463 292 463 250.5 437 c 128,-1,18
 209 411 209 411 179.5 367 c 128,-1,19
 150 323 150 323 142 273 c 2,20,-1
 98 0 l 1,21,-1
 24 0 l 1,22,-1
 107 520 l 1,23,-1
 178 520 l 1,24,-1
 163 425 l 1,25,-1
 165 425 l 1,26,27
 201 474 201 474 254 502 c 128,-1,28
 307 530 307 530 365 530 c 0,29,0
 524 530 524 530 491 320 c 2,1,-1
EndSplineSet
EndChar

StartChar: o
Encoding: 111 111 307
Width: 534
GlyphClass: 2
Flags: W
AnchorPoint: "Anchor-7" 400 480 basechar 0
AnchorPoint: "Anchor-6" 241 520 basechar 0
AnchorPoint: "Anchor-5" 301 0 basechar 0
AnchorPoint: "Anchor-4" 241 0 basechar 0
LayerCount: 2
Fore
SplineSet
60.5 61 m 128,-1,1
 10 132 10 132 31 260 c 256,2,3
 51 388 51 388 124 459 c 128,-1,4
 197 530 197 530 306 530 c 256,5,6
 416 530 416 530 466 458.5 c 128,-1,7
 516 387 516 387 496 260 c 256,8,9
 476 133 476 133 403.5 61.5 c 128,-1,10
 331 -10 331 -10 221 -10 c 256,11,0
 111 -10 111 -10 60.5 61 c 128,-1,1
357 109.5 m 128,-1,13
 406 162 406 162 421 260 c 256,14,15
 437 358 437 358 404.5 410.5 c 128,-1,16
 372 463 372 463 296 463 c 256,17,18
 220 463 220 463 170.5 410.5 c 128,-1,19
 121 358 121 358 105 260 c 256,20,21
 89 162 89 162 122.5 109.5 c 128,-1,22
 156 57 156 57 232 57 c 256,23,12
 308 57 308 57 357 109.5 c 128,-1,13
EndSplineSet
Substitution2: "Single Substitution lookup 21 subtable" ordmasculine
Substitution2: "'aalt' Access All Alternates in Latin lookup 0 subtable" ordmasculine
EndChar

StartChar: ohorn
Encoding: 417 417 323
Width: 576
GlyphClass: 2
Flags: W
AnchorPoint: "Anchor-7" 614 632 basechar 0
AnchorPoint: "Anchor-6" 241 520 basechar 0
AnchorPoint: "Anchor-5" 301 0 basechar 0
AnchorPoint: "Anchor-4" 241 0 basechar 0
LayerCount: 2
Fore
SplineSet
592.5 426 m 128,-1,1
 559 392 559 392 508 392 c 0,2,3
 499 392 499 392 494 393 c 1,4,5
 508 336 508 336 496 260 c 0,6,7
 476 133 476 133 403.5 61.5 c 128,-1,8
 331 -10 331 -10 221 -10 c 256,9,10
 111 -10 111 -10 60.5 61 c 128,-1,11
 10 132 10 132 31 260 c 256,12,13
 51 388 51 388 124 459 c 128,-1,14
 197 530 197 530 306 530 c 0,15,16
 402 530 402 530 454 474 c 0,17,18
 470 461 470 461 494 461 c 0,19,20
 521 461 521 461 538.5 479 c 128,-1,21
 556 497 556 497 561 531 c 0,22,23
 565 554 565 554 564 583.5 c 128,-1,24
 563 613 563 613 558 632 c 1,25,-1
 636 632 l 1,26,27
 645 575 645 575 636 521 c 0,28,0
 626 460 626 460 592.5 426 c 128,-1,1
357 109.5 m 128,-1,30
 406 162 406 162 421 260 c 256,31,32
 437 358 437 358 404.5 410.5 c 128,-1,33
 372 463 372 463 296 463 c 256,34,35
 220 463 220 463 170.5 410.5 c 128,-1,36
 121 358 121 358 105 260 c 256,37,38
 89 162 89 162 122.5 109.5 c 128,-1,39
 156 57 156 57 232 57 c 256,40,29
 308 57 308 57 357 109.5 c 128,-1,30
EndSplineSet
EndChar

StartChar: uni01EB
Encoding: 491 491 332
Width: 533
GlyphClass: 2
Flags: W
AnchorPoint: "Anchor-7" 399 480 basechar 0
AnchorPoint: "Anchor-6" 240 520 basechar 0
AnchorPoint: "Anchor-5" 300 0 basechar 0
AnchorPoint: "Anchor-4" 240 0 basechar 0
LayerCount: 2
Fore
SplineSet
169 -107 m 0,1,2
 165 -131 165 -131 184 -142 c 128,-1,3
 203 -153 203 -153 238 -153 c 0,4,5
 286 -153 286 -153 328 -134 c 1,6,-1
 331 -197 l 1,7,8
 282 -218 282 -218 223 -218 c 0,9,10
 152 -218 152 -218 120.5 -191 c 128,-1,11
 89 -164 89 -164 96 -120 c 0,12,13
 105 -62 105 -62 175 -6 c 1,14,15
 88 8 88 8 50.5 77.5 c 128,-1,16
 13 147 13 147 31 260 c 0,17,18
 51 388 51 388 123.5 459 c 128,-1,19
 196 530 196 530 306 530 c 256,20,21
 416 530 416 530 465.5 458.5 c 128,-1,22
 515 387 515 387 495 260 c 0,23,24
 477 147 477 147 417.5 77.5 c 128,-1,25
 358 8 358 8 266 -6 c 1,26,0
 176 -61 176 -61 169 -107 c 0,1,2
122 109.5 m 128,-1,28
 155 57 155 57 231 57 c 256,29,30
 307 57 307 57 356 109.5 c 128,-1,31
 405 162 405 162 421 260 c 256,32,33
 437 358 437 358 404 410.5 c 128,-1,34
 371 463 371 463 295 463 c 256,35,36
 219 463 219 463 170 410.5 c 128,-1,37
 121 358 121 358 105 260 c 256,38,27
 89 162 89 162 122 109.5 c 128,-1,28
EndSplineSet
EndChar

StartChar: oslash
Encoding: 248 248 333
Width: 534
GlyphClass: 2
Flags: W
AnchorPoint: "Anchor-7" 400 480 basechar 0
AnchorPoint: "Anchor-6" 241 520 basechar 0
AnchorPoint: "Anchor-5" 301 0 basechar 0
AnchorPoint: "Anchor-4" 241 0 basechar 0
LayerCount: 2
Fore
SplineSet
496 260 m 0,1,2
 476 133 476 133 403.5 61.5 c 128,-1,3
 331 -10 331 -10 221 -10 c 0,4,5
 144 -10 144 -10 96 25 c 1,6,-1
 51 -28 l 1,7,-1
 12 8 l 1,8,-1
 59 63 l 1,9,10
 11 135 11 135 31 260 c 0,11,12
 51 388 51 388 124 459 c 128,-1,13
 197 530 197 530 307 530 c 0,14,15
 384 530 384 530 431 495 c 1,16,-1
 476 548 l 1,17,-1
 516 512 l 1,18,-1
 468 456 l 1,19,0
 516 385 516 385 496 260 c 0,1,2
113 127 m 1,21,-1
 381 437 l 1,22,23
 349 463 349 463 296 463 c 0,24,25
 220 463 220 463 170.5 410.5 c 128,-1,26
 121 358 121 358 105 260 c 0,27,20
 92 178 92 178 113 127 c 1,21,-1
357 109.5 m 128,-1,29
 406 162 406 162 421 260 c 0,30,31
 434 344 434 344 414 393 c 1,32,-1
 146 83 l 1,33,34
 178 57 178 57 232 57 c 0,35,28
 308 57 308 57 357 109.5 c 128,-1,29
EndSplineSet
EndChar

StartChar: oe
Encoding: 339 339 337
Width: 903
Flags: W
LayerCount: 2
Fore
SplineSet
861 229 m 1,0,-1
 490 229 l 1,1,2
 480 144 480 144 517 100.5 c 128,-1,3
 554 57 554 57 635 57 c 0,4,5
 675 57 675 57 717.5 67 c 128,-1,6
 760 77 760 77 795 94 c 1,7,-1
 803 33 l 1,8,9
 763 13 763 13 715 1.5 c 128,-1,10
 667 -10 667 -10 621 -10 c 0,11,12
 550 -10 550 -10 502 17 c 128,-1,13
 454 44 454 44 432 96 c 1,14,15
 396 45 396 45 341.5 17.5 c 128,-1,16
 287 -10 287 -10 221 -10 c 0,17,18
 111 -10 111 -10 60.5 61 c 128,-1,19
 10 132 10 132 31 260 c 256,20,21
 51 388 51 388 124 459 c 128,-1,22
 197 530 197 530 307 530 c 0,23,24
 373 530 373 530 418 503 c 128,-1,25
 463 476 463 476 483 425 c 1,26,27
 519 476 519 476 572 503 c 128,-1,28
 625 530 625 530 690 530 c 0,29,30
 796 530 796 530 842 460 c 128,-1,31
 888 390 888 390 867 260 c 1,32,-1
 861 229 l 1,0,-1
501 293 m 1,34,-1
 802 293 l 1,35,36
 821 465 821 465 680 465 c 0,37,33
 538 465 538 465 501 293 c 1,34,-1
357 109.5 m 128,-1,39
 406 162 406 162 421 260 c 256,40,41
 437 358 437 358 404.5 410.5 c 128,-1,42
 372 463 372 463 296 463 c 256,43,44
 220 463 220 463 170.5 410.5 c 128,-1,45
 121 358 121 358 105 260 c 256,46,47
 89 162 89 162 122.5 109.5 c 128,-1,48
 156 57 156 57 232 57 c 256,49,38
 308 57 308 57 357 109.5 c 128,-1,39
EndSplineSet
EndChar

StartChar: p
Encoding: 112 112 338
Width: 541
Flags: W
LayerCount: 2
Fore
SplineSet
484.5 459.5 m 128,-1,1
 524 389 524 389 504 260 c 256,2,3
 484 131 484 131 421.5 60.5 c 128,-1,4
 359 -10 359 -10 267 -10 c 0,5,6
 213 -10 213 -10 172.5 13.5 c 128,-1,7
 132 37 132 37 113 80 c 1,8,-1
 111 80 l 1,9,-1
 64 -220 l 1,10,-1
 -11 -220 l 1,11,-1
 107 520 l 1,12,-1
 178 520 l 1,13,-1
 165 440 l 1,14,-1
 167 440 l 1,15,16
 200 483 200 483 249 506.5 c 128,-1,17
 298 530 298 530 352 530 c 0,18,0
 445 530 445 530 484.5 459.5 c 128,-1,1
367.5 111 m 128,-1,20
 413 165 413 165 428 260 c 256,21,22
 443 355 443 355 414.5 409 c 128,-1,23
 386 463 386 463 322 463 c 0,24,25
 280 463 280 463 241.5 439.5 c 128,-1,26
 203 416 203 416 177 375 c 128,-1,27
 151 334 151 334 143 283 c 2,28,-1
 136 237 l 2,29,30
 128 186 128 186 141 145 c 128,-1,31
 154 104 154 104 185 80.5 c 128,-1,32
 216 57 216 57 258 57 c 0,33,19
 322 57 322 57 367.5 111 c 128,-1,20
EndSplineSet
EndChar

StartChar: thorn
Encoding: 254 254 339
Width: 545
Flags: W
LayerCount: 2
Fore
SplineSet
484.5 459.5 m 128,-1,1
 524 389 524 389 504 260 c 256,2,3
 484 131 484 131 421.5 60.5 c 128,-1,4
 359 -10 359 -10 267 -10 c 0,5,6
 213 -10 213 -10 172.5 13.5 c 128,-1,7
 132 37 132 37 113 80 c 1,8,-1
 111 80 l 1,9,-1
 64 -220 l 1,10,-1
 -11 -220 l 1,11,-1
 143 750 l 1,12,-1
 217 750 l 1,13,-1
 168 440 l 1,14,-1
 170 440 l 1,15,16
 202 483 202 483 250 506.5 c 128,-1,17
 298 530 298 530 352 530 c 0,18,0
 445 530 445 530 484.5 459.5 c 128,-1,1
367.5 111 m 128,-1,20
 413 165 413 165 428 260 c 256,21,22
 443 355 443 355 414.5 409 c 128,-1,23
 386 463 386 463 322 463 c 0,24,25
 280 463 280 463 241.5 439.5 c 128,-1,26
 203 416 203 416 177 375 c 128,-1,27
 151 334 151 334 143 283 c 2,28,-1
 136 237 l 2,29,30
 128 186 128 186 141 145 c 128,-1,31
 154 104 154 104 185 80.5 c 128,-1,32
 216 57 216 57 258 57 c 0,33,19
 322 57 322 57 367.5 111 c 128,-1,20
EndSplineSet
EndChar

StartChar: q
Encoding: 113 113 340
Width: 542
Flags: W
LayerCount: 2
Fore
SplineSet
510 520 m 1,0,-1
 393 -220 l 1,1,-1
 319 -220 l 1,2,-1
 366 80 l 1,3,-1
 364 80 l 1,4,5
 332 37 332 37 284 13.5 c 128,-1,6
 236 -10 236 -10 182 -10 c 0,7,8
 89 -10 89 -10 49.5 60.5 c 128,-1,9
 10 131 10 131 31 260 c 256,10,11
 51 389 51 389 113 459.5 c 128,-1,12
 175 530 175 530 268 530 c 0,13,14
 322 530 322 530 363 506.5 c 128,-1,15
 404 483 404 483 424 440 c 1,16,-1
 426 440 l 1,17,-1
 439 520 l 1,18,-1
 510 520 l 1,0,-1
292.5 80.5 m 128,-1,20
 331 104 331 104 357 145 c 128,-1,21
 383 186 383 186 391 237 c 2,22,-1
 398 283 l 2,23,24
 406 334 406 334 393.5 375 c 128,-1,25
 381 416 381 416 350 439.5 c 128,-1,26
 319 463 319 463 277 463 c 0,27,28
 212 463 212 463 166.5 409 c 128,-1,29
 121 355 121 355 106 260 c 256,30,31
 91 165 91 165 119.5 111 c 128,-1,32
 148 57 148 57 213 57 c 0,33,19
 254 57 254 57 292.5 80.5 c 128,-1,20
EndSplineSet
EndChar

StartChar: r
Encoding: 114 114 341
Width: 387
GlyphClass: 2
Flags: W
AnchorPoint: "Anchor-6" 177 520 basechar 0
AnchorPoint: "Anchor-4" 177 0 basechar 0
LayerCount: 2
Fore
SplineSet
272.5 498.5 m 128,-1,1
 338 530 338 530 411 530 c 1,2,-1
 400 460 l 1,3,4
 337 460 337 460 281 434.5 c 128,-1,5
 225 409 225 409 187.5 363.5 c 128,-1,6
 150 318 150 318 141 260 c 2,7,-1
 99 0 l 1,8,-1
 24 0 l 1,9,-1
 107 520 l 1,10,-1
 178 520 l 1,11,-1
 162 412 l 1,12,-1
 164 412 l 1,13,0
 207 467 207 467 272.5 498.5 c 128,-1,1
EndSplineSet
EndChar

StartChar: s
Encoding: 115 115 347
Width: 453
GlyphClass: 2
Flags: W
AnchorPoint: "Anchor-6" 199 520 basechar 0
AnchorPoint: "Anchor-4" 199 0 basechar 0
LayerCount: 2
Fore
SplineSet
80 1 m 128,-1,1
 32 12 32 12 -5 32 c 1,2,-1
 27 94 l 1,3,4
 97 57 97 57 180 57 c 0,5,6
 242 57 242 57 278 78 c 128,-1,7
 314 99 314 99 320 139 c 0,8,9
 326 176 326 176 301 195 c 128,-1,10
 276 214 276 214 209 233 c 0,11,12
 119 259 119 259 81 294 c 128,-1,13
 43 329 43 329 52 390 c 0,14,15
 63 457 63 457 117.5 493.5 c 128,-1,16
 172 530 172 530 262 530 c 0,17,18
 309 530 309 530 357.5 520 c 128,-1,19
 406 510 406 510 440 494 c 1,20,-1
 408 431 l 1,21,22
 377 447 377 447 338.5 455.5 c 128,-1,23
 300 464 300 464 261 464 c 0,24,25
 202 464 202 464 167.5 445 c 128,-1,26
 133 426 133 426 127 390 c 256,27,28
 121 354 121 354 146.5 335.5 c 128,-1,29
 172 317 172 317 235 300 c 0,30,31
 325 277 325 277 365.5 240 c 128,-1,32
 406 203 406 203 396 139 c 0,33,34
 385 67 385 67 328 28.5 c 128,-1,35
 271 -10 271 -10 178 -10 c 0,36,0
 128 -10 128 -10 80 1 c 128,-1,1
EndSplineSet
EndChar

StartChar: scedilla
Encoding: 351 351 350
Width: 452
GlyphClass: 2
Flags: W
AnchorPoint: "Anchor-6" 199 520 basechar 0
AnchorPoint: "Anchor-4" 199 0 basechar 0
LayerCount: 2
Fore
SplineSet
346.5 44 m 128,-1,1
 307 7 307 7 242 -5 c 1,2,3
 296 -60 296 -60 286 -120 c 0,4,5
 279 -164 279 -164 239.5 -191 c 128,-1,6
 200 -218 200 -218 129 -218 c 0,7,8
 69 -218 69 -218 27 -197 c 1,9,-1
 50 -135 l 1,10,11
 89 -154 89 -154 133 -154 c 0,12,13
 167 -154 167 -154 190.5 -142.5 c 128,-1,14
 214 -131 214 -131 218 -107 c 0,15,16
 225 -62 225 -62 156 -9 c 1,17,18
 66 -6 66 -6 -5 32 c 1,19,-1
 27 94 l 1,20,21
 97 57 97 57 180 57 c 0,22,23
 241 57 241 57 277 78 c 128,-1,24
 313 99 313 99 320 139 c 0,25,26
 326 176 326 176 301 195 c 128,-1,27
 276 214 276 214 209 233 c 0,28,29
 120 259 120 259 81.5 294 c 128,-1,30
 43 329 43 329 52 390 c 0,31,32
 63 457 63 457 117.5 493.5 c 128,-1,33
 172 530 172 530 261 530 c 0,34,35
 308 530 308 530 357 520 c 128,-1,36
 406 510 406 510 439 494 c 1,37,-1
 407 431 l 1,38,39
 376 447 376 447 337.5 455.5 c 128,-1,40
 299 464 299 464 260 464 c 0,41,42
 201 464 201 464 167 445 c 128,-1,43
 133 426 133 426 127 390 c 256,44,45
 121 354 121 354 146.5 335.5 c 128,-1,46
 172 317 172 317 234 300 c 0,47,48
 324 277 324 277 364.5 240 c 128,-1,49
 405 203 405 203 395 139 c 0,50,0
 386 81 386 81 346.5 44 c 128,-1,1
EndSplineSet
Substitution2: "'locl' Localized Forms in Latin lookup 4 subtable" uni0219
Substitution2: "'aalt' Access All Alternates in Latin lookup 0 subtable" uni0219
EndChar

StartChar: germandbls
Encoding: 223 223 353
Width: 555
Flags: W
LayerCount: 2
Fore
SplineSet
158 10 m 1,1,-1
 180 80 l 1,2,3
 241 60 241 60 292 60 c 0,4,5
 346 60 346 60 382.5 88 c 128,-1,6
 419 116 419 116 426 163 c 0,7,8
 429 183 429 183 424 200.5 c 128,-1,9
 419 218 419 218 402.5 243.5 c 128,-1,10
 386 269 386 269 350 315 c 0,11,12
 325 348 325 348 316 368 c 128,-1,13
 307 388 307 388 310 405 c 0,14,15
 312 420 312 420 324 437 c 128,-1,16
 336 454 336 454 368 488 c 0,17,18
 417 538 417 538 437 566.5 c 128,-1,19
 457 595 457 595 461 619 c 0,20,21
 467 655 467 655 438 672.5 c 128,-1,22
 409 690 409 690 345 690 c 0,23,24
 291 690 291 690 259.5 677 c 128,-1,25
 228 664 228 664 211 632.5 c 128,-1,26
 194 601 194 601 184 543 c 2,27,-1
 98 0 l 1,28,-1
 24 0 l 1,29,-1
 110 544 l 2,30,31
 128 659 128 659 185.5 709.5 c 128,-1,32
 243 760 243 760 353 760 c 0,33,34
 450 760 450 760 497 724.5 c 128,-1,35
 544 689 544 689 534 623 c 0,36,37
 529 590 529 590 508 557.5 c 128,-1,38
 487 525 487 525 436 470 c 0,39,40
 408 439 408 439 397.5 425.5 c 128,-1,41
 387 412 387 412 386 405 c 0,42,43
 385 397 385 397 392.5 384 c 128,-1,44
 400 371 400 371 427 336 c 0,45,46
 475 274 475 274 489.5 236.5 c 128,-1,47
 504 199 504 199 497 155 c 0,48,49
 485 79 485 79 430 34.5 c 128,-1,50
 375 -10 375 -10 291 -10 c 0,51,0
 228 -10 228 -10 158 10 c 1,1,-1
EndSplineSet
EndChar

StartChar: t
Encoding: 116 116 354
Width: 440
GlyphClass: 2
Flags: W
AnchorPoint: "Anchor-8" 196 0 basechar 0
AnchorPoint: "Anchor-7" 404 520 basechar 0
AnchorPoint: "Anchor-6" 194 520 basechar 0
AnchorPoint: "Anchor-4" 194 0 basechar 0
LayerCount: 2
Fore
SplineSet
134 27 m 128,-1,1
 108 64 108 64 122 153 c 2,2,-1
 169 453 l 1,3,-1
 49 453 l 1,4,-1
 59 520 l 1,5,-1
 180 520 l 1,6,-1
 210 710 l 1,7,-1
 284 710 l 1,8,-1
 254 520 l 1,9,-1
 430 520 l 1,10,-1
 419 453 l 1,11,-1
 243 453 l 1,12,-1
 198 167 l 2,13,14
 191 124 191 124 195 100.5 c 128,-1,15
 199 77 199 77 215.5 67 c 128,-1,16
 232 57 232 57 265 57 c 0,17,18
 305 57 305 57 349 71 c 1,19,-1
 351 7 l 1,20,21
 291 -10 291 -10 238 -10 c 0,22,0
 160 -10 160 -10 134 27 c 128,-1,1
EndSplineSet
EndChar

StartChar: tbar
Encoding: 359 359 355
Width: 429
GlyphClass: 2
Flags: W
AnchorPoint: "Anchor-8" 196 0 basechar 0
AnchorPoint: "Anchor-7" 404 520 basechar 0
AnchorPoint: "Anchor-6" 194 520 basechar 0
AnchorPoint: "Anchor-4" 194 0 basechar 0
LayerCount: 2
Fore
SplineSet
351 7 m 1,0,1
 291 -10 291 -10 238 -10 c 0,2,3
 160 -10 160 -10 134 27 c 128,-1,4
 108 64 108 64 122 153 c 2,5,-1
 132 217 l 1,6,-1
 11 217 l 1,7,-1
 22 283 l 1,8,-1
 142 283 l 1,9,-1
 169 453 l 1,10,-1
 49 453 l 1,11,-1
 59 520 l 1,12,-1
 180 520 l 1,13,-1
 210 710 l 1,14,-1
 284 710 l 1,15,-1
 254 520 l 1,16,-1
 430 520 l 1,17,-1
 419 453 l 1,18,-1
 243 453 l 1,19,-1
 217 283 l 1,20,-1
 382 283 l 1,21,-1
 371 217 l 1,22,-1
 206 217 l 1,23,-1
 198 167 l 2,24,25
 191 124 191 124 195 100.5 c 128,-1,26
 199 77 199 77 215.5 67 c 128,-1,27
 232 57 232 57 265 57 c 0,28,29
 305 57 305 57 349 71 c 1,30,-1
 351 7 l 1,0,1
EndSplineSet
EndChar

StartChar: uni0163
Encoding: 355 355 357
Width: 440
GlyphClass: 2
Flags: W
AnchorPoint: "Anchor-8" 196 0 basechar 0
AnchorPoint: "Anchor-7" 404 520 basechar 0
AnchorPoint: "Anchor-6" 194 520 basechar 0
AnchorPoint: "Anchor-4" 194 0 basechar 0
LayerCount: 2
Fore
SplineSet
324 -120 m 0,1,2
 317 -164 317 -164 277.5 -191 c 128,-1,3
 238 -218 238 -218 167 -218 c 0,4,5
 108 -218 108 -218 65 -197 c 1,6,-1
 88 -134 l 1,7,8
 124 -153 124 -153 172 -153 c 0,9,10
 207 -153 207 -153 229.5 -142 c 128,-1,11
 252 -131 252 -131 256 -107 c 0,12,13
 260 -84 260 -84 242 -57.5 c 128,-1,14
 224 -31 224 -31 188 -5 c 1,15,16
 140 5 140 5 125 42.5 c 128,-1,17
 110 80 110 80 122 153 c 2,18,-1
 169 453 l 1,19,-1
 49 453 l 1,20,-1
 59 520 l 1,21,-1
 180 520 l 1,22,-1
 210 710 l 1,23,-1
 284 710 l 1,24,-1
 254 520 l 1,25,-1
 429 520 l 1,26,-1
 418 453 l 1,27,-1
 243 453 l 1,28,-1
 198 167 l 2,29,30
 191 124 191 124 195 100.5 c 128,-1,31
 199 77 199 77 215.5 67 c 128,-1,32
 232 57 232 57 265 57 c 0,33,34
 305 57 305 57 349 71 c 1,35,-1
 350 7 l 1,36,37
 322 -2 322 -2 282 -7 c 1,38,0
 334 -60 334 -60 324 -120 c 0,1,2
EndSplineSet
Substitution2: "'locl' Localized Forms in Latin lookup 4 subtable" uni021B
Substitution2: "'aalt' Access All Alternates in Latin lookup 0 subtable" uni021B
EndChar

StartChar: u
Encoding: 117 117 359
Width: 539
GlyphClass: 2
Flags: W
AnchorPoint: "Anchor-7" 447 480 basechar 0
AnchorPoint: "Anchor-6" 245 520 basechar 0
AnchorPoint: "Anchor-5" 457 0 basechar 0
AnchorPoint: "Anchor-4" 245 0 basechar 0
LayerCount: 2
Fore
SplineSet
507 520 m 1,0,-1
 425 0 l 1,1,-1
 353 0 l 1,2,-1
 367 86 l 1,3,-1
 365 86 l 1,4,5
 328 41 328 41 277 15.5 c 128,-1,6
 226 -10 226 -10 171 -10 c 0,7,8
 17 -10 17 -10 49 200 c 2,9,-1
 100 520 l 1,10,-1
 174 520 l 1,11,-1
 126 214 l 2,12,13
 101 57 101 57 201 57 c 0,14,15
 243 57 243 57 283.5 83 c 128,-1,16
 324 109 324 109 353 153 c 128,-1,17
 382 197 382 197 390 247 c 2,18,-1
 433 520 l 1,19,-1
 507 520 l 1,0,-1
EndSplineSet
EndChar

StartChar: uhorn
Encoding: 432 432 368
Width: 603
GlyphClass: 2
Flags: W
AnchorPoint: "Anchor-7" 662 632 basechar 0
AnchorPoint: "Anchor-6" 245 520 basechar 0
AnchorPoint: "Anchor-5" 458 0 basechar 0
AnchorPoint: "Anchor-4" 245 0 basechar 0
LayerCount: 2
Fore
SplineSet
680 521 m 0,1,2
 670 460 670 460 636.5 426 c 128,-1,3
 603 392 603 392 552 392 c 0,4,5
 522 392 522 392 489 405 c 1,6,-1
 425 0 l 1,7,-1
 353 0 l 1,8,-1
 367 86 l 1,9,-1
 365 86 l 1,10,11
 328 41 328 41 277 15.5 c 128,-1,12
 226 -10 226 -10 171 -10 c 0,13,14
 17 -10 17 -10 49 200 c 2,15,-1
 100 520 l 1,16,-1
 174 520 l 1,17,-1
 126 214 l 2,18,19
 101 57 101 57 201 57 c 0,20,21
 243 57 243 57 283.5 83 c 128,-1,22
 324 109 324 109 353 153 c 128,-1,23
 382 197 382 197 390 247 c 2,24,-1
 433 520 l 1,25,-1
 507 520 l 1,26,-1
 500 473 l 1,27,28
 518 461 518 461 539 461 c 0,29,30
 567 461 567 461 583.5 479 c 128,-1,31
 600 497 600 497 606 531 c 0,32,33
 610 554 610 554 608.5 583.5 c 128,-1,34
 607 613 607 613 603 632 c 1,35,-1
 680 632 l 1,36,0
 689 575 689 575 680 521 c 0,1,2
EndSplineSet
EndChar

StartChar: uogonek
Encoding: 371 371 377
Width: 542
GlyphClass: 2
Flags: W
AnchorPoint: "Anchor-7" 447 480 basechar 0
AnchorPoint: "Anchor-6" 245 520 basechar 0
AnchorPoint: "Anchor-5" 457 0 basechar 0
AnchorPoint: "Anchor-4" 245 0 basechar 0
LayerCount: 2
Fore
SplineSet
477 -197 m 1,0,1
 428 -218 428 -218 369 -218 c 0,2,3
 298 -218 298 -218 267 -191 c 128,-1,4
 236 -164 236 -164 243 -120 c 0,5,6
 254 -48 254 -48 355 17 c 1,7,-1
 366 86 l 1,8,-1
 364 86 l 1,9,10
 327 41 327 41 276 15.5 c 128,-1,11
 225 -10 225 -10 170 -10 c 0,12,13
 16 -10 16 -10 49 200 c 2,14,-1
 100 520 l 1,15,-1
 174 520 l 1,16,-1
 126 214 l 2,17,18
 101 57 101 57 201 57 c 0,19,20
 243 57 243 57 283 83 c 128,-1,21
 323 109 323 109 352 153 c 128,-1,22
 381 197 381 197 389 247 c 2,23,-1
 432 520 l 1,24,-1
 506 520 l 1,25,-1
 424 0 l 1,26,27
 375 -27 375 -27 347.5 -54.5 c 128,-1,28
 320 -82 320 -82 316 -107 c 0,29,30
 312 -131 312 -131 331 -142 c 128,-1,31
 350 -153 350 -153 385 -153 c 0,32,33
 432 -153 432 -153 474 -134 c 1,34,-1
 477 -197 l 1,0,1
EndSplineSet
EndChar

StartChar: v
Encoding: 118 118 380
Width: 490
Flags: W
LayerCount: 2
Fore
SplineSet
48 520 m 1,0,-1
 130 520 l 1,1,-1
 209 58 l 1,2,-1
 211 58 l 1,3,-1
 435 520 l 1,4,-1
 517 520 l 1,5,-1
 253 0 l 1,6,-1
 147 0 l 1,7,-1
 48 520 l 1,0,-1
EndSplineSet
EndChar

StartChar: w
Encoding: 119 119 381
Width: 735
GlyphClass: 2
Flags: W
AnchorPoint: "Anchor-6" 347 520 basechar 0
AnchorPoint: "Anchor-4" 347 0 basechar 0
LayerCount: 2
Fore
SplineSet
62 520 m 1,0,-1
 144 520 l 1,1,-1
 178 77 l 1,2,-1
 180 77 l 1,3,-1
 354 520 l 1,4,-1
 456 520 l 1,5,-1
 490 77 l 1,6,-1
 491 77 l 1,7,-1
 666 520 l 1,8,-1
 748 520 l 1,9,-1
 525 0 l 1,10,-1
 427 0 l 1,11,-1
 393 436 l 1,12,-1
 391 436 l 1,13,-1
 218 0 l 1,14,-1
 120 0 l 1,15,-1
 62 520 l 1,0,-1
EndSplineSet
EndChar

StartChar: x
Encoding: 120 120 386
Width: 508
Flags: W
LayerCount: 2
Fore
SplineSet
197 262 m 1,0,-1
 76 520 l 1,1,-1
 162 520 l 1,2,-1
 257 307 l 1,3,-1
 259 307 l 1,4,-1
 421 520 l 1,5,-1
 507 520 l 1,6,-1
 304 262 l 1,7,-1
 428 0 l 1,8,-1
 342 0 l 1,9,-1
 245 218 l 1,10,-1
 243 218 l 1,11,-1
 76 0 l 1,12,-1
 -10 0 l 1,13,-1
 197 262 l 1,0,-1
EndSplineSet
EndChar

StartChar: y
Encoding: 121 121 387
Width: 493
GlyphClass: 2
Flags: W
AnchorPoint: "Anchor-6" 219 520 basechar 0
AnchorPoint: "Anchor-4" 219 0 basechar 0
LayerCount: 2
Fore
SplineSet
440 520 m 1,0,-1
 523 520 l 1,1,-1
 115 -220 l 1,2,-1
 35 -220 l 1,3,-1
 163 -2 l 1,4,-1
 51 520 l 1,5,-1
 134 520 l 1,6,-1
 214 91 l 1,7,-1
 216 91 l 1,8,-1
 440 520 l 1,0,-1
EndSplineSet
EndChar

StartChar: z
Encoding: 122 122 396
Width: 479
GlyphClass: 2
Flags: W
AnchorPoint: "Anchor-6" 213 520 basechar 0
AnchorPoint: "Anchor-4" 213 0 basechar 0
LayerCount: 2
Fore
SplineSet
14 67 m 1,0,-1
 363 451 l 1,1,-1
 364 453 l 1,2,-1
 75 453 l 1,3,-1
 86 520 l 1,4,-1
 468 520 l 1,5,-1
 458 453 l 1,6,-1
 108 69 l 1,7,-1
 108 67 l 1,8,-1
 397 67 l 1,9,-1
 386 0 l 1,10,-1
 3 0 l 1,11,-1
 14 67 l 1,0,-1
EndSplineSet
EndChar

StartChar: f_f
Encoding: 65538 -1 400
Width: 752
GlyphClass: 3
Flags: W
LayerCount: 2
Fore
SplineSet
604 520 m 1,0,-1
 763 520 l 1,1,-1
 753 453 l 1,2,-1
 593 453 l 1,3,-1
 522 0 l 1,4,-1
 446 0 l 1,5,-1
 518 453 l 1,6,-1
 259 453 l 1,7,-1
 187 0 l 1,8,-1
 112 0 l 1,9,-1
 184 453 l 1,10,-1
 48 453 l 1,11,-1
 58 520 l 1,12,-1
 194 520 l 1,13,-1
 205 587 l 2,14,15
 232 760 232 760 378 760 c 0,16,17
 425 760 425 760 470 745 c 1,18,-1
 447 680 l 1,19,20
 415 693 415 693 378 693 c 0,21,22
 333 693 333 693 311 669 c 128,-1,23
 289 645 289 645 280 587 c 2,24,-1
 269 520 l 1,25,-1
 529 520 l 1,26,-1
 539 587 l 2,27,28
 566 760 566 760 713 760 c 0,29,30
 761 760 761 760 805 745 c 1,31,-1
 781 680 l 1,32,33
 749 693 749 693 713 693 c 0,34,35
 668 693 668 693 646 669 c 128,-1,36
 624 645 624 645 615 587 c 2,37,-1
 604 520 l 1,0,-1
EndSplineSet
Ligature2: "'liga' Standard Ligatures in Latin lookup 14 subtable" f f
EndChar

StartChar: ordfeminine
Encoding: 170 170 405
Width: 423
Flags: W
LayerCount: 2
Fore
SplineSet
396 700 m 128,-1,1
 426 662 426 662 413 575 c 2,2,-1
 371 314 l 1,3,-1
 299 314 l 1,4,-1
 307 368 l 1,5,-1
 305 368 l 1,6,7
 281 340 281 340 241.5 323 c 128,-1,8
 202 306 202 306 161 306 c 0,9,10
 101 306 101 306 70 340.5 c 128,-1,11
 39 375 39 375 48 431 c 0,12,13
 59 503 59 503 127.5 541.5 c 128,-1,14
 196 580 196 580 311 580 c 2,15,-1
 339 580 l 1,16,17
 347 637 347 637 330 659 c 128,-1,18
 313 681 313 681 263 681 c 0,19,20
 189 681 189 681 112 643 c 1,21,-1
 107 700 l 1,22,23
 195 738 195 738 283 738 c 0,24,0
 366 738 366 738 396 700 c 128,-1,1
277 396.5 m 128,-1,26
 315 428 315 428 322 475 c 2,27,-1
 330 526 l 1,28,-1
 295 526 l 2,29,30
 214 526 214 526 168 503.5 c 128,-1,31
 122 481 122 481 115 437 c 0,32,33
 110 404 110 404 130 384.5 c 128,-1,34
 150 365 150 365 189 365 c 0,35,25
 239 365 239 365 277 396.5 c 128,-1,26
EndSplineSet
EndChar

StartChar: ordmasculine
Encoding: 186 186 406
Width: 446
Flags: W
LayerCount: 2
Fore
SplineSet
93.5 363 m 128,-1,1
 52 420 52 420 69 522 c 0,2,3
 85 625 85 625 144.5 681.5 c 128,-1,4
 204 738 204 738 295 738 c 0,5,6
 387 738 387 738 428 681.5 c 128,-1,7
 469 625 469 625 453 522 c 0,8,9
 437 420 437 420 377.5 363 c 128,-1,10
 318 306 318 306 226 306 c 256,11,0
 135 306 135 306 93.5 363 c 128,-1,1
330.5 406.5 m 128,-1,13
 367 446 367 446 379 522 c 256,14,15
 391 598 391 598 367 637.5 c 128,-1,16
 343 677 343 677 285 677 c 0,17,18
 228 677 228 677 191.5 637 c 128,-1,19
 155 597 155 597 143 522 c 256,20,21
 131 447 131 447 155 407 c 128,-1,22
 179 367 179 367 236 367 c 0,23,12
 294 367 294 367 330.5 406.5 c 128,-1,13
EndSplineSet
EndChar

StartChar: zero.lf
Encoding: 65564 -1 417
Width: 601
Flags: W
LayerCount: 2
Fore
SplineSet
52 365 m 256,1,2
 111 740 111 740 373 740 c 256,3,4
 635 740 635 740 575 365 c 256,5,6
 516 -10 516 -10 254 -10 c 256,7,0
 -7 -10 -7 -10 52 365 c 256,1,2
414.5 137.5 m 128,-1,9
 471 212 471 212 495 365 c 256,10,11
 519 518 519 518 486.5 592.5 c 128,-1,12
 454 667 454 667 361 667 c 256,13,14
 269 667 269 667 213 592.5 c 128,-1,15
 157 518 157 518 132 365 c 256,16,17
 108 212 108 212 141 137.5 c 128,-1,18
 174 63 174 63 266 63 c 256,19,8
 358 63 358 63 414.5 137.5 c 128,-1,9
EndSplineSet
Substitution2: "'tnum' Tabular Numbers in Latin lookup 11 subtable" zero
AlternateSubs2: "'aalt' Access All Alternates in Latin lookup 1 subtable" zero
EndChar

StartChar: one.lf
Encoding: 65565 -1 418
Width: 588
Flags: W
LayerCount: 2
Fore
SplineSet
366 625 m 1,0,-1
 364 625 l 1,1,-1
 107 413 l 1,2,-1
 80 481 l 1,3,-1
 380 730 l 1,4,-1
 463 730 l 1,5,-1
 347 0 l 1,6,-1
 267 0 l 1,7,-1
 366 625 l 1,0,-1
EndSplineSet
Substitution2: "'tnum' Tabular Numbers in Latin lookup 11 subtable" one
AlternateSubs2: "'aalt' Access All Alternates in Latin lookup 1 subtable" one
EndChar

StartChar: two.lf
Encoding: 65566 -1 419
Width: 597
Flags: W
LayerCount: 2
Fore
SplineSet
282 270.5 m 128,-1,1
 373 351 373 351 417 411.5 c 128,-1,2
 461 472 461 472 469 527 c 0,3,4
 479 591 479 591 445 629 c 128,-1,5
 411 667 411 667 343 667 c 0,6,7
 295 667 295 667 241.5 647.5 c 128,-1,8
 188 628 188 628 133 591 c 1,9,-1
 113 659 l 1,10,11
 166 696 166 696 233.5 718 c 128,-1,12
 301 740 301 740 364 740 c 0,13,14
 464 740 464 740 515 683.5 c 128,-1,15
 566 627 566 627 551 533 c 0,16,17
 541 469 541 469 498.5 403.5 c 128,-1,18
 456 338 456 338 373 259 c 128,-1,19
 290 180 290 180 153 75 c 1,20,-1
 153 73 l 1,21,-1
 486 73 l 1,22,-1
 474 0 l 1,23,-1
 23 0 l 1,24,-1
 35 73 l 1,25,0
 191 190 191 190 282 270.5 c 128,-1,1
EndSplineSet
Substitution2: "'tnum' Tabular Numbers in Latin lookup 11 subtable" two
AlternateSubs2: "'aalt' Access All Alternates in Latin lookup 1 subtable" two
EndChar

StartChar: three.lf
Encoding: 65567 -1 420
Width: 596
Flags: W
LayerCount: 2
Fore
SplineSet
26 47 m 1,1,-1
 64 111 l 1,2,3
 137 62 137 62 226 62 c 0,4,5
 312 62 312 62 364.5 102.5 c 128,-1,6
 417 143 417 143 429 220 c 0,7,8
 441 294 441 294 399 327 c 128,-1,9
 357 360 357 360 248 360 c 2,10,-1
 183 360 l 1,11,-1
 194 431 l 1,12,-1
 462 656 l 1,13,-1
 462 658 l 1,14,-1
 133 658 l 1,15,-1
 144 730 l 1,16,-1
 580 730 l 1,17,-1
 569 657 l 1,18,-1
 300 432 l 1,19,-1
 299 430 l 1,20,-1
 321 430 l 2,21,22
 431 430 431 430 478.5 377.5 c 128,-1,23
 526 325 526 325 510 222 c 0,24,25
 492 111 492 111 417 50.5 c 128,-1,26
 342 -10 342 -10 222 -10 c 0,27,0
 110 -10 110 -10 26 47 c 1,1,-1
EndSplineSet
Substitution2: "'tnum' Tabular Numbers in Latin lookup 11 subtable" three
AlternateSubs2: "'aalt' Access All Alternates in Latin lookup 1 subtable" three
EndChar

StartChar: four.lf
Encoding: 65568 -1 421
Width: 603
Flags: W
LayerCount: 2
Fore
SplineSet
348 165 m 1,0,-1
 -5 165 l 1,1,-1
 7 239 l 1,2,-1
 437 730 l 1,3,-1
 515 730 l 1,4,-1
 438 239 l 1,5,-1
 558 239 l 1,6,-1
 547 165 l 1,7,-1
 426 165 l 1,8,-1
 400 0 l 1,9,-1
 321 0 l 1,10,-1
 348 165 l 1,0,-1
359 239 m 1,11,-1
 417 601 l 1,12,-1
 415 601 l 1,13,-1
 100 241 l 1,14,-1
 100 239 l 1,15,-1
 359 239 l 1,11,-1
EndSplineSet
Substitution2: "'tnum' Tabular Numbers in Latin lookup 11 subtable" four
AlternateSubs2: "'aalt' Access All Alternates in Latin lookup 1 subtable" four
EndChar

StartChar: five.lf
Encoding: 65569 -1 422
Width: 596
Flags: W
LayerCount: 2
Fore
SplineSet
31 41 m 1,1,-1
 66 107 l 1,2,3
 138 62 138 62 225 62 c 0,4,5
 314 62 314 62 370.5 108 c 128,-1,6
 427 154 427 154 440 237 c 0,7,8
 452 311 452 311 417 350.5 c 128,-1,9
 382 390 382 390 303 390 c 0,10,11
 265 390 265 390 234 380 c 128,-1,12
 203 370 203 370 169 345 c 1,13,-1
 100 345 l 1,14,-1
 185 730 l 1,15,-1
 568 730 l 1,16,-1
 557 658 l 1,17,-1
 245 658 l 1,18,-1
 191 425 l 1,19,-1
 193 425 l 1,20,21
 225 444 225 444 255.5 452 c 128,-1,22
 286 460 286 460 324 460 c 0,23,24
 435 460 435 460 486 402 c 128,-1,25
 537 344 537 344 520 237 c 0,26,27
 502 121 502 121 421.5 55.5 c 128,-1,28
 341 -10 341 -10 218 -10 c 0,29,0
 110 -10 110 -10 31 41 c 1,1,-1
EndSplineSet
Substitution2: "'tnum' Tabular Numbers in Latin lookup 11 subtable" five
AlternateSubs2: "'aalt' Access All Alternates in Latin lookup 1 subtable" five
EndChar

StartChar: six.lf
Encoding: 65570 -1 423
Width: 601
Flags: W
LayerCount: 2
Fore
SplineSet
77.5 59 m 128,-1,1
 21 128 21 128 40 251 c 0,2,3
 62 389 62 389 123.5 495 c 128,-1,4
 185 601 185 601 277 664 c 128,-1,5
 369 727 369 727 484 739 c 1,6,-1
 487 667 l 1,7,8
 375 653 375 653 293.5 590.5 c 128,-1,9
 212 528 212 528 165 422 c 1,10,-1
 167 421 l 1,11,12
 245 487 245 487 350 487 c 0,13,14
 461 487 461 487 514.5 421 c 128,-1,15
 568 355 568 355 550 241 c 0,16,17
 532 125 532 125 452.5 57.5 c 128,-1,18
 373 -10 373 -10 255 -10 c 0,19,0
 134 -10 134 -10 77.5 59 c 128,-1,1
402.5 111.5 m 128,-1,21
 456 158 456 158 469 240 c 256,22,23
 482 322 482 322 443 368 c 128,-1,24
 404 414 404 414 322 414 c 256,25,26
 240 414 240 414 187 368.5 c 128,-1,27
 134 323 134 323 121 240 c 0,28,29
 108 159 108 159 146.5 112 c 128,-1,30
 185 65 185 65 267 65 c 256,31,20
 349 65 349 65 402.5 111.5 c 128,-1,21
EndSplineSet
Substitution2: "'tnum' Tabular Numbers in Latin lookup 11 subtable" six
AlternateSubs2: "'aalt' Access All Alternates in Latin lookup 1 subtable" six
EndChar

StartChar: seven.lf
Encoding: 65571 -1 424
Width: 597
Flags: W
LayerCount: 2
Fore
SplineSet
505 655 m 1,1,-1
 506 657 l 1,2,-1
 126 657 l 1,3,-1
 138 730 l 1,4,-1
 604 730 l 1,5,-1
 594 663 l 1,6,7
 490 523 490 523 396 362 c 128,-1,8
 302 201 302 201 207 0 c 1,9,-1
 118 0 l 1,10,0
 296 369 296 369 505 655 c 1,1,-1
EndSplineSet
Substitution2: "'tnum' Tabular Numbers in Latin lookup 11 subtable" seven
AlternateSubs2: "'aalt' Access All Alternates in Latin lookup 1 subtable" seven
EndChar

StartChar: eight.lf
Encoding: 65572 -1 425
Width: 601
Flags: W
LayerCount: 2
Fore
SplineSet
72 44.5 m 128,-1,1
 10 99 10 99 25 193 c 0,2,3
 36 262 36 262 85.5 308.5 c 128,-1,4
 135 355 135 355 224 382 c 1,5,-1
 224 384 l 1,6,7
 161 410 161 410 131 458.5 c 128,-1,8
 101 507 101 507 110 567 c 0,9,10
 123 646 123 646 194 693 c 128,-1,11
 265 740 265 740 373 740 c 0,12,13
 444 740 444 740 494 718.5 c 128,-1,14
 544 697 544 697 567 658 c 128,-1,15
 590 619 590 619 582 567 c 0,16,17
 573 509 573 509 528 464 c 128,-1,18
 483 419 483 419 409 392 c 1,19,-1
 409 390 l 1,20,21
 571 337 571 337 548 193 c 0,22,23
 533 99 533 99 454.5 44.5 c 128,-1,24
 376 -10 376 -10 254 -10 c 0,25,0
 134 -10 134 -10 72 44.5 c 128,-1,1
446.5 475 m 128,-1,27
 494 511 494 511 501 560 c 0,28,29
 509 611 509 611 471.5 640.5 c 128,-1,30
 434 670 434 670 362 670 c 256,31,32
 289 670 289 670 242.5 640.5 c 128,-1,33
 196 611 196 611 188 560 c 0,34,35
 180 510 180 510 216 474 c 128,-1,36
 252 438 252 438 323 425 c 1,37,26
 399 439 399 439 446.5 475 c 128,-1,27
403.5 97 m 128,-1,39
 458 134 458 134 468 197 c 0,40,41
 477 255 477 255 437.5 292 c 128,-1,42
 398 329 398 329 306 347 c 1,43,44
 124 311 124 311 106 197 c 0,45,46
 96 134 96 134 139 97 c 128,-1,47
 182 60 182 60 265 60 c 256,48,38
 349 60 349 60 403.5 97 c 128,-1,39
EndSplineSet
Substitution2: "'tnum' Tabular Numbers in Latin lookup 11 subtable" eight
AlternateSubs2: "'aalt' Access All Alternates in Latin lookup 1 subtable" eight
EndChar

StartChar: nine.lf
Encoding: 65573 -1 426
Width: 597
Flags: W
LayerCount: 2
Fore
SplineSet
545.5 671 m 128,-1,1
 602 602 602 602 582 479 c 0,2,3
 560 341 560 341 499.5 235 c 128,-1,4
 439 129 439 129 346.5 66 c 128,-1,5
 254 3 254 3 140 -9 c 1,6,-1
 136 63 l 1,7,8
 248 77 248 77 330 139.5 c 128,-1,9
 412 202 412 202 458 308 c 1,10,-1
 456 309 l 1,11,12
 378 243 378 243 274 243 c 0,13,14
 163 243 163 243 109 309 c 128,-1,15
 55 375 55 375 73 489 c 0,16,17
 91 605 91 605 170.5 672.5 c 128,-1,18
 250 740 250 740 369 740 c 0,19,0
 489 740 489 740 545.5 671 c 128,-1,1
221.5 618.5 m 128,-1,21
 168 572 168 572 155 490 c 256,22,23
 142 408 142 408 180.5 362 c 128,-1,24
 219 316 219 316 302 316 c 256,25,26
 384 316 384 316 437 361.5 c 128,-1,27
 490 407 490 407 503 490 c 0,28,29
 516 571 516 571 477 618 c 128,-1,30
 438 665 438 665 357 665 c 0,31,20
 275 665 275 665 221.5 618.5 c 128,-1,21
EndSplineSet
Substitution2: "'tnum' Tabular Numbers in Latin lookup 11 subtable" nine
AlternateSubs2: "'aalt' Access All Alternates in Latin lookup 1 subtable" nine
EndChar

StartChar: uni2070
Encoding: 8304 8304 427
Width: 361
Flags: W
LayerCount: 2
Fore
SplineSet
72.5 342 m 128,-1,1
 43 398 43 398 61 511 c 256,2,3
 79 624 79 624 126.5 680 c 128,-1,4
 174 736 174 736 253 736 c 0,5,6
 410 736 410 736 374 511 c 256,7,8
 338 286 338 286 182 286 c 0,9,0
 102 286 102 286 72.5 342 c 128,-1,1
262 391 m 128,-1,11
 289 429 289 429 302 511 c 256,12,13
 315 593 315 593 300 631 c 128,-1,14
 285 669 285 669 242 669 c 256,15,16
 199 669 199 669 172.5 631 c 128,-1,17
 146 593 146 593 133 511 c 256,18,19
 120 429 120 429 134.5 391 c 128,-1,20
 149 353 149 353 192 353 c 256,21,10
 235 353 235 353 262 391 c 128,-1,11
EndSplineSet
EndChar

StartChar: uni00B9
Encoding: 185 185 428
Width: 344
Flags: W
LayerCount: 2
Fore
SplineSet
225 635 m 1,0,-1
 223 635 l 1,1,-1
 86 520 l 1,2,-1
 60 581 l 1,3,-1
 240 730 l 1,4,-1
 314 730 l 1,5,-1
 244 292 l 1,6,-1
 171 292 l 1,7,-1
 225 635 l 1,0,-1
EndSplineSet
EndChar

StartChar: uni00B2
Encoding: 178 178 429
Width: 359
Flags: W
LayerCount: 2
Fore
SplineSet
188 465 m 128,-1,1
 236 506 236 506 257.5 535 c 128,-1,2
 279 564 279 564 284 592 c 0,3,4
 290 627 290 627 271.5 648 c 128,-1,5
 253 669 253 669 216 669 c 0,6,7
 161 669 161 669 102 625 c 1,8,-1
 93 690 l 1,9,10
 125 711 125 711 165.5 723.5 c 128,-1,11
 206 736 206 736 244 736 c 0,12,13
 309 736 309 736 338.5 702.5 c 128,-1,14
 368 669 368 669 359 608 c 0,15,16
 350 552 350 552 304.5 495.5 c 128,-1,17
 259 439 259 439 160 361 c 1,18,-1
 160 359 l 1,19,-1
 323 359 l 1,20,-1
 313 292 l 1,21,-1
 42 292 l 1,22,-1
 53 359 l 1,23,0
 140 424 140 424 188 465 c 128,-1,1
EndSplineSet
EndChar

StartChar: uni00B3
Encoding: 179 179 430
Width: 358
Flags: W
LayerCount: 2
Fore
SplineSet
40 316 m 1,1,-1
 65 377 l 1,2,3
 107 353 107 353 154 353 c 0,4,5
 199 353 199 353 225.5 372 c 128,-1,6
 252 391 252 391 258 426 c 256,7,8
 264 461 264 461 242.5 477 c 128,-1,9
 221 493 221 493 167 493 c 2,10,-1
 131 493 l 1,11,-1
 141 557 l 1,12,-1
 268 662 l 1,13,-1
 268 664 l 1,14,-1
 101 664 l 1,15,-1
 111 730 l 1,16,-1
 373 730 l 1,17,-1
 362 664 l 1,18,-1
 222 548 l 1,19,-1
 222 546 l 1,20,-1
 229 546 l 2,21,22
 288 545 288 545 313.5 513.5 c 128,-1,23
 339 482 339 482 330 424 c 0,24,25
 320 358 320 358 275 322 c 128,-1,26
 230 286 230 286 159 286 c 0,27,0
 91 286 91 286 40 316 c 1,1,-1
EndSplineSet
EndChar

StartChar: uni2074
Encoding: 8308 8308 431
Width: 363
Flags: W
LayerCount: 2
Fore
SplineSet
218 379 m 1,0,-1
 18 379 l 1,1,-1
 28 446 l 1,2,-1
 276 730 l 1,3,-1
 345 730 l 1,4,-1
 300 446 l 1,5,-1
 360 446 l 1,6,-1
 349 379 l 1,7,-1
 289 379 l 1,8,-1
 275 292 l 1,9,-1
 204 292 l 1,10,-1
 218 379 l 1,0,-1
231 443 m 1,11,-1
 260 627 l 1,12,-1
 258 627 l 1,13,-1
 100 445 l 1,14,-1
 99 443 l 1,15,-1
 231 443 l 1,11,-1
EndSplineSet
EndChar

StartChar: fraction
Encoding: 8260 8260 432
Width: 500
Flags: W
LayerCount: 2
Fore
SplineSet
482 730 m 1,0,-1
 559 730 l 1,1,-1
 44 0 l 1,2,-1
 -32 0 l 1,3,-1
 482 730 l 1,0,-1
EndSplineSet
EndChar

StartChar: onehalf
Encoding: 189 189 433
Width: 836
Flags: W
LayerCount: 2
Fore
SplineSet
237 635 m 1,0,-1
 100 520 l 1,1,-1
 73 581 l 1,2,-1
 254 730 l 1,3,-1
 327 730 l 1,4,-1
 258 292 l 1,5,-1
 184 292 l 1,6,-1
 239 635 l 1,7,-1
 237 635 l 1,0,-1
648 730 m 1,8,-1
 724 730 l 1,9,-1
 210 0 l 1,10,-1
 133 0 l 1,11,-1
 648 730 l 1,8,-1
612.5 173 m 128,-1,13
 660 214 660 214 682 243 c 128,-1,14
 704 272 704 272 708 300 c 0,15,16
 714 335 714 335 695.5 356 c 128,-1,17
 677 377 677 377 640 377 c 0,18,19
 585 377 585 377 526 333 c 1,20,-1
 518 398 l 1,21,22
 550 419 550 419 590 431.5 c 128,-1,23
 630 444 630 444 668 444 c 0,24,25
 733 444 733 444 763 410.5 c 128,-1,26
 793 377 793 377 783 316 c 0,27,28
 774 260 774 260 729 203.5 c 128,-1,29
 684 147 684 147 584 69 c 1,30,-1
 584 67 l 1,31,-1
 748 67 l 1,32,-1
 737 0 l 1,33,-1
 466 0 l 1,34,-1
 477 67 l 1,35,12
 565 132 565 132 612.5 173 c 128,-1,13
EndSplineSet
Ligature2: "'frac' Diagonal Fractions in Latin lookup 7 subtable" one slash two
EndChar

StartChar: onequarter
Encoding: 188 188 434
Width: 801
Flags: W
LayerCount: 2
Fore
SplineSet
237 635 m 1,0,-1
 100 520 l 1,1,-1
 73 581 l 1,2,-1
 254 730 l 1,3,-1
 327 730 l 1,4,-1
 258 292 l 1,5,-1
 184 292 l 1,6,-1
 239 635 l 1,7,-1
 237 635 l 1,0,-1
648 730 m 1,8,-1
 724 730 l 1,9,-1
 210 0 l 1,10,-1
 133 0 l 1,11,-1
 648 730 l 1,8,-1
400 87 m 1,12,-1
 411 154 l 1,13,-1
 658 438 l 1,14,-1
 727 438 l 1,15,-1
 682 154 l 1,16,-1
 742 154 l 1,17,-1
 731 87 l 1,18,-1
 671 87 l 1,19,-1
 658 0 l 1,20,-1
 585 0 l 1,21,-1
 599 87 l 1,22,-1
 400 87 l 1,12,-1
642 335 m 1,23,-1
 640 335 l 1,24,-1
 482 153 l 1,25,-1
 482 151 l 1,26,-1
 613 151 l 1,27,-1
 642 335 l 1,23,-1
EndSplineSet
Ligature2: "'frac' Diagonal Fractions in Latin lookup 7 subtable" one slash four
EndChar

StartChar: threequarters
Encoding: 190 190 435
Width: 778
Flags: W
LayerCount: 2
Fore
SplineSet
44 316 m 1,1,-1
 70 377 l 1,2,3
 112 353 112 353 159 353 c 0,4,5
 204 353 204 353 230 372 c 128,-1,6
 256 391 256 391 262 426 c 256,7,8
 268 461 268 461 246 477 c 128,-1,9
 224 493 224 493 170 493 c 2,10,-1
 136 493 l 1,11,-1
 146 557 l 1,12,-1
 271 662 l 1,13,-1
 272 664 l 1,14,-1
 104 664 l 1,15,-1
 115 730 l 1,16,-1
 376 730 l 1,17,-1
 366 664 l 1,18,-1
 226 548 l 1,19,-1
 226 546 l 1,20,-1
 233 546 l 2,21,22
 292 545 292 545 317.5 513.5 c 128,-1,23
 343 482 343 482 334 424 c 0,24,25
 324 358 324 358 279 322 c 128,-1,26
 234 286 234 286 163 286 c 0,27,0
 94 286 94 286 44 316 c 1,1,-1
626 730 m 1,28,-1
 702 730 l 1,29,-1
 187 0 l 1,30,-1
 112 0 l 1,31,-1
 626 730 l 1,28,-1
377 87 m 1,32,-1
 388 154 l 1,33,-1
 636 438 l 1,34,-1
 704 438 l 1,35,-1
 659 154 l 1,36,-1
 719 154 l 1,37,-1
 709 87 l 1,38,-1
 649 87 l 1,39,-1
 635 0 l 1,40,-1
 564 0 l 1,41,-1
 577 87 l 1,42,-1
 377 87 l 1,32,-1
620 335 m 1,43,-1
 618 335 l 1,44,-1
 459 153 l 1,45,-1
 459 151 l 1,46,-1
 590 151 l 1,47,-1
 620 335 l 1,43,-1
EndSplineSet
Ligature2: "'frac' Diagonal Fractions in Latin lookup 7 subtable" three slash four
EndChar

StartChar: period
Encoding: 46 46 436
Width: 274
Flags: W
LayerCount: 2
Fore
SplineSet
57 107 m 1,0,-1
 161 107 l 1,1,-1
 144 0 l 1,2,-1
 41 0 l 1,3,-1
 57 107 l 1,0,-1
EndSplineSet
EndChar

StartChar: comma
Encoding: 44 44 437
Width: 241
Flags: W
LayerCount: 2
Fore
SplineSet
82 130 m 1,0,-1
 175 130 l 1,1,-1
 26 -170 l 1,2,-1
 -46 -170 l 1,3,-1
 82 130 l 1,0,-1
EndSplineSet
EndChar

StartChar: colon
Encoding: 58 58 438
Width: 274
Flags: W
LayerCount: 2
Fore
SplineSet
123 520 m 1,0,-1
 227 520 l 1,1,-1
 210 413 l 1,2,-1
 106 413 l 1,3,-1
 123 520 l 1,0,-1
57 107 m 1,4,-1
 161 107 l 1,5,-1
 144 0 l 1,6,-1
 41 0 l 1,7,-1
 57 107 l 1,4,-1
EndSplineSet
Substitution2: "'fwid' Full Widths in Latin lookup 15 subtable" uniFF1A
Substitution2: "'aalt' Access All Alternates in Latin lookup 0 subtable" uniFF1A
EndChar

StartChar: semicolon
Encoding: 59 59 439
Width: 297
Flags: W
LayerCount: 2
Fore
SplineSet
144 520 m 1,0,-1
 248 520 l 1,1,-1
 231 413 l 1,2,-1
 127 413 l 1,3,-1
 144 520 l 1,0,-1
94 130 m 1,4,-1
 186 130 l 1,5,-1
 28 -170 l 1,6,-1
 -45 -170 l 1,7,-1
 94 130 l 1,4,-1
EndSplineSet
EndChar

StartChar: exclam
Encoding: 33 33 441
Width: 274
Flags: W
LayerCount: 2
Fore
SplineSet
162 730 m 1,0,-1
 254 730 l 1,1,-1
 162 207 l 1,2,-1
 89 207 l 1,3,-1
 162 730 l 1,0,-1
57 107 m 1,4,-1
 161 107 l 1,5,-1
 144 0 l 1,6,-1
 41 0 l 1,7,-1
 57 107 l 1,4,-1
EndSplineSet
Substitution2: "'fwid' Full Widths in Latin lookup 15 subtable" uniFF01
Substitution2: "'aalt' Access All Alternates in Latin lookup 0 subtable" uniFF01
EndChar

StartChar: exclamdown
Encoding: 161 161 442
Width: 274
Flags: W
LayerCount: 2
Fore
SplineSet
123 520 m 1,0,-1
 227 520 l 1,1,-1
 210 413 l 1,2,-1
 106 413 l 1,3,-1
 123 520 l 1,0,-1
106 313 m 1,4,-1
 178 313 l 1,5,-1
 105 -210 l 1,6,-1
 13 -210 l 1,7,-1
 106 313 l 1,4,-1
EndSplineSet
EndChar

StartChar: question
Encoding: 63 63 443
Width: 539
Flags: W
LayerCount: 2
Fore
SplineSet
215.5 322.5 m 128,-1,1
 255 371 255 371 343 427 c 0,2,3
 408 467 408 467 438.5 500 c 128,-1,4
 469 533 469 533 474 570 c 0,5,6
 482 620 482 620 443.5 643.5 c 128,-1,7
 405 667 405 667 316 667 c 0,8,9
 213 667 213 667 100 631 c 1,10,-1
 94 703 l 1,11,12
 211 740 211 740 338 740 c 0,13,14
 461 740 461 740 515.5 700.5 c 128,-1,15
 570 661 570 661 557 580 c 0,16,17
 548 525 548 525 511 481 c 128,-1,18
 474 437 474 437 397 389 c 0,19,20
 322 342 322 342 287.5 301.5 c 128,-1,21
 253 261 253 261 243 207 c 1,22,-1
 165 207 l 1,23,0
 176 274 176 274 215.5 322.5 c 128,-1,1
136 107 m 1,24,-1
 240 107 l 1,25,-1
 223 0 l 1,26,-1
 119 0 l 1,27,-1
 136 107 l 1,24,-1
EndSplineSet
Substitution2: "'fwid' Full Widths in Latin lookup 15 subtable" uniFF1F
Substitution2: "'aalt' Access All Alternates in Latin lookup 0 subtable" uniFF1F
EndChar

StartChar: questiondown
Encoding: 191 191 444
Width: 539
Flags: W
LayerCount: 2
Fore
SplineSet
292 413 m 1,0,-1
 309 520 l 1,1,-1
 413 520 l 1,2,-1
 396 413 l 1,3,-1
 292 413 l 1,0,-1
316.5 197.5 m 128,-1,5
 277 149 277 149 189 93 c 0,6,7
 125 52 125 52 94.5 19.5 c 128,-1,8
 64 -13 64 -13 59 -50 c 0,9,10
 51 -100 51 -100 88.5 -123.5 c 128,-1,11
 126 -147 126 -147 216 -147 c 0,12,13
 319 -147 319 -147 432 -111 c 1,14,-1
 438 -183 l 1,15,16
 321 -220 321 -220 194 -220 c 0,17,18
 71 -220 71 -220 16.5 -180.5 c 128,-1,19
 -38 -141 -38 -141 -25 -60 c 0,20,21
 -16 -5 -16 -5 21 39 c 128,-1,22
 58 83 58 83 136 131 c 0,23,24
 211 177 211 177 245 218 c 128,-1,25
 279 259 279 259 288 313 c 1,26,-1
 367 313 l 1,27,4
 356 246 356 246 316.5 197.5 c 128,-1,5
EndSplineSet
EndChar

StartChar: bullet
Encoding: 8226 8226 446
Width: 286
Flags: W
LayerCount: 2
Fore
SplineSet
82.5 235.5 m 128,-1,1
 64 258 64 258 69 290 c 256,2,3
 74 322 74 322 99.5 344.5 c 128,-1,4
 125 367 125 367 157 367 c 256,5,6
 188 367 188 367 206.5 344.5 c 128,-1,7
 225 322 225 322 220 290 c 0,8,9
 215 259 215 259 189.5 236 c 128,-1,10
 164 213 164 213 132 213 c 256,11,0
 101 213 101 213 82.5 235.5 c 128,-1,1
EndSplineSet
EndChar

StartChar: asterisk
Encoding: 42 42 447
Width: 492
Flags: W
LayerCount: 2
Fore
SplineSet
107 379 m 1,0,-1
 231 520 l 1,1,-1
 76 571 l 1,2,-1
 107 637 l 1,3,-1
 261 583 l 1,4,-1
 287 756 l 1,5,-1
 355 756 l 1,6,-1
 325 583 l 1,7,-1
 495 637 l 1,8,-1
 507 571 l 1,9,-1
 335 520 l 1,10,-1
 414 379 l 1,11,-1
 353 339 l 1,12,-1
 277 481 l 1,13,-1
 156 339 l 1,14,-1
 107 379 l 1,0,-1
EndSplineSet
EndChar

StartChar: numbersign
Encoding: 35 35 448
Width: 645
Flags: W
LayerCount: 2
Fore
SplineSet
639 488 m 1,0,-1
 522 488 l 1,1,-1
 448 262 l 1,2,-1
 551 262 l 1,3,-1
 540 192 l 1,4,-1
 423 192 l 1,5,-1
 361 0 l 1,6,-1
 288 0 l 1,7,-1
 352 192 l 1,8,-1
 202 192 l 1,9,-1
 138 0 l 1,10,-1
 66 0 l 1,11,-1
 129 192 l 1,12,-1
 25 192 l 1,13,-1
 36 262 l 1,14,-1
 153 262 l 1,15,-1
 227 488 l 1,16,-1
 123 488 l 1,17,-1
 134 558 l 1,18,-1
 251 558 l 1,19,-1
 308 730 l 1,20,-1
 380 730 l 1,21,-1
 324 558 l 1,22,-1
 474 558 l 1,23,-1
 530 730 l 1,24,-1
 603 730 l 1,25,-1
 546 558 l 1,26,-1
 650 558 l 1,27,-1
 639 488 l 1,0,-1
376 262 m 1,28,-1
 450 488 l 1,29,-1
 300 488 l 1,30,-1
 226 262 l 1,31,-1
 376 262 l 1,28,-1
EndSplineSet
EndChar

StartChar: slash
Encoding: 47 47 449
Width: 443
Flags: W
LayerCount: 2
Fore
SplineSet
425 750 m 1,0,-1
 504 750 l 1,1,-1
 42 -40 l 1,2,-1
 -39 -40 l 1,3,-1
 425 750 l 1,0,-1
EndSplineSet
EndChar

StartChar: backslash
Encoding: 92 92 450
Width: 443
Flags: W
LayerCount: 2
Fore
SplineSet
379 -40 m 1,0,-1
 300 -40 l 1,1,-1
 87 750 l 1,2,-1
 167 750 l 1,3,-1
 379 -40 l 1,0,-1
EndSplineSet
EndChar

StartChar: parenleft
Encoding: 40 40 451
Width: 340
Flags: W
LayerCount: 2
Fore
SplineSet
82 95 m 128,-1,1
 65 206 65 206 85 330 c 0,2,3
 125 580 125 580 292 770 c 1,4,-1
 370 770 l 1,5,6
 285 671 285 671 235 563.5 c 128,-1,7
 185 456 185 456 165 330 c 256,8,9
 145 204 145 204 161 96.5 c 128,-1,10
 177 -11 177 -11 231 -110 c 1,11,-1
 153 -110 l 1,12,0
 99 -16 99 -16 82 95 c 128,-1,1
EndSplineSet
Substitution2: "'fwid' Full Widths in Latin lookup 15 subtable" uniFF08
Substitution2: "'aalt' Access All Alternates in Latin lookup 0 subtable" uniFF08
EndChar

StartChar: parenright
Encoding: 41 41 452
Width: 340
Flags: W
LayerCount: 2
Fore
SplineSet
-15 -110 m 1,0,1
 70 -11 70 -11 120 96.5 c 128,-1,2
 170 204 170 204 190 330 c 256,3,4
 210 456 210 456 194 563.5 c 128,-1,5
 178 671 178 671 124 770 c 1,6,-1
 202 770 l 1,7,8
 310 580 310 580 270 330 c 0,9,10
 250 206 250 206 198 95 c 128,-1,11
 146 -16 146 -16 62 -110 c 1,12,-1
 -15 -110 l 1,0,1
EndSplineSet
Substitution2: "'fwid' Full Widths in Latin lookup 15 subtable" uniFF09
Substitution2: "'aalt' Access All Alternates in Latin lookup 0 subtable" uniFF09
EndChar

StartChar: braceleft
Encoding: 123 123 453
Width: 458
Flags: W
CounterMasks: 1 e0
LayerCount: 2
Fore
SplineSet
153.5 -74.5 m 128,-1,1
 127 -39 127 -39 140 40 c 2,2,-1
 160 170 l 2,3,4
 170 230 170 230 154 261.5 c 128,-1,5
 138 293 138 293 98 293 c 2,6,-1
 52 293 l 1,7,-1
 64 367 l 1,8,-1
 110 367 l 2,9,10
 149 367 149 367 175 398.5 c 128,-1,11
 201 430 201 430 211 490 c 2,12,-1
 232 620 l 2,13,14
 245 699 245 699 282 734.5 c 128,-1,15
 319 770 319 770 390 770 c 2,16,-1
 485 770 l 1,17,-1
 474 700 l 1,18,-1
 415 700 l 2,19,20
 377 700 377 700 355 690.5 c 128,-1,21
 333 681 333 681 321 657.5 c 128,-1,22
 309 634 309 634 302 590 c 2,23,-1
 285 482 l 2,24,25
 276 423 276 423 250.5 386 c 128,-1,26
 225 349 225 349 182 331 c 1,27,-1
 182 329 l 1,28,29
 219 311 219 311 232.5 274 c 128,-1,30
 246 237 246 237 237 178 c 2,31,-1
 220 70 l 2,32,33
 213 26 213 26 217.5 2.5 c 128,-1,34
 222 -21 222 -21 240.5 -30.5 c 128,-1,35
 259 -40 259 -40 298 -40 c 2,36,-1
 356 -40 l 1,37,-1
 345 -110 l 1,38,-1
 250 -110 l 2,39,0
 180 -110 180 -110 153.5 -74.5 c 128,-1,1
EndSplineSet
EndChar

StartChar: braceright
Encoding: 125 125 454
Width: 458
Flags: W
CounterMasks: 1 e0
LayerCount: 2
Fore
SplineSet
-11 -110 m 1,0,-1
 1 -40 l 1,1,-1
 59 -40 l 2,2,3
 97 -40 97 -40 118.5 -30.5 c 128,-1,4
 140 -21 140 -21 152 2.5 c 128,-1,5
 164 26 164 26 171 70 c 2,6,-1
 188 178 l 2,7,8
 197 237 197 237 222.5 274 c 128,-1,9
 248 311 248 311 291 329 c 1,10,-1
 292 331 l 1,11,12
 255 349 255 349 241 386 c 128,-1,13
 227 423 227 423 236 482 c 2,14,-1
 253 590 l 2,15,16
 260 634 260 634 255.5 657.5 c 128,-1,17
 251 681 251 681 233 690.5 c 128,-1,18
 215 700 215 700 177 700 c 2,19,-1
 118 700 l 1,20,-1
 129 770 l 1,21,-1
 223 770 l 2,22,23
 294 770 294 770 320 734.5 c 128,-1,24
 346 699 346 699 333 620 c 2,25,-1
 313 490 l 2,26,27
 303 430 303 430 319 398.5 c 128,-1,28
 335 367 335 367 375 367 c 2,29,-1
 421 367 l 1,30,-1
 409 293 l 1,31,-1
 363 293 l 2,32,33
 324 293 324 293 298 261.5 c 128,-1,34
 272 230 272 230 262 170 c 2,35,-1
 242 40 l 2,36,37
 229 -39 229 -39 191.5 -74.5 c 128,-1,38
 154 -110 154 -110 84 -110 c 2,39,-1
 -11 -110 l 1,0,-1
EndSplineSet
EndChar

StartChar: bracketleft
Encoding: 91 91 455
Width: 395
Flags: W
LayerCount: 2
Fore
SplineSet
162 770 m 1,0,-1
 430 770 l 1,1,-1
 419 700 l 1,2,-1
 226 700 l 1,3,-1
 109 -40 l 1,4,-1
 302 -40 l 1,5,-1
 291 -110 l 1,6,-1
 23 -110 l 1,7,-1
 162 770 l 1,0,-1
EndSplineSet
EndChar

StartChar: bracketright
Encoding: 93 93 456
Width: 395
Flags: W
LayerCount: 2
Fore
SplineSet
248 -110 m 1,0,-1
 -20 -110 l 1,1,-1
 -9 -40 l 1,2,-1
 184 -40 l 1,3,-1
 302 700 l 1,4,-1
 109 700 l 1,5,-1
 120 770 l 1,6,-1
 387 770 l 1,7,-1
 248 -110 l 1,0,-1
EndSplineSet
EndChar

StartChar: hyphen
Encoding: 45 45 457
Width: 392
Flags: W
LayerCount: 2
Fore
SplineSet
58 327 m 1,0,-1
 349 327 l 1,1,-1
 337 253 l 1,2,-1
 46 253 l 1,3,-1
 58 327 l 1,0,-1
EndSplineSet
EndChar

StartChar: endash
Encoding: 8211 8211 459
Width: 490
Flags: W
LayerCount: 2
Fore
SplineSet
7 327 m 1,0,-1
 497 327 l 1,1,-1
 485 253 l 1,2,-1
 -5 253 l 1,3,-1
 7 327 l 1,0,-1
EndSplineSet
EndChar

StartChar: emdash
Encoding: 8212 8212 460
Width: 980
Flags: W
LayerCount: 2
Fore
SplineSet
7 327 m 1,0,-1
 987 327 l 1,1,-1
 975 253 l 1,2,-1
 -5 253 l 1,3,-1
 7 327 l 1,0,-1
EndSplineSet
EndChar

StartChar: uni2015
Encoding: 8213 8213 461
Width: 973
Flags: W
LayerCount: 2
Fore
SplineSet
63 397 m 1,0,-1
 945 397 l 1,1,-1
 934 323 l 1,2,-1
 52 323 l 1,3,-1
 63 397 l 1,0,-1
EndSplineSet
EndChar

StartChar: underscore
Encoding: 95 95 462
Width: 575
Flags: W
LayerCount: 2
Fore
SplineSet
-58 -83 m 1,0,-1
 517 -83 l 1,1,-1
 507 -147 l 1,2,-1
 -68 -147 l 1,3,-1
 -58 -83 l 1,0,-1
EndSplineSet
EndChar

StartChar: quoteleft
Encoding: 8216 8216 467
Width: 245
Flags: W
LayerCount: 2
Fore
SplineSet
151 470 m 1,0,-1
 59 470 l 1,1,-1
 217 770 l 1,2,-1
 289 770 l 1,3,-1
 151 470 l 1,0,-1
EndSplineSet
EndChar

StartChar: quoteright
Encoding: 8217 8217 468
Width: 245
Flags: W
LayerCount: 2
Fore
SplineSet
207 770 m 1,0,-1
 299 770 l 1,1,-1
 141 470 l 1,2,-1
 69 470 l 1,3,-1
 207 770 l 1,0,-1
EndSplineSet
EndChar

StartChar: guillemotleft
Encoding: 171 171 469
Width: 452
Flags: W
LayerCount: 2
Fore
SplineSet
12 290 m 1,0,-1
 201 520 l 1,1,-1
 276 520 l 1,2,-1
 84 290 l 1,3,-1
 203 60 l 1,4,-1
 128 60 l 1,5,-1
 12 290 l 1,0,-1
192 290 m 1,6,-1
 381 520 l 1,7,-1
 455 520 l 1,8,-1
 264 290 l 1,9,-1
 382 60 l 1,10,-1
 308 60 l 1,11,-1
 192 290 l 1,6,-1
EndSplineSet
EndChar

StartChar: guillemotright
Encoding: 187 187 470
Width: 452
Flags: W
LayerCount: 2
Fore
SplineSet
73 60 m 1,0,-1
 -1 60 l 1,1,-1
 189 290 l 1,2,-1
 72 520 l 1,3,-1
 145 520 l 1,4,-1
 262 290 l 1,5,-1
 73 60 l 1,0,-1
253 60 m 1,6,-1
 178 60 l 1,7,-1
 370 290 l 1,8,-1
 251 520 l 1,9,-1
 326 520 l 1,10,-1
 442 290 l 1,11,-1
 253 60 l 1,6,-1
EndSplineSet
EndChar

StartChar: guilsinglleft
Encoding: 8249 8249 471
Width: 275
Flags: W
LayerCount: 2
Fore
SplineSet
12 290 m 1,0,-1
 203 520 l 1,1,-1
 279 520 l 1,2,-1
 85 290 l 1,3,-1
 206 60 l 1,4,-1
 130 60 l 1,5,-1
 12 290 l 1,0,-1
EndSplineSet
EndChar

StartChar: guilsinglright
Encoding: 8250 8250 472
Width: 275
Flags: W
LayerCount: 2
Fore
SplineSet
74 60 m 1,0,-1
 -1 60 l 1,1,-1
 192 290 l 1,2,-1
 72 520 l 1,3,-1
 146 520 l 1,4,-1
 265 290 l 1,5,-1
 74 60 l 1,0,-1
EndSplineSet
EndChar

StartChar: quotedbl
Encoding: 34 34 473
Width: 439
Flags: W
LayerCount: 2
Fore
SplineSet
154 770 m 1,0,-1
 243 770 l 1,1,-1
 186 470 l 1,2,-1
 116 470 l 1,3,-1
 154 770 l 1,0,-1
351 770 m 1,4,-1
 440 770 l 1,5,-1
 383 470 l 1,6,-1
 314 470 l 1,7,-1
 351 770 l 1,4,-1
EndSplineSet
EndChar

StartChar: quotesingle
Encoding: 39 39 474
Width: 245
Flags: W
LayerCount: 2
Fore
SplineSet
154 770 m 1,0,-1
 245 770 l 1,1,-1
 188 470 l 1,2,-1
 117 470 l 1,3,-1
 154 770 l 1,0,-1
EndSplineSet
EndChar

StartChar: uni20B5
Encoding: 8373 8373 476
Width: 684
Flags: W
LayerCount: 2
Fore
SplineSet
602 56 m 1,0,1
 506 -1 506 -1 390 -9 c 1,2,-1
 374 -105 l 1,3,-1
 306 -105 l 1,4,-1
 321 -9 l 1,5,6
 221 -2 221 -2 154 45 c 128,-1,7
 87 92 87 92 60.5 174 c 128,-1,8
 34 256 34 256 51 365 c 256,9,10
 68 474 68 474 121 556 c 128,-1,11
 174 638 174 638 255.5 685 c 128,-1,12
 337 732 337 732 440 739 c 1,13,-1
 455 835 l 1,14,-1
 523 835 l 1,15,-1
 508 739 l 1,16,17
 621 731 621 731 700 674 c 1,18,-1
 656 609 l 1,19,20
 585 659 585 659 497 666 c 1,21,-1
 401 64 l 1,22,23
 491 71 491 71 579 121 c 1,24,-1
 602 56 l 1,0,1
162.5 155.5 m 128,-1,26
 217 76 217 76 333 65 c 1,27,-1
 428 665 l 1,28,29
 309 654 309 654 229 574.5 c 128,-1,30
 149 495 149 495 128 365 c 256,31,25
 108 235 108 235 162.5 155.5 c 128,-1,26
EndSplineSet
EndChar

StartChar: cent
Encoding: 162 162 477
Width: 521
Flags: W
LayerCount: 2
Fore
SplineSet
422 27 m 1,0,1
 363 -2 363 -2 293 -8 c 1,2,-1
 278 -105 l 1,3,-1
 219 -105 l 1,4,-1
 234 -9 l 1,5,6
 118 -3 118 -3 65 68 c 128,-1,7
 12 139 12 139 31 260 c 256,8,9
 50 381 50 381 126 452 c 128,-1,10
 202 523 202 523 319 529 c 1,11,-1
 335 625 l 1,12,-1
 393 625 l 1,13,-1
 378 528 l 1,14,15
 446 522 446 522 496 493 c 1,16,-1
 466 430 l 1,17,18
 420 455 420 455 367 461 c 1,19,-1
 304 59 l 1,20,21
 359 65 359 65 412 90 c 1,22,-1
 422 27 l 1,0,1
128.5 117.5 m 128,-1,24
 165 65 165 65 245 58 c 1,25,-1
 309 462 l 1,26,27
 227 455 227 455 173.5 402.5 c 128,-1,28
 120 350 120 350 106 260 c 256,29,23
 92 170 92 170 128.5 117.5 c 128,-1,24
EndSplineSet
EndChar

StartChar: colonmonetary
Encoding: 8353 8353 478
Width: 684
Flags: W
LayerCount: 2
Fore
SplineSet
602 56 m 1,0,1
 522 8 522 8 422 -6 c 1,2,-1
 398 -105 l 1,3,-1
 332 -105 l 1,4,-1
 355 -10 l 1,5,6
 304 -10 304 -10 257 1 c 1,7,-1
 231 -105 l 1,8,-1
 166 -105 l 1,9,-1
 196 21 l 1,10,11
 106 62 106 62 68.5 150.5 c 128,-1,12
 31 239 31 239 51 365 c 0,13,14
 74 509 74 509 157.5 604 c 128,-1,15
 241 699 241 699 367 728 c 1,16,-1
 393 835 l 1,17,-1
 459 835 l 1,18,-1
 436 739 l 1,19,20
 449 740 449 740 474 740 c 0,21,22
 509 740 509 740 536 736 c 1,23,-1
 560 835 l 1,24,-1
 625 835 l 1,25,-1
 598 723 l 1,26,27
 656 706 656 706 700 674 c 1,28,-1
 656 609 l 1,29,30
 617 636 617 636 580 648 c 1,31,-1
 440 69 l 1,32,33
 510 82 510 82 579 121 c 1,34,-1
 602 56 l 1,0,1
373 63 m 1,35,-1
 518 663 l 1,36,37
 495 667 495 667 463 667 c 0,38,39
 439 667 439 667 417 664 c 1,40,-1
 275 76 l 1,41,42
 315 63 315 63 368 63 c 2,43,-1
 373 63 l 1,35,-1
136.5 207 m 128,-1,45
 159 140 159 140 216 103 c 1,46,-1
 348 649 l 1,47,48
 260 619 260 619 202.5 545 c 128,-1,49
 145 471 145 471 128 365 c 0,50,44
 114 274 114 274 136.5 207 c 128,-1,45
EndSplineSet
EndChar

StartChar: currency
Encoding: 164 164 479
Width: 667
Flags: W
LayerCount: 2
Fore
SplineSet
507 228 m 1,1,-1
 583 135 l 1,2,-1
 526 85 l 1,3,-1
 450 178 l 1,4,5
 383 135 383 135 311 135 c 0,6,7
 237 135 237 135 185 179 c 1,8,-1
 78 85 l 1,9,-1
 36 135 l 1,10,-1
 144 230 l 1,11,12
 110 290 110 290 122 365 c 0,13,14
 134 438 134 438 185 499 c 1,15,-1
 108 594 l 1,16,-1
 166 644 l 1,17,-1
 242 550 l 1,18,19
 309 595 309 595 384 595 c 0,20,21
 458 595 458 595 509 551 c 1,22,-1
 615 645 l 1,23,-1
 657 594 l 1,24,-1
 551 501 l 1,25,26
 585 441 585 441 573 365 c 0,27,0
 561 291 561 291 507 228 c 1,1,-1
402.5 229.5 m 128,-1,29
 441 251 441 251 468 287 c 128,-1,30
 495 323 495 323 501 365 c 256,31,32
 508 407 508 407 492.5 443 c 128,-1,33
 477 479 477 479 445 500.5 c 128,-1,34
 413 522 413 522 372 522 c 256,35,36
 331 522 331 522 292.5 501 c 128,-1,37
 254 480 254 480 227.5 444 c 128,-1,38
 201 408 201 408 194 365 c 0,39,40
 187 323 187 323 202.5 287 c 128,-1,41
 218 251 218 251 249.5 229.5 c 128,-1,42
 281 208 281 208 322 208 c 256,43,28
 364 208 364 208 402.5 229.5 c 128,-1,29
EndSplineSet
EndChar

StartChar: dollar
Encoding: 36 36 480
Width: 610
Flags: W
LayerCount: 2
Fore
SplineSet
464.5 52.5 m 128,-1,1
 399 0 399 0 294 -8 c 1,2,-1
 278 -105 l 1,3,-1
 210 -105 l 1,4,-1
 225 -9 l 1,5,6
 163 -5 163 -5 109 13 c 128,-1,7
 55 31 55 31 17 61 c 1,8,-1
 51 132 l 1,9,10
 88 103 88 103 135.5 85.5 c 128,-1,11
 183 68 183 68 237 64 c 1,12,-1
 282 353 l 1,13,14
 176 395 176 395 135 443 c 128,-1,15
 94 491 94 491 106 562 c 0,16,17
 119 641 119 641 179.5 686 c 128,-1,18
 240 731 240 731 343 739 c 1,19,-1
 359 835 l 1,20,-1
 427 835 l 1,21,-1
 412 739 l 1,22,23
 532 733 532 733 610 683 c 1,24,-1
 580 612 l 1,25,26
 495 662 495 662 400 666 c 1,27,-1
 360 413 l 1,28,29
 436 383 436 383 478.5 351.5 c 128,-1,30
 521 320 521 320 536.5 281.5 c 128,-1,31
 552 243 552 243 544 192 c 0,32,0
 530 105 530 105 464.5 52.5 c 128,-1,1
206 493.5 m 128,-1,34
 230 465 230 465 296 438 c 1,35,-1
 332 665 l 1,36,37
 203 653 203 653 188 562 c 0,38,33
 182 522 182 522 206 493.5 c 128,-1,34
415.5 104.5 m 128,-1,40
 457 137 457 137 465 190 c 0,41,42
 472 237 472 237 445.5 268.5 c 128,-1,43
 419 300 419 300 347 329 c 1,44,-1
 305 65 l 1,45,39
 374 72 374 72 415.5 104.5 c 128,-1,40
EndSplineSet
EndChar

StartChar: dong
Encoding: 8363 8363 481
Width: 676
Flags: W
LayerCount: 2
Fore
SplineSet
685 680 m 1,0,-1
 675 620 l 1,1,-1
 564 620 l 1,2,-1
 490 150 l 1,3,-1
 415 150 l 1,4,-1
 424 208 l 1,5,-1
 422 208 l 1,6,7
 392 177 392 177 341.5 159.5 c 128,-1,8
 291 142 291 142 236 142 c 0,9,10
 141 142 141 142 97 199 c 128,-1,11
 53 256 53 256 69 358 c 256,12,13
 85 460 85 460 147 517 c 128,-1,14
 209 574 209 574 304 574 c 0,15,16
 359 574 359 574 403 556.5 c 128,-1,17
 447 539 447 539 467 508 c 1,18,-1
 469 508 l 1,19,-1
 487 620 l 1,20,-1
 263 620 l 1,21,-1
 273 680 l 1,22,-1
 496 680 l 1,23,-1
 507 750 l 1,24,-1
 585 750 l 1,25,-1
 574 680 l 1,26,-1
 685 680 l 1,0,-1
347.5 221 m 128,-1,28
 386 239 386 239 411 270 c 0,29,30
 437 301 437 301 443 340 c 2,31,-1
 448 376 l 2,32,33
 454 415 454 415 439 446.5 c 128,-1,34
 424 478 424 478 391.5 495.5 c 128,-1,35
 359 513 359 513 315 513 c 0,36,37
 248 513 248 513 203 471.5 c 128,-1,38
 158 430 158 430 146 358 c 256,39,40
 135 286 135 286 167 244.5 c 128,-1,41
 199 203 199 203 266 203 c 0,42,27
 309 203 309 203 347.5 221 c 128,-1,28
17 0 m 1,43,-1
 27 60 l 1,44,-1
 586 60 l 1,45,-1
 577 0 l 1,46,-1
 17 0 l 1,43,-1
EndSplineSet
EndChar

StartChar: Euro
Encoding: 8364 8364 482
Width: 758
GlyphClass: 2
Flags: W
AnchorPoint: "Anchor-1" 427 730 basechar 0
AnchorPoint: "Anchor-0" 427 0 basechar 0
LayerCount: 2
Fore
SplineSet
653 121 m 1,1,-1
 676 56 l 1,2,3
 569 -10 569 -10 436 -10 c 0,4,5
 302 -10 302 -10 224 57.5 c 128,-1,6
 146 125 146 125 136 247 c 1,7,-1
 25 247 l 1,8,-1
 36 313 l 1,9,-1
 135 313 l 1,10,11
 138 347 138 347 142 365 c 256,12,13
 145 383 145 383 152 417 c 1,14,-1
 52 417 l 1,15,-1
 62 483 l 1,16,-1
 174 483 l 1,17,18
 222 605 222 605 322 672.5 c 128,-1,19
 422 740 422 740 555 740 c 0,20,21
 687 740 687 740 774 674 c 1,22,-1
 730 609 l 1,23,24
 651 667 651 667 546 667 c 0,25,26
 449 667 449 667 374 618.5 c 128,-1,27
 299 570 299 570 257 483 c 1,28,-1
 650 483 l 1,29,-1
 640 417 l 1,30,-1
 233 417 l 1,31,32
 226 392 226 392 222 365 c 0,33,34
 218 339 218 339 217 313 c 1,35,-1
 624 313 l 1,36,-1
 613 247 l 1,37,-1
 220 247 l 1,38,39
 234 160 234 160 294 111.5 c 128,-1,40
 354 63 354 63 451 63 c 0,41,0
 556 63 556 63 653 121 c 1,1,-1
EndSplineSet
EndChar

StartChar: florin
Encoding: 402 402 483
Width: 446
Flags: W
LayerCount: 2
Fore
SplineSet
-41 -105 m 1,1,-1
 -18 -40 l 1,2,3
 14 -53 14 -53 51 -53 c 0,4,5
 96 -53 96 -53 117.5 -29 c 128,-1,6
 139 -5 139 -5 149 53 c 2,7,-1
 194 341 l 1,8,-1
 58 341 l 1,9,-1
 69 407 l 1,10,-1
 205 407 l 1,11,-1
 230 567 l 2,12,13
 257 740 257 740 403 740 c 0,14,15
 451 740 451 740 496 725 c 1,16,-1
 472 660 l 1,17,18
 440 673 440 673 404 673 c 0,19,20
 359 673 359 673 336.5 649 c 128,-1,21
 314 625 314 625 305 567 c 2,22,-1
 280 407 l 1,23,-1
 441 407 l 1,24,-1
 431 341 l 1,25,-1
 269 341 l 1,26,-1
 224 53 l 2,27,28
 210 -34 210 -34 167.5 -77 c 128,-1,29
 125 -120 125 -120 51 -120 c 0,30,0
 4 -120 4 -120 -41 -105 c 1,1,-1
EndSplineSet
EndChar

StartChar: franc
Encoding: 8355 8355 484
Width: 612
Flags: W
LayerCount: 2
Fore
SplineSet
625 657 m 1,0,-1
 269 657 l 1,1,-1
 233 433 l 1,2,-1
 570 433 l 1,3,-1
 558 361 l 1,4,-1
 222 361 l 1,5,-1
 193 178 l 1,6,-1
 446 178 l 1,7,-1
 435 112 l 1,8,-1
 183 112 l 1,9,-1
 165 0 l 1,10,-1
 86 0 l 1,11,-1
 104 112 l 1,12,-1
 -3 112 l 1,13,-1
 8 178 l 1,14,-1
 115 178 l 1,15,-1
 202 730 l 1,16,-1
 636 730 l 1,17,-1
 625 657 l 1,0,-1
EndSplineSet
EndChar

StartChar: uni20B2
Encoding: 8370 8370 485
Width: 767
Flags: W
LayerCount: 2
Fore
SplineSet
723 418 m 1,0,-1
 664 46 l 1,1,2
 606 20 606 20 531 5 c 128,-1,3
 456 -10 456 -10 384 -10 c 2,4,-1
 365 -10 l 1,5,-1
 350 -105 l 1,6,-1
 281 -105 l 1,7,-1
 297 -4 l 1,8,9
 156 19 156 19 91.5 115 c 128,-1,10
 27 211 27 211 51 365 c 256,11,12
 75 519 75 519 170.5 615 c 128,-1,13
 266 711 266 711 414 734 c 1,14,-1
 430 835 l 1,15,-1
 499 835 l 1,16,-1
 484 740 l 1,17,-1
 502 740 l 2,18,19
 646 740 646 740 738 678 c 1,20,-1
 696 615 l 1,21,22
 611 668 611 668 489 668 c 2,23,-1
 472 668 l 1,24,-1
 433 418 l 1,25,-1
 723 418 l 1,0,-1
156 167 m 128,-1,27
 203 91 203 91 309 70 c 1,28,-1
 403 660 l 1,29,30
 290 639 290 639 219 563 c 128,-1,31
 148 487 148 487 128 365 c 256,32,26
 109 243 109 243 156 167 c 128,-1,27
497 71 m 128,-1,34
 550 80 550 80 594 97 c 1,35,-1
 633 348 l 1,36,-1
 422 348 l 1,37,-1
 376 62 l 1,38,-1
 393 62 l 2,39,33
 444 62 444 62 497 71 c 128,-1,34
EndSplineSet
EndChar

StartChar: uni20AD
Encoding: 8365 8365 486
Width: 712
GlyphClass: 2
Flags: W
AnchorPoint: "Anchor-1" 306 730 basechar 0
AnchorPoint: "Anchor-0" 306 0 basechar 0
LayerCount: 2
Fore
SplineSet
672 420 m 1,0,-1
 662 353 l 1,1,-1
 326 353 l 1,2,-1
 606 0 l 1,3,-1
 507 0 l 1,4,-1
 229 353 l 1,5,-1
 221 353 l 1,6,-1
 165 0 l 1,7,-1
 86 0 l 1,8,-1
 142 353 l 1,9,-1
 35 353 l 1,10,-1
 46 420 l 1,11,-1
 153 420 l 1,12,-1
 202 730 l 1,13,-1
 280 730 l 1,14,-1
 231 420 l 1,15,-1
 238 420 l 1,16,-1
 612 730 l 1,17,-1
 712 730 l 1,18,-1
 338 420 l 1,19,-1
 672 420 l 1,0,-1
EndSplineSet
EndChar

StartChar: lira
Encoding: 8356 8356 487
Width: 635
Flags: W
LayerCount: 2
Fore
SplineSet
542 72 m 1,0,-1
 531 0 l 1,1,-1
 41 0 l 1,2,-1
 52 72 l 1,3,4
 99 75 99 75 137 120.5 c 128,-1,5
 175 166 175 166 186 238 c 2,6,-1
 191 267 l 1,7,-1
 83 267 l 1,8,-1
 93 334 l 1,9,-1
 201 334 l 1,10,-1
 218 437 l 1,11,-1
 110 437 l 1,12,-1
 120 504 l 1,13,-1
 228 504 l 1,14,-1
 234 540 l 2,15,16
 249 636 249 636 314 688 c 128,-1,17
 379 740 379 740 486 740 c 0,18,19
 555 740 555 740 614 714 c 1,20,-1
 586 644 l 1,21,22
 540 668 540 668 482 668 c 0,23,24
 406 668 406 668 364 633.5 c 128,-1,25
 322 599 322 599 310 528 c 2,26,-1
 307 504 l 1,27,-1
 550 504 l 1,28,-1
 539 437 l 1,29,-1
 296 437 l 1,30,-1
 280 334 l 1,31,-1
 523 334 l 1,32,-1
 512 267 l 1,33,-1
 269 267 l 1,34,-1
 264 238 l 2,35,36
 255 183 255 183 228.5 139.5 c 128,-1,37
 202 96 202 96 164 74 c 1,38,-1
 164 72 l 1,39,-1
 542 72 l 1,0,-1
EndSplineSet
EndChar

StartChar: uni20BA
Encoding: 8378 8378 488
Width: 655
Flags: W
LayerCount: 2
Fore
SplineSet
629 340 m 1,0,1
 610 217 610 217 550.5 140 c 128,-1,2
 491 63 491 63 386.5 26.5 c 128,-1,3
 282 -10 282 -10 123 -10 c 2,4,-1
 84 -10 l 1,5,-1
 142 360 l 1,6,-1
 33 340 l 1,7,-1
 44 407 l 1,8,-1
 153 427 l 1,9,-1
 169 530 l 1,10,-1
 60 510 l 1,11,-1
 71 577 l 1,12,-1
 180 597 l 1,13,-1
 201 730 l 1,14,-1
 281 730 l 1,15,-1
 263 612 l 1,16,-1
 513 657 l 1,17,-1
 502 590 l 1,18,-1
 252 545 l 1,19,-1
 236 442 l 1,20,-1
 486 487 l 1,21,-1
 475 420 l 1,22,-1
 225 375 l 1,23,-1
 176 67 l 1,24,-1
 190 67 l 2,25,26
 361 67 361 67 448 132 c 128,-1,27
 535 197 535 197 558 340 c 1,28,-1
 629 340 l 1,0,1
EndSplineSet
EndChar

StartChar: uni20BC
Encoding: 8380 8380 489
Width: 742
Flags: W
LayerCount: 2
Fore
SplineSet
667 669 m 128,-1,1
 724 598 724 598 702 460 c 2,2,-1
 629 0 l 1,3,-1
 550 0 l 1,4,-1
 622 451 l 2,5,6
 640 562 640 562 602 614.5 c 128,-1,7
 564 667 564 667 467 667 c 1,8,-1
 361 0 l 1,9,-1
 293 0 l 1,10,-1
 398 667 l 1,11,12
 301 667 301 667 246.5 614.5 c 128,-1,13
 192 562 192 562 174 451 c 2,14,-1
 103 0 l 1,15,-1
 24 0 l 1,16,-1
 97 460 l 2,17,18
 119 598 119 598 198.5 669 c 128,-1,19
 278 740 278 740 410 740 c 1,20,-1
 425 835 l 1,21,-1
 494 835 l 1,22,-1
 478 740 l 1,23,0
 610 740 610 740 667 669 c 128,-1,1
EndSplineSet
EndChar

StartChar: uni20A6
Encoding: 8358 8358 490
Width: 801
GlyphClass: 2
Flags: W
AnchorPoint: "Anchor-1" 366 730 basechar 0
AnchorPoint: "Anchor-0" 366 0 basechar 0
LayerCount: 2
Fore
SplineSet
798 417 m 1,0,-1
 691 417 l 1,1,-1
 675 313 l 1,2,-1
 782 313 l 1,3,-1
 771 247 l 1,4,-1
 665 247 l 1,5,-1
 625 0 l 1,6,-1
 536 0 l 1,7,-1
 424 247 l 1,8,-1
 204 247 l 1,9,-1
 165 0 l 1,10,-1
 86 0 l 1,11,-1
 126 247 l 1,12,-1
 19 247 l 1,13,-1
 29 313 l 1,14,-1
 136 313 l 1,15,-1
 152 417 l 1,16,-1
 46 417 l 1,17,-1
 56 483 l 1,18,-1
 163 483 l 1,19,-1
 202 730 l 1,20,-1
 291 730 l 1,21,-1
 403 483 l 1,22,-1
 623 483 l 1,23,-1
 663 730 l 1,24,-1
 741 730 l 1,25,-1
 702 483 l 1,26,-1
 809 483 l 1,27,-1
 798 417 l 1,0,-1
260 603 m 1,28,-1
 241 483 l 1,29,-1
 317 483 l 1,30,-1
 262 603 l 1,31,-1
 260 603 l 1,28,-1
231 417 m 1,32,-1
 214 313 l 1,33,-1
 394 313 l 1,34,-1
 346 417 l 1,35,-1
 231 417 l 1,32,-1
597 313 m 1,36,-1
 613 417 l 1,37,-1
 434 417 l 1,38,-1
 481 313 l 1,39,-1
 597 313 l 1,36,-1
567 127 m 1,40,-1
 586 247 l 1,41,-1
 511 247 l 1,42,-1
 565 127 l 1,43,-1
 567 127 l 1,40,-1
EndSplineSet
EndChar

StartChar: peseta
Encoding: 8359 8359 491
Width: 701
Flags: W
LayerCount: 2
Fore
SplineSet
720 462 m 1,0,-1
 631 462 l 1,1,2
 605 360 605 360 527 311.5 c 128,-1,3
 449 263 449 263 314 263 c 2,4,-1
 206 263 l 1,5,-1
 165 0 l 1,6,-1
 86 0 l 1,7,-1
 160 462 l 1,8,-1
 53 462 l 1,9,-1
 63 529 l 1,10,-1
 170 529 l 1,11,-1
 202 730 l 1,12,-1
 375 730 l 2,13,14
 519 730 519 730 584 681 c 128,-1,15
 649 632 649 632 643 529 c 1,16,-1
 731 529 l 1,17,-1
 720 462 l 1,0,-1
249 529 m 1,18,-1
 562 529 l 1,19,20
 564 597 564 597 517 628.5 c 128,-1,21
 470 660 470 660 367 660 c 2,22,-1
 269 660 l 1,23,-1
 249 529 l 1,18,-1
474.5 362.5 m 128,-1,25
 531 394 531 394 552 462 c 1,26,-1
 238 462 l 1,27,-1
 217 331 l 1,28,-1
 315 331 l 2,29,24
 418 331 418 331 474.5 362.5 c 128,-1,25
EndSplineSet
EndChar

StartChar: uni20B1
Encoding: 8369 8369 492
Width: 701
Flags: W
LayerCount: 2
Fore
SplineSet
734 547 m 1,0,-1
 642 547 l 1,1,2
 643 526 643 526 638 496 c 0,3,4
 633 465 633 465 626 444 c 1,5,-1
 717 444 l 1,6,-1
 707 377 l 1,7,-1
 595 377 l 1,8,9
 556 319 556 319 486.5 291 c 128,-1,10
 417 263 417 263 314 263 c 2,11,-1
 206 263 l 1,12,-1
 165 0 l 1,13,-1
 86 0 l 1,14,-1
 146 377 l 1,15,-1
 39 377 l 1,16,-1
 50 444 l 1,17,-1
 157 444 l 1,18,-1
 173 547 l 1,19,-1
 66 547 l 1,20,-1
 77 614 l 1,21,-1
 184 614 l 1,22,-1
 202 730 l 1,23,-1
 375 730 l 2,24,25
 485 730 485 730 548.5 701.5 c 128,-1,26
 612 673 612 673 632 614 c 1,27,-1
 744 614 l 1,28,-1
 734 547 l 1,0,-1
262 614 m 1,29,-1
 534 614 l 1,30,31
 489 660 489 660 367 660 c 2,32,-1
 269 660 l 1,33,-1
 262 614 l 1,29,-1
562 547 m 1,35,-1
 251 547 l 1,36,-1
 235 444 l 1,37,-1
 545 444 l 1,38,39
 555 468 555 468 559 496 c 0,40,34
 563 522 563 522 562 547 c 1,35,-1
497 377 m 1,42,-1
 225 377 l 1,43,-1
 217 331 l 1,44,-1
 315 331 l 2,45,41
 438 331 438 331 497 377 c 1,42,-1
EndSplineSet
EndChar

StartChar: uni20BD
Encoding: 8381 8381 493
Width: 631
Flags: W
LayerCount: 2
Fore
SplineSet
210 285 m 1,0,-1
 193 181 l 1,1,-1
 446 181 l 1,2,-1
 436 115 l 1,3,-1
 183 115 l 1,4,-1
 165 0 l 1,5,-1
 86 0 l 1,6,-1
 105 115 l 1,7,-1
 -2 115 l 1,8,-1
 8 181 l 1,9,-1
 115 181 l 1,10,-1
 132 285 l 1,11,-1
 25 285 l 1,12,-1
 35 351 l 1,13,-1
 142 351 l 1,14,-1
 202 730 l 1,15,-1
 375 730 l 2,16,17
 529 730 529 730 593.5 675.5 c 128,-1,18
 658 621 658 621 640 505 c 0,19,20
 622 393 622 393 543 339 c 128,-1,21
 464 285 464 285 318 285 c 2,22,-1
 210 285 l 1,0,-1
220 351 m 1,23,-1
 318 351 l 2,24,25
 433 351 433 351 490.5 387.5 c 128,-1,26
 548 424 548 424 560 504 c 256,27,28
 573 584 573 584 527.5 620.5 c 128,-1,29
 482 657 482 657 367 657 c 2,30,-1
 269 657 l 1,31,-1
 220 351 l 1,23,-1
EndSplineSet
EndChar

StartChar: uni20B9
Encoding: 8377 8377 494
Width: 615
Flags: W
LayerCount: 2
Fore
SplineSet
629 663 m 1,0,-1
 483 663 l 1,1,2
 525 626 525 626 523 557 c 1,3,-1
 612 557 l 1,4,-1
 601 490 l 1,5,-1
 512 490 l 1,6,7
 488 408 488 408 420.5 366 c 128,-1,8
 353 324 353 324 235 319 c 1,9,-1
 460 0 l 1,10,-1
 356 0 l 1,11,-1
 132 318 l 1,12,-1
 53 318 l 1,13,-1
 64 390 l 1,14,-1
 211 390 l 2,15,16
 307 390 307 390 360.5 414 c 128,-1,17
 414 438 414 438 432 490 c 1,18,-1
 80 490 l 1,19,-1
 91 557 l 1,20,-1
 442 557 l 1,21,22
 439 609 439 609 393.5 633 c 128,-1,23
 348 657 348 657 253 657 c 2,24,-1
 106 657 l 1,25,-1
 118 730 l 1,26,-1
 639 730 l 1,27,-1
 629 663 l 1,0,-1
EndSplineSet
EndChar

StartChar: sterling
Encoding: 163 163 495
Width: 635
Flags: W
LayerCount: 2
Fore
SplineSet
542 72 m 1,0,-1
 531 0 l 1,1,-1
 41 0 l 1,2,-1
 52 72 l 1,3,4
 99 75 99 75 137 120.5 c 128,-1,5
 175 166 175 166 186 238 c 2,6,-1
 204 352 l 1,7,-1
 96 352 l 1,8,-1
 107 419 l 1,9,-1
 215 419 l 1,10,-1
 234 540 l 2,11,12
 249 636 249 636 314 688 c 128,-1,13
 379 740 379 740 486 740 c 0,14,15
 555 740 555 740 614 714 c 1,16,-1
 586 644 l 1,17,18
 540 668 540 668 482 668 c 0,19,20
 406 668 406 668 364 633.5 c 128,-1,21
 322 599 322 599 310 528 c 2,22,-1
 293 419 l 1,23,-1
 536 419 l 1,24,-1
 526 352 l 1,25,-1
 282 352 l 1,26,-1
 264 238 l 2,27,28
 255 183 255 183 228.5 139.5 c 128,-1,29
 202 96 202 96 164 74 c 1,30,-1
 164 72 l 1,31,-1
 542 72 l 1,0,-1
EndSplineSet
EndChar

StartChar: uni20A9
Encoding: 8361 8361 496
Width: 971
GlyphClass: 2
Flags: W
AnchorPoint: "Anchor-1" 454 730 basechar 0
AnchorPoint: "Anchor-0" 454 0 basechar 0
LayerCount: 2
Fore
SplineSet
967 417 m 1,0,-1
 856 417 l 1,1,-1
 814 313 l 1,2,-1
 950 313 l 1,3,-1
 940 247 l 1,4,-1
 789 247 l 1,5,-1
 691 0 l 1,6,-1
 591 0 l 1,7,-1
 562 247 l 1,8,-1
 400 247 l 1,9,-1
 292 0 l 1,10,-1
 193 0 l 1,11,-1
 174 247 l 1,12,-1
 19 247 l 1,13,-1
 29 313 l 1,14,-1
 169 313 l 1,15,-1
 160 417 l 1,16,-1
 46 417 l 1,17,-1
 56 483 l 1,18,-1
 156 483 l 1,19,-1
 136 730 l 1,20,-1
 217 730 l 1,21,-1
 232 483 l 1,22,-1
 428 483 l 1,23,-1
 492 630 l 1,24,-1
 591 630 l 1,25,-1
 608 483 l 1,26,-1
 805 483 l 1,27,-1
 899 730 l 1,28,-1
 979 730 l 1,29,-1
 881 483 l 1,30,-1
 977 483 l 1,31,-1
 967 417 l 1,0,-1
554 313 m 1,32,-1
 528 536 l 1,33,-1
 526 536 l 1,34,-1
 429 313 l 1,35,-1
 554 313 l 1,32,-1
237 417 m 1,36,-1
 244 313 l 1,37,-1
 355 313 l 1,38,-1
 399 417 l 1,39,-1
 237 417 l 1,36,-1
740 313 m 1,40,-1
 780 417 l 1,41,-1
 616 417 l 1,42,-1
 628 313 l 1,43,-1
 740 313 l 1,40,-1
260 95 m 1,44,-1
 326 247 l 1,45,-1
 248 247 l 1,46,-1
 258 95 l 1,47,-1
 260 95 l 1,44,-1
656 95 m 1,48,-1
 714 247 l 1,49,-1
 636 247 l 1,50,-1
 654 95 l 1,51,-1
 656 95 l 1,48,-1
EndSplineSet
EndChar

StartChar: yen
Encoding: 165 165 497
Width: 629
Flags: W
LayerCount: 2
Fore
SplineSet
692 730 m 1,0,-1
 406 367 l 1,1,-1
 579 367 l 1,2,-1
 568 300 l 1,3,-1
 358 300 l 1,4,-1
 341 197 l 1,5,-1
 552 197 l 1,6,-1
 541 130 l 1,7,-1
 331 130 l 1,8,-1
 310 0 l 1,9,-1
 229 0 l 1,10,-1
 249 130 l 1,11,-1
 39 130 l 1,12,-1
 49 197 l 1,13,-1
 260 197 l 1,14,-1
 276 300 l 1,15,-1
 66 300 l 1,16,-1
 76 367 l 1,17,-1
 250 367 l 1,18,-1
 78 730 l 1,19,-1
 169 730 l 1,20,-1
 330 383 l 1,21,-1
 332 383 l 1,22,-1
 602 730 l 1,23,-1
 692 730 l 1,0,-1
EndSplineSet
EndChar

StartChar: uni2215
Encoding: 8725 8725 499
Width: 418
Flags: W
LayerCount: 2
Fore
SplineSet
396 730 m 1,0,-1
 475 730 l 1,1,-1
 48 0 l 1,2,-1
 -32 0 l 1,3,-1
 396 730 l 1,0,-1
EndSplineSet
EndChar

StartChar: plus
Encoding: 43 43 500
Width: 671
Flags: W
LayerCount: 2
Fore
SplineSet
295 253 m 1,0,-1
 46 253 l 1,1,-1
 58 327 l 1,2,-1
 307 327 l 1,3,-1
 347 580 l 1,4,-1
 418 580 l 1,5,-1
 378 327 l 1,6,-1
 626 327 l 1,7,-1
 614 253 l 1,8,-1
 366 253 l 1,9,-1
 326 0 l 1,10,-1
 255 0 l 1,11,-1
 295 253 l 1,0,-1
EndSplineSet
EndChar

StartChar: minus
Encoding: 8722 8722 501
Width: 671
Flags: W
LayerCount: 2
Fore
SplineSet
58 327 m 1,0,-1
 626 327 l 1,1,-1
 614 253 l 1,2,-1
 46 253 l 1,3,-1
 58 327 l 1,0,-1
EndSplineSet
EndChar

StartChar: multiply
Encoding: 215 215 502
Width: 587
Flags: W
LayerCount: 2
Fore
SplineSet
514 81 m 1,0,-1
 459 32 l 1,1,-1
 287 241 l 1,2,-1
 49 32 l 1,3,-1
 9 81 l 1,4,-1
 247 290 l 1,5,-1
 75 499 l 1,6,-1
 131 548 l 1,7,-1
 302 339 l 1,8,-1
 540 548 l 1,9,-1
 581 499 l 1,10,-1
 343 290 l 1,11,-1
 514 81 l 1,0,-1
EndSplineSet
EndChar

StartChar: divide
Encoding: 247 247 503
Width: 671
Flags: W
CounterMasks: 1 e0
LayerCount: 2
Fore
SplineSet
326.5 477 m 128,-1,1
 313 494 313 494 316 517 c 256,2,3
 320 540 320 540 339 556.5 c 128,-1,4
 358 573 358 573 381 573 c 256,5,6
 404 573 404 573 418 556.5 c 128,-1,7
 432 540 432 540 428 517 c 256,8,9
 424 494 424 494 405 477 c 128,-1,10
 386 460 386 460 363 460 c 256,11,0
 340 460 340 460 326.5 477 c 128,-1,1
58 327 m 1,12,-1
 626 327 l 1,13,-1
 614 253 l 1,14,-1
 46 253 l 1,15,-1
 58 327 l 1,12,-1
255 24 m 128,-1,17
 241 41 241 41 244 64 c 256,18,19
 248 87 248 87 267.5 103.5 c 128,-1,20
 287 120 287 120 309 120 c 256,21,22
 332 120 332 120 346 103.5 c 128,-1,23
 360 87 360 87 356 64 c 256,24,25
 352 41 352 41 333 24 c 128,-1,26
 314 7 314 7 291 7 c 256,27,16
 269 7 269 7 255 24 c 128,-1,17
EndSplineSet
EndChar

StartChar: equal
Encoding: 61 61 504
Width: 738
Flags: W
LayerCount: 2
Fore
SplineSet
110 440 m 1,0,-1
 679 440 l 1,1,-1
 667 369 l 1,2,-1
 99 369 l 1,3,-1
 110 440 l 1,0,-1
74 211 m 1,4,-1
 642 211 l 1,5,-1
 631 140 l 1,6,-1
 63 140 l 1,7,-1
 74 211 l 1,4,-1
EndSplineSet
EndChar

StartChar: notequal
Encoding: 8800 8800 505
Width: 738
Flags: W
LayerCount: 2
Fore
SplineSet
667 369 m 1,0,-1
 446 369 l 1,1,-1
 371 211 l 1,2,-1
 642 211 l 1,3,-1
 631 140 l 1,4,-1
 337 140 l 1,5,-1
 257 -27 l 1,6,-1
 191 -5 l 1,7,-1
 260 140 l 1,8,-1
 63 140 l 1,9,-1
 74 211 l 1,10,-1
 294 211 l 1,11,-1
 369 369 l 1,12,-1
 99 369 l 1,13,-1
 110 440 l 1,14,-1
 403 440 l 1,15,-1
 484 607 l 1,16,-1
 550 585 l 1,17,-1
 481 440 l 1,18,-1
 679 440 l 1,19,-1
 667 369 l 1,0,-1
EndSplineSet
EndChar

StartChar: greater
Encoding: 62 62 506
Width: 696
Flags: W
LayerCount: 2
Fore
SplineSet
48 97 m 1,0,-1
 585 289 l 1,1,-1
 585 291 l 1,2,-1
 109 483 l 1,3,-1
 122 564 l 1,4,-1
 654 336 l 1,5,-1
 639 244 l 1,6,-1
 35 16 l 1,7,-1
 48 97 l 1,0,-1
EndSplineSet
EndChar

StartChar: less
Encoding: 60 60 507
Width: 696
Flags: W
LayerCount: 2
Fore
SplineSet
45 244 m 1,0,-1
 59 336 l 1,1,-1
 664 564 l 1,2,-1
 651 483 l 1,3,-1
 115 291 l 1,4,-1
 114 289 l 1,5,-1
 590 97 l 1,6,-1
 577 16 l 1,7,-1
 45 244 l 1,0,-1
EndSplineSet
EndChar

StartChar: greaterequal
Encoding: 8805 8805 508
Width: 685
Flags: W
LayerCount: 2
Fore
SplineSet
53 179 m 1,0,-1
 65 259 l 1,1,-1
 602 452 l 1,2,-1
 603 454 l 1,3,-1
 126 646 l 1,4,-1
 139 727 l 1,5,-1
 671 498 l 1,6,-1
 657 407 l 1,7,-1
 53 179 l 1,0,-1
24 0 m 1,8,-1
 35 71 l 1,9,-1
 604 71 l 1,10,-1
 593 0 l 1,11,-1
 24 0 l 1,8,-1
EndSplineSet
EndChar

StartChar: lessequal
Encoding: 8804 8804 509
Width: 685
Flags: W
LayerCount: 2
Fore
SplineSet
82 498 m 1,0,-1
 687 727 l 1,1,-1
 674 646 l 1,2,-1
 137 454 l 1,3,-1
 137 452 l 1,4,-1
 613 259 l 1,5,-1
 600 179 l 1,6,-1
 68 407 l 1,7,-1
 82 498 l 1,0,-1
14 71 m 1,8,-1
 583 71 l 1,9,-1
 572 0 l 1,10,-1
 3 0 l 1,11,-1
 14 71 l 1,8,-1
EndSplineSet
EndChar

StartChar: plusminus
Encoding: 177 177 510
Width: 738
Flags: W
LayerCount: 2
Fore
SplineSet
355 417 m 1,0,-1
 107 417 l 1,1,-1
 118 488 l 1,2,-1
 366 488 l 1,3,-1
 404 730 l 1,4,-1
 476 730 l 1,5,-1
 437 488 l 1,6,-1
 686 488 l 1,7,-1
 675 417 l 1,8,-1
 426 417 l 1,9,-1
 388 175 l 1,10,-1
 316 175 l 1,11,-1
 355 417 l 1,0,-1
52 71 m 1,12,-1
 620 71 l 1,13,-1
 609 0 l 1,14,-1
 41 0 l 1,15,-1
 52 71 l 1,12,-1
EndSplineSet
EndChar

StartChar: approxequal
Encoding: 8776 8776 511
Width: 710
Flags: W
LayerCount: 2
Fore
SplineSet
124.5 450.5 m 128,-1,1
 161 491 161 491 222 491 c 0,2,3
 289 491 289 491 398 438 c 0,4,5
 444 416 444 416 475 406.5 c 128,-1,6
 506 397 506 397 530 397 c 0,7,8
 563 397 563 397 580.5 416 c 128,-1,9
 598 435 598 435 605 481 c 1,10,-1
 674 481 l 1,11,12
 648 320 648 320 528 320 c 0,13,14
 464 320 464 320 351 373 c 0,15,16
 305 396 305 396 274.5 405.5 c 128,-1,17
 244 415 244 415 219 415 c 0,18,19
 185 415 185 415 168 395.5 c 128,-1,20
 151 376 151 376 144 327 c 1,21,-1
 75 327 l 1,22,0
 88 410 88 410 124.5 450.5 c 128,-1,1
87 214 m 128,-1,24
 123 255 123 255 184 255 c 0,25,26
 249 255 249 255 361 201 c 0,27,28
 408 179 408 179 438 169.5 c 128,-1,29
 468 160 468 160 493 160 c 0,30,31
 526 160 526 160 543 179 c 128,-1,32
 560 198 560 198 568 245 c 1,33,-1
 636 245 l 1,34,35
 610 83 610 83 490 83 c 0,36,37
 425 83 425 83 313 137 c 0,38,39
 266 159 266 159 236 168.5 c 128,-1,40
 206 178 206 178 182 178 c 0,41,42
 148 178 148 178 131 158.5 c 128,-1,43
 114 139 114 139 106 90 c 1,44,-1
 38 90 l 1,45,23
 51 173 51 173 87 214 c 128,-1,24
EndSplineSet
EndChar

StartChar: asciitilde
Encoding: 126 126 512
Width: 677
Flags: W
LayerCount: 2
Fore
SplineSet
188 387 m 0,1,2
 253 387 253 387 365 333 c 0,3,4
 411 311 411 311 441.5 301 c 128,-1,5
 472 291 472 291 496 291 c 0,6,7
 530 291 530 291 547 310.5 c 128,-1,8
 564 330 564 330 571 377 c 1,9,-1
 641 377 l 1,10,11
 615 214 615 214 495 214 c 0,12,13
 427 214 427 214 317 268 c 0,14,15
 272 291 272 291 241.5 300.5 c 128,-1,16
 211 310 211 310 186 310 c 0,17,18
 152 310 152 310 135 289.5 c 128,-1,19
 118 269 118 269 110 220 c 1,20,-1
 41 220 l 1,21,0
 67 387 67 387 188 387 c 0,1,2
EndSplineSet
EndChar

StartChar: logicalnot
Encoding: 172 172 513
Width: 698
Flags: W
LayerCount: 2
Fore
SplineSet
554 367 m 1,0,-1
 64 367 l 1,1,-1
 76 440 l 1,2,-1
 638 440 l 1,3,-1
 591 140 l 1,4,-1
 518 140 l 1,5,-1
 554 367 l 1,0,-1
EndSplineSet
EndChar

StartChar: asciicircum
Encoding: 94 94 514
Width: 588
Flags: W
LayerCount: 2
Fore
SplineSet
313 730 m 1,0,-1
 418 730 l 1,1,-1
 575 280 l 1,2,-1
 487 280 l 1,3,-1
 357 674 l 1,4,-1
 355 674 l 1,5,-1
 99 280 l 1,6,-1
 12 280 l 1,7,-1
 313 730 l 1,0,-1
EndSplineSet
EndChar

StartChar: uni00B5
Encoding: 181 181 515
Width: 538
GlyphClass: 2
Flags: W
AnchorPoint: "Anchor-3" 447 480 basechar 0
AnchorPoint: "Anchor-2" 457 0 basechar 0
AnchorPoint: "Anchor-1" 245 520 basechar 0
AnchorPoint: "Anchor-0" 245 0 basechar 0
LayerCount: 2
Fore
SplineSet
507 520 m 1,0,-1
 425 0 l 1,1,-1
 353 0 l 1,2,-1
 367 86 l 1,3,-1
 365 86 l 1,4,5
 327 41 327 41 276 15.5 c 128,-1,6
 225 -10 225 -10 170 -10 c 0,7,8
 123 -10 123 -10 93 9 c 1,9,-1
 57 -220 l 1,10,-1
 -17 -220 l 1,11,-1
 100 520 l 1,12,-1
 174 520 l 1,13,-1
 126 214 l 2,14,15
 101 57 101 57 201 57 c 0,16,17
 243 57 243 57 283.5 83 c 128,-1,18
 324 109 324 109 353 153 c 128,-1,19
 382 197 382 197 390 247 c 2,20,-1
 433 520 l 1,21,-1
 507 520 l 1,0,-1
EndSplineSet
EndChar

StartChar: percent
Encoding: 37 37 516
Width: 834
Flags: W
LayerCount: 2
Fore
SplineSet
87 342 m 128,-1,1
 57 398 57 398 75 511 c 256,2,3
 93 624 93 624 140.5 680 c 128,-1,4
 188 736 188 736 268 736 c 0,5,6
 425 736 425 736 389 511 c 256,7,8
 353 286 353 286 196 286 c 0,9,0
 117 286 117 286 87 342 c 128,-1,1
650 730 m 1,10,-1
 725 730 l 1,11,-1
 211 0 l 1,12,-1
 135 0 l 1,13,-1
 650 730 l 1,10,-1
276.5 391 m 128,-1,15
 303 429 303 429 316 511 c 256,16,17
 329 593 329 593 314.5 631 c 128,-1,18
 300 669 300 669 257 669 c 256,19,20
 214 669 214 669 187.5 631 c 128,-1,21
 161 593 161 593 148 511 c 256,22,23
 135 429 135 429 149.5 391 c 128,-1,24
 164 353 164 353 207 353 c 256,25,14
 250 353 250 353 276.5 391 c 128,-1,15
472 219 m 256,27,28
 508 444 508 444 664 444 c 0,29,30
 743 444 743 444 773 388 c 128,-1,31
 803 332 803 332 785 219 c 256,32,33
 767 106 767 106 719.5 50 c 128,-1,34
 672 -6 672 -6 593 -6 c 0,35,26
 436 -6 436 -6 472 219 c 256,27,28
673.5 99 m 128,-1,37
 700 137 700 137 713 219 c 256,38,39
 726 301 726 301 711.5 339 c 128,-1,40
 697 377 697 377 654 377 c 256,41,42
 611 377 611 377 584 339 c 128,-1,43
 557 301 557 301 544 219 c 256,44,45
 531 137 531 137 545.5 99 c 128,-1,46
 560 61 560 61 604 61 c 256,47,36
 647 61 647 61 673.5 99 c 128,-1,37
EndSplineSet
EndChar

StartChar: at
Encoding: 64 64 518
Width: 802
Flags: W
LayerCount: 2
Fore
SplineSet
600 461 m 1,0,-1
 546 119 l 1,1,-1
 648 119 l 1,2,3
 688 181 688 181 701 260 c 0,4,5
 715 351 715 351 688 421.5 c 128,-1,6
 661 492 661 492 598.5 531 c 128,-1,7
 536 570 536 570 447 570 c 0,8,9
 359 570 359 570 283 530.5 c 128,-1,10
 207 491 207 491 157 420.5 c 128,-1,11
 107 350 107 350 93 260 c 256,12,13
 79 170 79 170 106.5 99.5 c 128,-1,14
 134 29 134 29 197.5 -10.5 c 128,-1,15
 261 -50 261 -50 349 -50 c 0,16,17
 456 -50 456 -50 546 10 c 1,18,-1
 572 -38 l 1,19,20
 467 -110 467 -110 339 -110 c 0,21,22
 234 -110 234 -110 159 -62.5 c 128,-1,23
 84 -15 84 -15 50.5 69 c 128,-1,24
 17 153 17 153 34 260 c 256,25,26
 51 367 51 367 111 451 c 128,-1,27
 171 535 171 535 261.5 582.5 c 128,-1,28
 352 630 352 630 457 630 c 256,29,30
 562 630 562 630 636.5 583 c 128,-1,31
 711 536 711 536 744 452 c 128,-1,32
 777 368 777 368 760 260 c 0,33,34
 742 144 742 144 676 59 c 1,35,-1
 462 59 l 1,36,-1
 472 126 l 1,37,-1
 470 126 l 1,38,39
 415 50 415 50 329 50 c 0,40,41
 256 50 256 50 222 106 c 128,-1,42
 188 162 188 162 204 260 c 256,43,44
 220 358 220 358 271.5 414 c 128,-1,45
 323 470 323 470 396 470 c 0,46,47
 481 470 481 470 512 394 c 1,48,-1
 514 394 l 1,49,-1
 526 461 l 1,50,-1
 600 461 l 1,0,-1
493 272 m 2,51,52
 503 337 503 337 481 372 c 128,-1,53
 459 407 459 407 410 407 c 256,54,55
 361 407 361 407 326.5 368 c 128,-1,56
 292 329 292 329 281 260 c 256,57,58
 270 191 270 191 292 152 c 128,-1,59
 314 113 314 113 363 113 c 0,60,61
 413 113 413 113 446 148 c 128,-1,62
 479 183 479 183 489 248 c 2,63,-1
 493 272 l 2,51,52
EndSplineSet
EndChar

StartChar: ampersand
Encoding: 38 38 519
Width: 668
Flags: W
LayerCount: 2
Fore
SplineSet
564 -9 m 1,0,-1
 494 79 l 1,1,2
 365 -10 365 -10 229 -10 c 0,3,4
 119 -10 119 -10 63.5 39 c 128,-1,5
 8 88 8 88 22 173 c 0,6,7
 29 215 29 215 51 250 c 128,-1,8
 73 285 73 285 116.5 320.5 c 128,-1,9
 160 356 160 356 236 401 c 1,10,-1
 230 410 l 2,11,12
 183 469 183 469 167.5 512 c 128,-1,13
 152 555 152 555 159 599 c 0,14,15
 170 666 170 666 224.5 703 c 128,-1,16
 279 740 279 740 367 740 c 256,17,18
 455 740 455 740 499.5 703 c 128,-1,19
 544 666 544 666 533 599 c 0,20,21
 525 546 525 546 481.5 498.5 c 128,-1,22
 438 451 438 451 343 392 c 1,23,-1
 491 203 l 1,24,-1
 525 413 l 1,25,-1
 597 413 l 1,26,-1
 550 128 l 1,27,-1
 626 31 l 1,28,-1
 564 -9 l 1,0,-1
244.5 532.5 m 128,-1,30
 260 499 260 499 304 442 c 1,31,32
 383 491 383 491 417 525.5 c 128,-1,33
 451 560 451 560 457 597 c 0,34,35
 463 637 463 637 438 658 c 128,-1,36
 413 679 413 679 359 679 c 256,37,38
 305 679 305 679 272.5 657.5 c 128,-1,39
 240 636 240 636 234 597 c 0,40,29
 229 566 229 566 244.5 532.5 c 128,-1,30
451 132 m 1,42,-1
 276 352 l 1,43,44
 184 298 184 298 146.5 260.5 c 128,-1,45
 109 223 109 223 102 179 c 0,46,47
 93 122 93 122 130.5 89.5 c 128,-1,48
 168 57 168 57 242 57 c 0,49,41
 355 57 355 57 451 132 c 1,42,-1
EndSplineSet
EndChar

StartChar: paragraph
Encoding: 182 182 520
Width: 587
Flags: W
LayerCount: 2
Fore
SplineSet
125 301 m 128,-1,1
 78 332 78 332 56 385 c 128,-1,2
 34 438 34 438 44 500 c 256,3,4
 54 562 54 562 93 615 c 128,-1,5
 132 668 132 668 188.5 699 c 128,-1,6
 245 730 245 730 306 730 c 2,7,-1
 580 730 l 1,8,-1
 447 -110 l 1,9,-1
 379 -110 l 1,10,-1
 502 667 l 1,11,-1
 365 667 l 1,12,-1
 242 -110 l 1,13,-1
 173 -110 l 1,14,-1
 233 270 l 1,15,0
 172 270 172 270 125 301 c 128,-1,1
EndSplineSet
EndChar

StartChar: section
Encoding: 167 167 521
Width: 524
Flags: W
LayerCount: 2
Fore
SplineSet
421 43 m 0,1,2
 409 -34 409 -34 350 -77 c 128,-1,3
 291 -120 291 -120 199 -120 c 0,4,5
 101 -120 101 -120 17 -75 c 1,6,-1
 47 -12 l 1,7,8
 86 -34 86 -34 123 -43.5 c 128,-1,9
 160 -53 160 -53 203 -53 c 0,10,11
 266 -53 266 -53 303 -28.5 c 128,-1,12
 340 -4 340 -4 347 43 c 0,13,14
 354 86 354 86 330 111.5 c 128,-1,15
 306 137 306 137 239 152 c 0,16,17
 141 172 141 172 99.5 216 c 128,-1,18
 58 260 58 260 69 330 c 0,19,20
 82 409 82 409 151 456 c 1,21,22
 101 500 101 500 113 577 c 256,23,24
 125 654 125 654 183.5 697 c 128,-1,25
 242 740 242 740 334 740 c 0,26,27
 432 740 432 740 517 695 c 1,28,-1
 485 632 l 1,29,30
 446 654 446 654 409 663.5 c 128,-1,31
 372 673 372 673 330 673 c 0,32,33
 267 673 267 673 230 648 c 128,-1,34
 193 623 193 623 186 577 c 0,35,36
 179 534 179 534 203.5 508.5 c 128,-1,37
 228 483 228 483 295 468 c 0,38,39
 392 448 392 448 433.5 404 c 128,-1,40
 475 360 475 360 464 290 c 0,41,42
 451 211 451 211 382 164 c 1,43,0
 434 122 434 122 421 43 c 0,1,2
155.5 259 m 128,-1,45
 183 233 183 233 258 217 c 0,46,47
 306 205 306 205 331 194 c 1,48,49
 358 210 358 210 376 235 c 128,-1,50
 394 260 394 260 399 290 c 0,51,52
 406 335 406 335 378.5 361 c 128,-1,53
 351 387 351 387 275 403 c 0,54,55
 227 415 227 415 202 426 c 1,56,57
 175 410 175 410 157.5 385 c 128,-1,58
 140 360 140 360 135 330 c 0,59,44
 128 285 128 285 155.5 259 c 128,-1,45
EndSplineSet
EndChar

StartChar: copyright
Encoding: 169 169 522
Width: 798
Flags: W
LayerCount: 2
Fore
SplineSet
180.5 46.5 m 128,-1,1
 105 96 105 96 70 180.5 c 128,-1,2
 35 265 35 265 51 365 c 256,3,4
 67 465 67 465 129 549.5 c 128,-1,5
 191 634 191 634 282 683.5 c 128,-1,6
 373 733 373 733 471 733 c 256,7,8
 569 733 569 733 644 683.5 c 128,-1,9
 719 634 719 634 754 549.5 c 128,-1,10
 789 465 789 465 773 365 c 256,11,12
 757 265 757 265 695.5 180.5 c 128,-1,13
 634 96 634 96 543 46.5 c 128,-1,14
 452 -3 452 -3 354 -3 c 256,15,0
 256 -3 256 -3 180.5 46.5 c 128,-1,1
524.5 92.5 m 128,-1,17
 602 135 602 135 655 207 c 128,-1,18
 708 279 708 279 721 365 c 256,19,20
 735 451 735 451 704.5 523 c 128,-1,21
 674 595 674 595 610.5 637.5 c 128,-1,22
 547 680 547 680 463 680 c 256,23,24
 379 680 379 680 301 637.5 c 128,-1,25
 223 595 223 595 170.5 523 c 128,-1,26
 118 451 118 451 104 365 c 256,27,28
 90 279 90 279 120 207 c 128,-1,29
 150 135 150 135 214 92.5 c 128,-1,30
 278 50 278 50 363 50 c 256,31,16
 447 50 447 50 524.5 92.5 c 128,-1,17
241.5 200.5 m 128,-1,33
 194 261 194 261 211 365 c 256,34,35
 227 469 227 469 294 529.5 c 128,-1,36
 361 590 361 590 459 590 c 0,37,38
 538 590 538 590 591 551 c 1,39,-1
 547 491 l 1,40,41
 506 523 506 523 450 523 c 0,42,43
 384 523 384 523 340 481 c 128,-1,44
 296 439 296 439 284 365 c 256,45,46
 272 291 272 291 303 249 c 128,-1,47
 334 207 334 207 400 207 c 0,48,49
 456 207 456 207 507 239 c 1,50,-1
 532 179 l 1,51,52
 467 140 467 140 388 140 c 0,53,32
 289 140 289 140 241.5 200.5 c 128,-1,33
EndSplineSet
EndChar

StartChar: registered
Encoding: 174 174 523
Width: 798
Flags: W
LayerCount: 2
Fore
SplineSet
644 683.5 m 128,-1,1
 719 634 719 634 754 549.5 c 128,-1,2
 789 465 789 465 773 365 c 256,3,4
 757 265 757 265 695.5 180.5 c 128,-1,5
 634 96 634 96 543 46.5 c 128,-1,6
 452 -3 452 -3 354 -3 c 256,7,8
 256 -3 256 -3 180.5 46.5 c 128,-1,9
 105 96 105 96 70 180.5 c 128,-1,10
 35 265 35 265 51 365 c 256,11,12
 67 465 67 465 129 549.5 c 128,-1,13
 191 634 191 634 282 683.5 c 128,-1,14
 373 733 373 733 471 733 c 256,15,0
 569 733 569 733 644 683.5 c 128,-1,1
524.5 92.5 m 128,-1,17
 602 135 602 135 655 207 c 128,-1,18
 708 279 708 279 721 365 c 256,19,20
 735 451 735 451 704.5 523 c 128,-1,21
 674 595 674 595 610.5 637.5 c 128,-1,22
 547 680 547 680 463 680 c 256,23,24
 379 680 379 680 301 637.5 c 128,-1,25
 223 595 223 595 170.5 523 c 128,-1,26
 118 451 118 451 104 365 c 256,27,28
 90 279 90 279 120 207 c 128,-1,29
 150 135 150 135 214 92.5 c 128,-1,30
 278 50 278 50 363 50 c 256,31,16
 447 50 447 50 524.5 92.5 c 128,-1,17
535.5 366.5 m 128,-1,33
 497 335 497 335 427 329 c 1,34,-1
 556 146 l 1,35,-1
 468 146 l 1,36,-1
 349 327 l 1,37,-1
 347 327 l 1,38,-1
 318 146 l 1,39,-1
 247 146 l 1,40,-1
 316 584 l 1,41,-1
 423 584 l 2,42,43
 516 584 516 584 554.5 553 c 128,-1,44
 593 522 593 522 583 456 c 0,45,32
 574 398 574 398 535.5 366.5 c 128,-1,33
378 524 m 1,46,-1
 356 385 l 1,47,-1
 393 385 l 2,48,49
 450 385 450 385 476.5 401 c 128,-1,50
 503 417 503 417 509 454 c 256,51,52
 515 491 515 491 493 507.5 c 128,-1,53
 471 524 471 524 415 524 c 2,54,-1
 378 524 l 1,46,-1
EndSplineSet
EndChar

StartChar: trademark
Encoding: 8482 8482 524
Width: 740
Flags: W
LayerCount: 2
Fore
SplineSet
194 672 m 1,0,-1
 87 672 l 1,1,-1
 96 730 l 1,2,-1
 377 730 l 1,3,-1
 368 672 l 1,4,-1
 260 672 l 1,5,-1
 212 365 l 1,6,-1
 145 365 l 1,7,-1
 194 672 l 1,0,-1
432 730 m 1,8,-1
 516 730 l 1,9,-1
 572 533 l 1,10,-1
 573 533 l 1,11,-1
 691 730 l 1,12,-1
 774 730 l 1,13,-1
 716 365 l 1,14,-1
 651 365 l 1,15,-1
 690 610 l 1,16,-1
 689 610 l 1,17,-1
 588 443 l 1,18,-1
 528 443 l 1,19,-1
 480 610 l 1,20,-1
 479 610 l 1,21,-1
 440 365 l 1,22,-1
 374 365 l 1,23,-1
 432 730 l 1,8,-1
EndSplineSet
EndChar

StartChar: degree
Encoding: 176 176 525
Width: 398
Flags: W
LayerCount: 2
Fore
SplineSet
138 422.5 m 128,-1,1
 104 445 104 445 88 484 c 128,-1,2
 72 523 72 523 80 568 c 256,3,4
 87 613 87 613 115 651.5 c 128,-1,5
 143 690 143 690 184.5 712.5 c 128,-1,6
 226 735 226 735 271 735 c 0,7,8
 315 735 315 735 349 712.5 c 128,-1,9
 383 690 383 690 399 651.5 c 128,-1,10
 415 613 415 613 408 568 c 256,11,12
 401 523 401 523 372.5 484 c 128,-1,13
 344 445 344 445 303 422.5 c 128,-1,14
 262 400 262 400 218 400 c 0,15,0
 172 400 172 400 138 422.5 c 128,-1,1
306 491.5 m 128,-1,17
 342 523 342 523 349 568 c 0,18,19
 356 612 356 612 330 643.5 c 128,-1,20
 304 675 304 675 261 675 c 0,21,22
 217 675 217 675 181 643.5 c 128,-1,23
 145 612 145 612 138 568 c 0,24,25
 131 523 131 523 157 491.5 c 128,-1,26
 183 460 183 460 227 460 c 0,27,16
 270 460 270 460 306 491.5 c 128,-1,17
EndSplineSet
EndChar

StartChar: bar
Encoding: 124 124 526
Width: 245
Flags: W
LayerCount: 2
Fore
SplineSet
169 810 m 1,0,-1
 243 810 l 1,1,-1
 80 -220 l 1,2,-1
 6 -220 l 1,3,-1
 169 810 l 1,0,-1
EndSplineSet
EndChar

StartChar: brokenbar
Encoding: 166 166 527
Width: 245
Flags: W
LayerCount: 2
Fore
SplineSet
169 810 m 1,0,-1
 243 810 l 1,1,-1
 174 370 l 1,2,-1
 99 370 l 1,3,-1
 169 810 l 1,0,-1
75 220 m 1,4,-1
 150 220 l 1,5,-1
 80 -220 l 1,6,-1
 6 -220 l 1,7,-1
 75 220 l 1,4,-1
EndSplineSet
EndChar

StartChar: dagger
Encoding: 8224 8224 528
Width: 488
Flags: W
LayerCount: 2
Fore
SplineSet
234 453 m 1,0,-1
 52 453 l 1,1,-1
 63 520 l 1,2,-1
 244 520 l 1,3,-1
 277 730 l 1,4,-1
 352 730 l 1,5,-1
 319 520 l 1,6,-1
 500 520 l 1,7,-1
 489 453 l 1,8,-1
 308 453 l 1,9,-1
 219 -110 l 1,10,-1
 144 -110 l 1,11,-1
 234 453 l 1,0,-1
EndSplineSet
EndChar

StartChar: daggerdbl
Encoding: 8225 8225 529
Width: 508
Flags: W
LayerCount: 2
Fore
SplineSet
188 100 m 1,0,-1
 6 100 l 1,1,-1
 17 167 l 1,2,-1
 198 167 l 1,3,-1
 244 453 l 1,4,-1
 62 453 l 1,5,-1
 73 520 l 1,6,-1
 254 520 l 1,7,-1
 287 730 l 1,8,-1
 362 730 l 1,9,-1
 329 520 l 1,10,-1
 510 520 l 1,11,-1
 499 453 l 1,12,-1
 318 453 l 1,13,-1
 273 167 l 1,14,-1
 454 167 l 1,15,-1
 443 100 l 1,16,-1
 262 100 l 1,17,-1
 229 -110 l 1,18,-1
 154 -110 l 1,19,-1
 188 100 l 1,0,-1
EndSplineSet
EndChar

StartChar: uni2116
Encoding: 8470 8470 530
Width: 1148
GlyphClass: 2
Flags: W
AnchorPoint: "Anchor-1" 315 730 basechar 0
AnchorPoint: "Anchor-0" 315 0 basechar 0
LayerCount: 2
Fore
SplineSet
773.5 365 m 128,-1,1
 732 422 732 422 748 524 c 0,2,3
 764 627 764 627 824 683.5 c 128,-1,4
 884 740 884 740 975 740 c 256,5,6
 1066 740 1066 740 1107.5 683.5 c 128,-1,7
 1149 627 1149 627 1133 524 c 0,8,9
 1117 422 1117 422 1057 365 c 128,-1,10
 997 308 997 308 906 308 c 256,11,0
 815 308 815 308 773.5 365 c 128,-1,1
237 730 m 1,12,-1
 511 127 l 1,13,-1
 513 127 l 1,14,-1
 609 730 l 1,15,-1
 687 730 l 1,16,-1
 571 0 l 1,17,-1
 482 0 l 1,18,-1
 208 603 l 1,19,-1
 206 603 l 1,20,-1
 111 0 l 1,21,-1
 32 0 l 1,22,-1
 148 730 l 1,23,-1
 237 730 l 1,12,-1
1009.5 409 m 128,-1,25
 1046 449 1046 449 1058 524 c 256,26,27
 1070 599 1070 599 1046 639 c 128,-1,28
 1022 679 1022 679 965 679 c 256,29,30
 908 679 908 679 871.5 639 c 128,-1,31
 835 599 835 599 823 524 c 256,32,33
 811 449 811 449 835 409 c 128,-1,34
 859 369 859 369 916 369 c 256,35,24
 973 369 973 369 1009.5 409 c 128,-1,25
714 243 m 1,36,-1
 1078 243 l 1,37,-1
 1068 180 l 1,38,-1
 704 180 l 1,39,-1
 714 243 l 1,36,-1
EndSplineSet
Ligature2: "'ordn' Ordinals in Latin lookup 9 subtable" N o period
EndChar

StartChar: uni0308
Encoding: 776 776 533
Width: 24
GlyphClass: 4
Flags: W
AnchorPoint: "Anchor-10" -300 717 basemark 0
AnchorPoint: "Anchor-10" -300 520 mark 0
AnchorPoint: "Anchor-6" -300 520 mark 0
AnchorPoint: "Anchor-1" -300 520 mark 0
LayerCount: 2
Fore
SplineSet
-328 717 m 5,0,-1
 -226 717 l 5,1,-1
 -243 613 l 5,2,-1
 -345 613 l 5,3,-1
 -328 717 l 5,0,-1
-84 717 m 5,4,-1
 18 717 l 5,5,-1
 1 613 l 5,6,-1
 -101 613 l 5,7,-1
 -84 717 l 5,4,-1
EndSplineSet
EndChar

StartChar: uni0307
Encoding: 775 775 534
Width: 7
GlyphClass: 4
Flags: W
AnchorPoint: "Anchor-10" -125 717 basemark 0
AnchorPoint: "Anchor-10" -125 520 mark 0
AnchorPoint: "Anchor-6" -125 520 mark 0
AnchorPoint: "Anchor-1" -125 520 mark 0
LayerCount: 2
Fore
SplineSet
-52 717 m 1,0,-1
 50 717 l 1,1,-1
 34 613 l 1,2,-1
 -68 613 l 1,3,-1
 -52 717 l 1,0,-1
EndSplineSet
EndChar

StartChar: gravecomb
Encoding: 768 768 535
Width: 14
GlyphClass: 4
Flags: W
AnchorPoint: "Anchor-10" -258 520 mark 0
AnchorPoint: "Anchor-6" -258 520 mark 0
AnchorPoint: "Anchor-1" -258 520 mark 0
LayerCount: 2
Fore
SplineSet
-228 770 m 5,0,-1
 -129 770 l 5,1,-1
 -61 560 l 5,2,-1
 -141 560 l 5,3,-1
 -228 770 l 5,0,-1
EndSplineSet
EndChar

StartChar: acutecomb
Encoding: 769 769 536
Width: 14
GlyphClass: 4
Flags: W
AnchorPoint: "Anchor-10" -185 520 mark 0
AnchorPoint: "Anchor-6" -185 520 mark 0
AnchorPoint: "Anchor-1" -185 520 mark 0
LayerCount: 2
Fore
SplineSet
-86 560 m 1,0,-1
 -166 560 l 1,1,-1
 -31 770 l 1,2,-1
 68 770 l 1,3,-1
 -86 560 l 1,0,-1
EndSplineSet
EndChar

StartChar: uni0302
Encoding: 770 770 538
Width: 28
GlyphClass: 4
Flags: W
AnchorPoint: "Anchor-10" -326 520 mark 0
AnchorPoint: "Anchor-6" -326 520 mark 0
AnchorPoint: "Anchor-1" -326 520 mark 0
LayerCount: 2
Fore
SplineSet
-237 770 m 5,0,-1
 -101 770 l 5,1,-1
 -1 560 l 5,2,-1
 -94 560 l 5,3,-1
 -174 732 l 5,4,-1
 -176 732 l 5,5,-1
 -310 560 l 5,6,-1
 -403 560 l 5,7,-1
 -237 770 l 5,0,-1
EndSplineSet
EndChar

StartChar: uni030C
Encoding: 780 780 539
Width: 28
GlyphClass: 4
Flags: W
AnchorPoint: "Anchor-10" -325 770 basemark 0
AnchorPoint: "Anchor-10" -325 520 mark 0
AnchorPoint: "Anchor-6" -325 520 mark 0
AnchorPoint: "Anchor-1" -325 520 mark 0
LayerCount: 2
Fore
SplineSet
-369 770 m 5,0,-1
 -276 770 l 5,1,-1
 -196 598 l 5,2,-1
 -194 598 l 5,3,-1
 -60 770 l 5,4,-1
 33 770 l 5,5,-1
 -134 560 l 5,6,-1
 -269 560 l 5,7,-1
 -369 770 l 5,0,-1
EndSplineSet
EndChar

StartChar: uni0306
Encoding: 774 774 540
Width: 26
GlyphClass: 4
Flags: W
AnchorPoint: "Anchor-10" -302 520 mark 0
AnchorPoint: "Anchor-6" -302 520 mark 0
AnchorPoint: "Anchor-1" -302 520 mark 0
LayerCount: 2
Fore
SplineSet
-299.5 623 m 132,-1,1
 -344 666 -344 666 -339 734 c 5,2,-1
 -256 734 l 5,3,4
 -257 691 -257 691 -233.5 668 c 132,-1,5
 -210 645 -210 645 -167 645 c 260,6,7
 -124 645 -124 645 -94 668 c 132,-1,8
 -64 691 -64 691 -51 734 c 5,9,-1
 32 734 l 5,10,11
 15 666 15 666 -43 623 c 132,-1,12
 -101 580 -101 580 -177 580 c 4,13,0
 -255 580 -255 580 -299.5 623 c 132,-1,1
EndSplineSet
EndChar

StartChar: uni030A
Encoding: 778 778 541
Width: 19
GlyphClass: 4
Flags: W
AnchorPoint: "Anchor-10" -209 723 basemark 0
AnchorPoint: "Anchor-10" -209 520 mark 0
AnchorPoint: "Anchor-6" -209 520 mark 0
AnchorPoint: "Anchor-1" -209 520 mark 0
LayerCount: 2
Fore
SplineSet
-168.5 537 m 128,-1,1
 -197 556 -197 556 -210.5 589 c 128,-1,2
 -224 622 -224 622 -218 660 c 256,3,4
 -212 698 -212 698 -188 731 c 128,-1,5
 -164 764 -164 764 -129.5 783 c 128,-1,6
 -95 802 -95 802 -56 802 c 0,7,8
 -19 802 -19 802 10 783 c 128,-1,9
 39 764 39 764 52 731 c 128,-1,10
 65 698 65 698 59 660 c 256,11,12
 53 622 53 622 29.5 589 c 128,-1,13
 6 556 6 556 -29 537 c 128,-1,14
 -64 518 -64 518 -101 518 c 0,15,0
 -140 518 -140 518 -168.5 537 c 128,-1,1
-32 602 m 128,-1,17
 -5 626 -5 626 1 660 c 256,18,19
 6 694 6 694 -13.5 718 c 128,-1,20
 -33 742 -33 742 -66 742 c 256,21,22
 -99 742 -99 742 -126.5 718 c 128,-1,23
 -154 694 -154 694 -159 660 c 256,24,25
 -164 626 -164 626 -144.5 602 c 128,-1,26
 -125 578 -125 578 -92 578 c 256,27,16
 -59 578 -59 578 -32 602 c 128,-1,17
EndSplineSet
EndChar

StartChar: tildecomb
Encoding: 771 771 542
Width: 26
GlyphClass: 4
Flags: W
AnchorPoint: "Anchor-10" -313 744 basemark 0
AnchorPoint: "Anchor-10" -313 520 mark 0
AnchorPoint: "Anchor-6" -313 520 mark 0
AnchorPoint: "Anchor-1" -313 520 mark 0
LayerCount: 2
Fore
SplineSet
-191 633 m 4,1,2
 -231 666 -231 666 -257 666 c 4,3,4
 -273 666 -273 666 -282.5 650 c 132,-1,5
 -292 634 -292 634 -298 596 c 5,6,-1
 -371 596 l 5,7,8
 -359 671 -359 671 -332 707.5 c 132,-1,9
 -305 744 -305 744 -260 744 c 4,10,11
 -214 744 -214 744 -157 697 c 4,12,13
 -118 664 -118 664 -92 664 c 4,14,15
 -76 664 -76 664 -66 680 c 132,-1,16
 -56 696 -56 696 -50 734 c 5,17,-1
 22 734 l 5,18,19
 10 659 10 659 -16.5 622.5 c 132,-1,20
 -43 586 -43 586 -87 586 c 260,21,0
 -132 586 -132 586 -191 633 c 4,1,2
EndSplineSet
EndChar

StartChar: uni0304
Encoding: 772 772 543
Width: 25
GlyphClass: 4
Flags: W
AnchorPoint: "Anchor-10" -255 697 basemark 0
AnchorPoint: "Anchor-10" -255 520 mark 0
AnchorPoint: "Anchor-6" -255 520 mark 0
AnchorPoint: "Anchor-1" -255 520 mark 0
LayerCount: 2
Fore
SplineSet
-290 697 m 1,0,-1
 65 697 l 1,1,-1
 55 633 l 1,2,-1
 -301 633 l 1,3,-1
 -290 697 l 1,0,-1
EndSplineSet
EndChar

StartChar: uni0305
Encoding: 773 773 544
Width: 41
GlyphClass: 4
Flags: W
LayerCount: 2
Fore
SplineSet
-442 863 m 1,0,-1
 133 863 l 1,1,-1
 123 800 l 1,2,-1
 -452 800 l 1,3,-1
 -442 863 l 1,0,-1
EndSplineSet
EndChar

StartChar: hookabovecomb
Encoding: 777 777 545
Width: 20
GlyphClass: 4
Flags: W
AnchorPoint: "Anchor-10" -221 770 basemark 0
AnchorPoint: "Anchor-10" -221 520 mark 0
AnchorPoint: "Anchor-6" -221 520 mark 0
AnchorPoint: "Anchor-1" -221 520 mark 0
LayerCount: 2
Fore
SplineSet
-37 627 m 128,-1,1
 -29 649 -29 649 -27 664 c 0,2,3
 -23 689 -23 689 -38.5 697.5 c 128,-1,4
 -54 706 -54 706 -99 706 c 0,5,6
 -160 706 -160 706 -222 689 c 1,7,-1
 -220 753 l 1,8,9
 -151 770 -151 770 -72 770 c 0,10,11
 -16 770 -16 770 13.5 763 c 128,-1,12
 43 756 43 756 54 739 c 128,-1,13
 65 722 65 722 60 691 c 0,14,15
 57 669 57 669 47 640 c 128,-1,16
 37 611 37 611 26 590 c 1,17,-1
 -53 590 l 1,18,0
 -45 605 -45 605 -37 627 c 128,-1,1
EndSplineSet
EndChar

StartChar: uni030F
Encoding: 783 783 546
Width: 28
GlyphClass: 4
Flags: W
AnchorPoint: "Anchor-10" -361 770 basemark 0
AnchorPoint: "Anchor-10" -361 520 mark 0
AnchorPoint: "Anchor-6" -361 520 mark 0
AnchorPoint: "Anchor-1" -361 520 mark 0
LayerCount: 2
Fore
SplineSet
-419 770 m 5,0,-1
 -320 770 l 5,1,-1
 -252 560 l 5,2,-1
 -332 560 l 5,3,-1
 -419 770 l 5,0,-1
-213 770 m 5,4,-1
 -114 770 l 5,5,-1
 -46 560 l 5,6,-1
 -126 560 l 5,7,-1
 -213 770 l 5,4,-1
EndSplineSet
EndChar

StartChar: uni0311
Encoding: 785 785 547
Width: 26
GlyphClass: 4
Flags: W
AnchorPoint: "Anchor-10" -312 750 basemark 0
AnchorPoint: "Anchor-10" -312 520 mark 0
AnchorPoint: "Anchor-6" -312 520 mark 0
AnchorPoint: "Anchor-1" -312 520 mark 0
LayerCount: 2
Fore
SplineSet
-39.5 707 m 132,-1,1
 5 664 5 664 0 596 c 5,2,-1
 -83 596 l 5,3,4
 -82 639 -82 639 -105 662 c 132,-1,5
 -128 685 -128 685 -171 685 c 260,6,7
 -214 685 -214 685 -244.5 662 c 132,-1,8
 -275 639 -275 639 -288 596 c 5,9,-1
 -371 596 l 5,10,11
 -354 664 -354 664 -296 707 c 132,-1,12
 -238 750 -238 750 -160 750 c 4,13,0
 -84 750 -84 750 -39.5 707 c 132,-1,1
EndSplineSet
EndChar

StartChar: uni0312
Encoding: 786 786 548
Width: 14
GlyphClass: 4
Flags: W
AnchorPoint: "Anchor-10" -190 770 basemark 0
AnchorPoint: "Anchor-10" -190 520 mark 0
AnchorPoint: "Anchor-6" -190 520 mark 0
AnchorPoint: "Anchor-1" -190 520 mark 0
LayerCount: 2
Fore
SplineSet
-27 770 m 1,0,-1
 52 770 l 1,1,-1
 -82 560 l 1,2,-1
 -181 560 l 1,3,-1
 -27 770 l 1,0,-1
EndSplineSet
EndChar

StartChar: uni031B
Encoding: 795 795 549
Width: 14
GlyphClass: 4
Flags: W
AnchorPoint: "Anchor-11" -109 770 basemark 0
AnchorPoint: "Anchor-11" -323 618 mark 0
AnchorPoint: "Anchor-7" -323 618 mark 0
AnchorPoint: "Anchor-3" -323 618 mark 0
LayerCount: 2
Fore
SplineSet
-222 553 m 1,1,-1
 -199 618 l 1,2,3
 -192 609 -192 609 -178.5 604 c 128,-1,4
 -165 599 -165 599 -150 599 c 0,5,6
 -122 599 -122 599 -104.5 617 c 128,-1,7
 -87 635 -87 635 -81 669 c 0,8,9
 -77 692 -77 692 -78.5 721.5 c 128,-1,10
 -80 751 -80 751 -85 770 c 1,11,-1
 -5 770 l 1,12,13
 5 713 5 713 -4 659 c 0,14,15
 -14 598 -14 598 -48.5 564 c 128,-1,16
 -83 530 -83 530 -136 530 c 0,17,0
 -179 530 -179 530 -222 553 c 1,1,-1
EndSplineSet
EndChar

StartChar: uni0326
Encoding: 806 806 552
Width: 14
GlyphClass: 4
Flags: W
AnchorPoint: "Anchor-10" -265 -290 mark 0
AnchorPoint: "Anchor-9" -253 -210 basemark 0
AnchorPoint: "Anchor-6" -265 -290 mark 0
AnchorPoint: "Anchor-1" -265 -290 mark 0
LayerCount: 2
Fore
SplineSet
-295 -250 m 5,0,-1
 -374 -250 l 5,1,-1
 -240 -40 l 5,2,-1
 -141 -40 l 5,3,-1
 -295 -250 l 5,0,-1
EndSplineSet
EndChar

StartChar: uni0327
Encoding: 807 807 553
Width: 18
GlyphClass: 4
Flags: W
AnchorPoint: "Anchor-8" -273 0 mark 0
LayerCount: 2
Fore
SplineSet
-365 -197 m 1,1,-1
 -341 -134 l 1,2,3
 -304 -153 -304 -153 -255 -153 c 0,4,5
 -219 -153 -219 -153 -195.5 -142 c 128,-1,6
 -172 -131 -172 -131 -168 -107 c 0,7,8
 -164 -82 -164 -82 -184 -54.5 c 128,-1,9
 -204 -27 -204 -27 -246 0 c 1,10,-1
 -174 21 l 1,11,12
 -84 -45 -84 -45 -97 -120 c 0,13,14
 -104 -164 -104 -164 -145 -191 c 128,-1,15
 -186 -218 -186 -218 -259 -218 c 0,16,0
 -321 -218 -321 -218 -365 -197 c 1,1,-1
EndSplineSet
EndChar

StartChar: uni0328
Encoding: 808 808 554
Width: 18
GlyphClass: 4
Flags: W
AnchorPoint: "Anchor-5" -190 0 mark 0
AnchorPoint: "Anchor-2" -190 0 mark 0
LayerCount: 2
Fore
SplineSet
-326.5 -191 m 128,-1,1
 -359 -164 -359 -164 -352 -120 c 0,2,3
 -340 -45 -340 -45 -230 21 c 1,4,-1
 -165 0 l 1,5,6
 -215 -27 -215 -27 -244 -54.5 c 128,-1,7
 -273 -82 -273 -82 -277 -107 c 0,8,9
 -281 -131 -281 -131 -261 -142 c 128,-1,10
 -241 -153 -241 -153 -205 -153 c 0,11,12
 -156 -153 -156 -153 -113 -134 c 1,13,-1
 -109 -197 l 1,14,15
 -159 -218 -159 -218 -221 -218 c 0,16,0
 -294 -218 -294 -218 -326.5 -191 c 128,-1,1
EndSplineSet
EndChar

StartChar: uni0370
Encoding: 880 880 570
Width: 556
Flags: W
LayerCount: 2
Fore
SplineSet
538 425 m 1,0,-1
 528 361 l 1,1,-1
 168 361 l 1,2,-1
 111 0 l 1,3,-1
 32 0 l 1,4,-1
 148 730 l 1,5,-1
 226 730 l 1,6,-1
 178 425 l 1,7,-1
 538 425 l 1,0,-1
EndSplineSet
EndChar

StartChar: uni0371
Encoding: 881 881 571
Width: 419
Flags: W
LayerCount: 2
Fore
SplineSet
382 310 m 1,0,-1
 373 250 l 1,1,-1
 131 250 l 1,2,-1
 92 0 l 1,3,-1
 23 0 l 1,4,-1
 106 520 l 1,5,-1
 174 520 l 1,6,-1
 141 310 l 1,7,-1
 382 310 l 1,0,-1
EndSplineSet
EndChar

StartChar: uni0372
Encoding: 882 882 572
Width: 686
Flags: W
CounterMasks: 1 38
LayerCount: 2
Fore
SplineSet
364 662 m 1,0,-1
 194 662 l 1,1,-1
 147 363 l 1,2,-1
 72 363 l 1,3,-1
 130 730 l 1,4,-1
 698 730 l 1,5,-1
 640 363 l 1,6,-1
 565 363 l 1,7,-1
 612 662 l 1,8,-1
 442 662 l 1,9,-1
 338 0 l 1,10,-1
 259 0 l 1,11,-1
 364 662 l 1,0,-1
EndSplineSet
EndChar

StartChar: uni0373
Encoding: 883 883 573
Width: 549
Flags: W
LayerCount: 2
Fore
SplineSet
301 670 m 1,0,-1
 178 670 l 1,1,-1
 145 463 l 1,2,-1
 83 463 l 1,3,-1
 125 730 l 1,4,-1
 566 730 l 1,5,-1
 524 463 l 1,6,-1
 462 463 l 1,7,-1
 494 670 l 1,8,-1
 371 670 l 1,9,-1
 265 0 l 1,10,-1
 195 0 l 1,11,-1
 301 670 l 1,0,-1
EndSplineSet
EndChar

StartChar: uni0374
Encoding: 884 884 574
Width: 274
Flags: W
LayerCount: 2
Fore
SplineSet
102 523 m 1,0,-1
 212 770 l 1,1,-1
 310 770 l 1,2,-1
 173 523 l 1,3,-1
 102 523 l 1,0,-1
EndSplineSet
EndChar

StartChar: uni0375
Encoding: 885 885 575
Width: 275
Flags: W
LayerCount: 2
Fore
SplineSet
78 -110 m 1,0,-1
 -21 -110 l 1,1,-1
 116 137 l 1,2,-1
 188 137 l 1,3,-1
 78 -110 l 1,0,-1
EndSplineSet
EndChar

StartChar: uni0376
Encoding: 886 886 576
Width: 687
Flags: W
LayerCount: 2
Fore
SplineSet
565 0 m 1,0,-1
 488 0 l 1,1,-1
 583 600 l 1,2,-1
 581 600 l 1,3,-1
 114 0 l 1,4,-1
 32 0 l 1,5,-1
 148 730 l 1,6,-1
 225 730 l 1,7,-1
 130 130 l 1,8,-1
 132 130 l 1,9,-1
 600 730 l 1,10,-1
 681 730 l 1,11,-1
 565 0 l 1,0,-1
EndSplineSet
EndChar

StartChar: uni0377
Encoding: 887 887 577
Width: 568
Flags: W
LayerCount: 2
Fore
SplineSet
111 102 m 1,0,-1
 113 102 l 1,1,-1
 460 520 l 1,2,-1
 537 520 l 1,3,-1
 455 0 l 1,4,-1
 383 0 l 1,5,-1
 450 418 l 1,6,-1
 448 418 l 1,7,-1
 100 0 l 1,8,-1
 23 0 l 1,9,-1
 106 520 l 1,10,-1
 177 520 l 1,11,-1
 111 102 l 1,0,-1
EndSplineSet
EndChar

StartChar: uni037A
Encoding: 890 890 578
Width: 346
Flags: W
LayerCount: 2
Fore
SplineSet
90 -110 m 2,0,1
 80 -175 80 -175 88 -189 c 128,-1,2
 96 -203 96 -203 144 -203 c 0,3,4
 183 -203 183 -203 221 -189 c 1,5,-1
 222 -242 l 1,6,7
 173 -257 173 -257 124 -257 c 0,8,9
 43 -257 43 -257 22 -228.5 c 128,-1,10
 1 -200 1 -200 15 -110 c 2,11,-1
 23 -60 l 1,12,-1
 98 -60 l 1,13,-1
 90 -110 l 2,0,1
EndSplineSet
EndChar

StartChar: uni037B
Encoding: 891 891 579
Width: 489
Flags: W
LayerCount: 2
Fore
SplineSet
46 84 m 1,0,1
 101 50 101 50 167 50 c 0,2,3
 246 50 246 50 304.5 107 c 128,-1,4
 363 164 363 164 378 260 c 0,5,6
 394 360 394 360 355.5 414.5 c 128,-1,7
 317 469 317 469 234 469 c 0,8,9
 170 469 170 469 101 434 c 1,10,-1
 93 495 l 1,11,12
 170 530 170 530 246 530 c 0,13,14
 362 530 362 530 416 458.5 c 128,-1,15
 470 387 470 387 450 260 c 0,16,17
 431 137 431 137 350.5 63.5 c 128,-1,18
 270 -10 270 -10 160 -10 c 0,19,20
 83 -10 83 -10 18 25 c 1,21,-1
 46 84 l 1,0,1
EndSplineSet
EndChar

StartChar: uni037C
Encoding: 892 892 580
Width: 489
Flags: W
LayerCount: 2
Fore
SplineSet
254 207 m 1,0,-1
 271 313 l 1,1,-1
 340 313 l 1,2,-1
 323 207 l 1,3,-1
 254 207 l 1,0,-1
436 434 m 1,4,5
 378 469 378 469 314 469 c 0,6,7
 231 469 231 469 175.5 414.5 c 128,-1,8
 120 360 120 360 104 260 c 0,9,10
 89 164 89 164 129 107 c 128,-1,11
 169 50 169 50 248 50 c 0,12,13
 314 50 314 50 380 84 c 1,14,-1
 389 25 l 1,15,16
 312 -10 312 -10 236 -10 c 0,17,18
 126 -10 126 -10 69.5 63.5 c 128,-1,19
 13 137 13 137 33 260 c 0,20,21
 53 387 53 387 129.5 458.5 c 128,-1,22
 206 530 206 530 321 530 c 0,23,24
 398 530 398 530 464 495 c 1,25,-1
 436 434 l 1,4,5
EndSplineSet
EndChar

StartChar: uni037D
Encoding: 893 893 581
Width: 489
Flags: W
LayerCount: 2
Fore
SplineSet
142 207 m 1,0,-1
 159 313 l 1,1,-1
 227 313 l 1,2,-1
 211 207 l 1,3,-1
 142 207 l 1,0,-1
101 434 m 1,4,-1
 93 495 l 1,5,6
 170 530 170 530 246 530 c 0,7,8
 361 530 361 530 415 458.5 c 128,-1,9
 469 387 469 387 449 260 c 0,10,11
 430 137 430 137 350 63.5 c 128,-1,12
 270 -10 270 -10 160 -10 c 0,13,14
 83 -10 83 -10 18 25 c 1,15,-1
 46 84 l 1,16,17
 101 50 101 50 167 50 c 0,18,19
 246 50 246 50 304 107 c 128,-1,20
 362 164 362 164 378 260 c 0,21,22
 394 360 394 360 355.5 414.5 c 128,-1,23
 317 469 317 469 233 469 c 0,24,25
 170 469 170 469 101 434 c 1,4,-1
EndSplineSet
EndChar

StartChar: uni037E
Encoding: 894 894 582
Width: 361
Flags: W
LayerCount: 2
Fore
SplineSet
121 137 m 1,0,-1
 220 137 l 1,1,-1
 83 -110 l 1,2,-1
 10 -110 l 1,3,-1
 121 137 l 1,0,-1
156 387 m 1,4,-1
 178 527 l 1,5,-1
 270 527 l 1,6,-1
 248 387 l 1,7,-1
 156 387 l 1,4,-1
EndSplineSet
EndChar

StartChar: tonos
Encoding: 900 900 583
Width: 315
Flags: W
LayerCount: 2
Fore
SplineSet
186 590 m 1,0,-1
 112 590 l 1,1,-1
 249 757 l 1,2,-1
 349 757 l 1,3,-1
 186 590 l 1,0,-1
EndSplineSet
EndChar

StartChar: dieresistonos
Encoding: 901 901 584
Width: 412
Flags: W
LayerCount: 2
Fore
SplineSet
292 790 m 1,0,-1
 218 790 l 1,1,-1
 355 957 l 1,2,-1
 455 957 l 1,3,-1
 292 790 l 1,0,-1
311 610 m 1,4,-1
 331 737 l 1,5,-1
 404 737 l 1,6,-1
 384 610 l 1,7,-1
 311 610 l 1,4,-1
115 610 m 1,8,-1
 135 737 l 1,9,-1
 208 737 l 1,10,-1
 188 610 l 1,11,-1
 115 610 l 1,8,-1
EndSplineSet
EndChar

StartChar: Alphatonos
Encoding: 902 902 585
Width: 677
Flags: W
LayerCount: 2
Fore
SplineSet
399 658 m 1,0,-1
 398 658 l 1,1,-1
 209 277 l 1,2,-1
 468 277 l 1,3,-1
 399 658 l 1,0,-1
145 590 m 1,4,-1
 71 590 l 1,5,-1
 208 757 l 1,6,-1
 308 757 l 1,7,-1
 145 590 l 1,4,-1
479 213 m 1,8,-1
 177 213 l 1,9,-1
 71 0 l 1,10,-1
 -10 0 l 1,11,-1
 367 730 l 1,12,-1
 455 730 l 1,13,-1
 601 0 l 1,14,-1
 517 0 l 1,15,-1
 479 213 l 1,8,-1
EndSplineSet
EndChar

StartChar: anoteleia
Encoding: 903 903 586
Width: 265
Flags: W
LayerCount: 2
Fore
SplineSet
76 220 m 1,0,-1
 98 360 l 1,1,-1
 191 360 l 1,2,-1
 168 220 l 1,3,-1
 76 220 l 1,0,-1
EndSplineSet
EndChar

StartChar: Epsilontonos
Encoding: 904 904 587
Width: 750
Flags: W
LayerCount: 2
Fore
SplineSet
402 663 m 1,0,-1
 365 425 l 1,1,-1
 685 425 l 1,2,-1
 675 361 l 1,3,-1
 354 361 l 1,4,-1
 308 67 l 1,5,-1
 648 67 l 1,6,-1
 637 0 l 1,7,-1
 219 0 l 1,8,-1
 334 730 l 1,9,-1
 753 730 l 1,10,-1
 742 663 l 1,11,-1
 402 663 l 1,0,-1
145 590 m 1,12,-1
 71 590 l 1,13,-1
 208 757 l 1,14,-1
 308 757 l 1,15,-1
 145 590 l 1,12,-1
EndSplineSet
EndChar

StartChar: Etatonos
Encoding: 905 905 588
Width: 866
Flags: W
LayerCount: 2
Fore
SplineSet
409 730 m 1,0,-1
 361 425 l 1,1,-1
 733 425 l 1,2,-1
 781 730 l 1,3,-1
 860 730 l 1,4,-1
 744 0 l 1,5,-1
 666 0 l 1,6,-1
 723 361 l 1,7,-1
 350 361 l 1,8,-1
 293 0 l 1,9,-1
 215 0 l 1,10,-1
 331 730 l 1,11,-1
 409 730 l 1,0,-1
145 590 m 1,12,-1
 71 590 l 1,13,-1
 208 757 l 1,14,-1
 308 757 l 1,15,-1
 145 590 l 1,12,-1
EndSplineSet
EndChar

StartChar: Iotatonos
Encoding: 906 906 589
Width: 471
Flags: W
LayerCount: 2
Fore
SplineSet
237 0 m 1,0,-1
 353 730 l 1,1,-1
 438 730 l 1,2,-1
 322 0 l 1,3,-1
 237 0 l 1,0,-1
163 590 m 1,4,-1
 89 590 l 1,5,-1
 228 757 l 1,6,-1
 327 757 l 1,7,-1
 163 590 l 1,4,-1
EndSplineSet
EndChar

StartChar: Omicrontonos
Encoding: 908 908 590
Width: 899
Flags: W
LayerCount: 2
Fore
SplineSet
575.5 673 m 128,-1,1
 454 673 454 673 366.5 589.5 c 128,-1,2
 279 506 279 506 257 365 c 128,-1,3
 235 224 235 224 295.5 140.5 c 128,-1,4
 356 57 356 57 477.5 57 c 128,-1,5
 599 57 599 57 686.5 140.5 c 128,-1,6
 774 224 774 224 796 365 c 128,-1,7
 818 506 818 506 757.5 589.5 c 128,-1,0
 697 673 697 673 575.5 673 c 128,-1,1
145 590 m 1,8,-1
 71 590 l 1,9,-1
 208 757 l 1,10,-1
 308 757 l 1,11,-1
 145 590 l 1,8,-1
467 -10 m 128,-1,13
 309 -10 309 -10 229.5 92.5 c 128,-1,14
 150 195 150 195 177 365 c 128,-1,15
 204 535 204 535 316 637.5 c 128,-1,16
 428 740 428 740 586 740 c 128,-1,17
 744 740 744 740 823.5 637.5 c 128,-1,18
 903 535 903 535 876 365 c 128,-1,19
 849 195 849 195 737 92.5 c 128,-1,12
 625 -10 625 -10 467 -10 c 128,-1,13
EndSplineSet
EndChar

StartChar: Upsilontonos
Encoding: 910 910 591
Width: 875
Flags: W
LayerCount: 2
Fore
SplineSet
413 730 m 1,0,-1
 565 376 l 1,1,-1
 567 376 l 1,2,-1
 829 730 l 1,3,-1
 919 730 l 1,4,-1
 594 309 l 1,5,-1
 545 0 l 1,6,-1
 464 0 l 1,7,-1
 513 309 l 1,8,-1
 321 730 l 1,9,-1
 413 730 l 1,0,-1
145 590 m 1,10,-1
 71 590 l 1,11,-1
 208 757 l 1,12,-1
 308 757 l 1,13,-1
 145 590 l 1,10,-1
EndSplineSet
EndChar

StartChar: Omegatonos
Encoding: 911 911 592
Width: 926
Flags: W
LayerCount: 2
Fore
SplineSet
586 740 m 128,-1,1
 742 740 742 740 823 640.5 c 128,-1,2
 904 541 904 541 880 385 c 0,3,4
 846 168 846 168 677 67 c 1,5,-1
 677 65 l 1,6,-1
 842 65 l 1,7,-1
 831 0 l 1,8,-1
 525 0 l 1,9,-1
 535 65 l 1,10,11
 635 84 635 84 706.5 166 c 128,-1,12
 778 248 778 248 797 372 c 0,13,14
 819 509 819 509 758 591 c 128,-1,15
 697 673 697 673 575.5 673 c 128,-1,16
 454 673 454 673 367 591 c 128,-1,17
 280 509 280 509 258 372 c 0,18,19
 238 248 238 248 283.5 166 c 128,-1,20
 329 84 329 84 423 65 c 1,21,-1
 413 0 l 1,22,-1
 106 0 l 1,23,-1
 116 65 l 1,24,-1
 281 65 l 1,25,-1
 281 67 l 1,26,27
 145 168 145 168 180 385 c 0,28,29
 205 541 205 541 317.5 640.5 c 128,-1,0
 430 740 430 740 586 740 c 128,-1,1
145 590 m 1,30,-1
 71 590 l 1,31,-1
 208 757 l 1,32,-1
 308 757 l 1,33,-1
 145 590 l 1,30,-1
EndSplineSet
EndChar

StartChar: iotadieresistonos
Encoding: 912 912 593
Width: 442
Flags: W
LayerCount: 2
Fore
SplineSet
262 520 m 1,0,-1
 206 167 l 2,1,2
 195 96 195 96 209 73 c 128,-1,3
 223 50 223 50 270 50 c 0,4,5
 314 50 314 50 356 67 c 1,6,-1
 358 8 l 1,7,8
 307 -10 307 -10 251 -10 c 0,9,10
 171 -10 171 -10 143.5 26.5 c 128,-1,11
 116 63 116 63 131 153 c 2,12,-1
 189 520 l 1,13,-1
 262 520 l 1,0,-1
299 610 m 1,14,-1
 319 737 l 1,15,-1
 388 737 l 1,16,-1
 368 610 l 1,17,-1
 299 610 l 1,14,-1
111 610 m 1,18,-1
 131 737 l 1,19,-1
 199 737 l 1,20,-1
 179 610 l 1,21,-1
 111 610 l 1,18,-1
298 790 m 1,22,-1
 228 790 l 1,23,-1
 361 957 l 1,24,-1
 457 957 l 1,25,-1
 298 790 l 1,22,-1
EndSplineSet
EndChar

StartChar: Alpha
Encoding: 913 913 594
Width: 675
Flags: W
LayerCount: 2
Fore
SplineSet
-13 0 m 1,0,-1
 364 730 l 1,1,-1
 452 730 l 1,2,-1
 598 0 l 1,3,-1
 514 0 l 1,4,-1
 476 213 l 1,5,-1
 174 213 l 1,6,-1
 68 0 l 1,7,-1
 -13 0 l 1,0,-1
206 277 m 1,8,-1
 465 277 l 1,9,-1
 397 658 l 1,10,-1
 395 658 l 1,11,-1
 206 277 l 1,8,-1
EndSplineSet
EndChar

StartChar: Gamma
Encoding: 915 915 596
Width: 535
Flags: W
LayerCount: 2
Fore
SplineSet
218 660 m 1,0,-1
 114 0 l 1,1,-1
 32 0 l 1,2,-1
 148 730 l 1,3,-1
 556 730 l 1,4,-1
 545 660 l 1,5,-1
 218 660 l 1,0,-1
EndSplineSet
EndChar

StartChar: uni0394
Encoding: 916 916 597
Width: 675
Flags: W
LayerCount: 2
Fore
SplineSet
397 658 m 1,0,-1
 395 658 l 1,1,-1
 101 66 l 1,2,-1
 502 66 l 1,3,-1
 397 658 l 1,0,-1
514 0 m 1,4,-1
 68 0 l 1,5,-1
 45 0 l 1,6,-1
 -13 0 l 1,7,-1
 364 730 l 1,8,-1
 452 730 l 1,9,-1
 598 0 l 1,10,-1
 541 0 l 1,11,-1
 514 0 l 1,4,-1
EndSplineSet
EndChar

StartChar: Epsilon
Encoding: 917 917 598
Width: 564
Flags: W
LayerCount: 2
Fore
SplineSet
216 663 m 1,0,-1
 178 425 l 1,1,-1
 499 425 l 1,2,-1
 488 361 l 1,3,-1
 168 361 l 1,4,-1
 121 67 l 1,5,-1
 461 67 l 1,6,-1
 451 0 l 1,7,-1
 32 0 l 1,8,-1
 148 730 l 1,9,-1
 566 730 l 1,10,-1
 556 663 l 1,11,-1
 216 663 l 1,0,-1
EndSplineSet
EndChar

StartChar: Zeta
Encoding: 918 918 599
Width: 612
Flags: W
LayerCount: 2
Fore
SplineSet
128 663 m 1,0,-1
 139 730 l 1,1,-1
 615 730 l 1,2,-1
 605 663 l 1,3,-1
 125 69 l 1,4,-1
 125 67 l 1,5,-1
 510 67 l 1,6,-1
 500 0 l 1,7,-1
 23 0 l 1,8,-1
 34 67 l 1,9,-1
 513 661 l 1,10,-1
 513 663 l 1,11,-1
 128 663 l 1,0,-1
EndSplineSet
EndChar

StartChar: Eta
Encoding: 919 919 600
Width: 683
Flags: W
LayerCount: 2
Fore
SplineSet
226 730 m 1,0,-1
 178 425 l 1,1,-1
 550 425 l 1,2,-1
 599 730 l 1,3,-1
 677 730 l 1,4,-1
 562 0 l 1,5,-1
 483 0 l 1,6,-1
 540 361 l 1,7,-1
 168 361 l 1,8,-1
 111 0 l 1,9,-1
 32 0 l 1,10,-1
 148 730 l 1,11,-1
 226 730 l 1,0,-1
EndSplineSet
EndChar

StartChar: Theta
Encoding: 920 920 601
Width: 772
Flags: W
CounterMasks: 1 e0
LayerCount: 2
Fore
SplineSet
211 332 m 1,0,-1
 221 398 l 1,1,-1
 588 398 l 1,2,-1
 577 332 l 1,3,-1
 211 332 l 1,0,-1
49 365 m 128,-1,5
 76 535 76 535 188.5 637.5 c 128,-1,6
 301 740 301 740 458.5 740 c 128,-1,7
 616 740 616 740 696 637.5 c 128,-1,8
 776 535 776 535 749 365 c 128,-1,9
 722 195 722 195 609.5 92.5 c 128,-1,10
 497 -10 497 -10 339.5 -10 c 128,-1,11
 182 -10 182 -10 102 92.5 c 128,-1,4
 22 195 22 195 49 365 c 128,-1,5
350.5 57 m 128,-1,13
 472 57 472 57 559 140.5 c 128,-1,14
 646 224 646 224 668.5 365 c 128,-1,15
 691 506 691 506 630 589.5 c 128,-1,16
 569 673 569 673 447.5 673 c 128,-1,17
 326 673 326 673 239 589.5 c 128,-1,18
 152 506 152 506 129.5 365 c 128,-1,19
 107 224 107 224 168 140.5 c 128,-1,12
 229 57 229 57 350.5 57 c 128,-1,13
EndSplineSet
EndChar

StartChar: Iota
Encoding: 921 921 602
Width: 293
Flags: W
LayerCount: 2
Fore
SplineSet
60 0 m 1,0,-1
 175 730 l 1,1,-1
 260 730 l 1,2,-1
 144 0 l 1,3,-1
 60 0 l 1,0,-1
EndSplineSet
EndChar

StartChar: Kappa
Encoding: 922 922 603
Width: 611
Flags: W
LayerCount: 2
Fore
SplineSet
169 356 m 1,0,-1
 167 356 l 1,1,-1
 111 0 l 1,2,-1
 32 0 l 1,3,-1
 148 730 l 1,4,-1
 226 730 l 1,5,-1
 175 405 l 1,6,-1
 177 405 l 1,7,-1
 546 730 l 1,8,-1
 641 730 l 1,9,-1
 241 380 l 1,10,-1
 535 0 l 1,11,-1
 441 0 l 1,12,-1
 169 356 l 1,0,-1
EndSplineSet
EndChar

StartChar: Lambda
Encoding: 923 923 604
Width: 675
Flags: W
LayerCount: 2
Fore
SplineSet
598 0 m 1,0,-1
 514 0 l 1,1,-1
 397 658 l 1,2,-1
 395 658 l 1,3,-1
 68 0 l 1,4,-1
 -13 0 l 1,5,-1
 364 730 l 1,6,-1
 452 730 l 1,7,-1
 598 0 l 1,0,-1
EndSplineSet
EndChar

StartChar: Mu
Encoding: 924 924 605
Width: 826
Flags: W
LayerCount: 2
Fore
SplineSet
626 0 m 1,0,-1
 721 596 l 1,1,-1
 719 596 l 1,2,-1
 438 217 l 1,3,-1
 365 217 l 1,4,-1
 204 596 l 1,5,-1
 202 596 l 1,6,-1
 108 0 l 1,7,-1
 32 0 l 1,8,-1
 148 730 l 1,9,-1
 227 730 l 1,10,-1
 412 290 l 1,11,-1
 414 290 l 1,12,-1
 738 730 l 1,13,-1
 820 730 l 1,14,-1
 705 0 l 1,15,-1
 626 0 l 1,0,-1
EndSplineSet
EndChar

StartChar: Nu
Encoding: 925 925 606
Width: 687
Flags: W
LayerCount: 2
Fore
SplineSet
32 0 m 1,0,-1
 148 730 l 1,1,-1
 229 730 l 1,2,-1
 507 130 l 1,3,-1
 509 130 l 1,4,-1
 604 730 l 1,5,-1
 681 730 l 1,6,-1
 565 0 l 1,7,-1
 484 0 l 1,8,-1
 207 600 l 1,9,-1
 205 600 l 1,10,-1
 110 0 l 1,11,-1
 32 0 l 1,0,-1
EndSplineSet
EndChar

StartChar: Xi
Encoding: 926 926 607
Width: 583
Flags: W
LayerCount: 2
Fore
SplineSet
23 0 m 1,0,-1
 34 67 l 1,1,-1
 481 67 l 1,2,-1
 470 0 l 1,3,-1
 23 0 l 1,0,-1
100 361 m 1,4,-1
 110 425 l 1,5,-1
 518 425 l 1,6,-1
 508 361 l 1,7,-1
 100 361 l 1,4,-1
128 663 m 1,8,-1
 139 730 l 1,9,-1
 586 730 l 1,10,-1
 575 663 l 1,11,-1
 128 663 l 1,8,-1
EndSplineSet
EndChar

StartChar: Pi
Encoding: 928 928 609
Width: 683
Flags: W
LayerCount: 2
Fore
SplineSet
148 730 m 1,0,-1
 677 730 l 1,1,-1
 562 0 l 1,2,-1
 483 0 l 1,3,-1
 588 663 l 1,4,-1
 216 663 l 1,5,-1
 111 0 l 1,6,-1
 32 0 l 1,7,-1
 148 730 l 1,0,-1
EndSplineSet
EndChar

StartChar: Sigma
Encoding: 931 931 611
Width: 545
Flags: W
LayerCount: 2
Fore
SplineSet
210 663 m 1,0,-1
 374 382 l 1,1,-1
 116 67 l 1,2,-1
 448 67 l 1,3,-1
 437 0 l 1,4,-1
 19 0 l 1,5,-1
 29 67 l 1,6,-1
 288 382 l 1,7,-1
 124 663 l 1,8,-1
 134 730 l 1,9,-1
 553 730 l 1,10,-1
 542 663 l 1,11,-1
 210 663 l 1,0,-1
EndSplineSet
EndChar

StartChar: Tau
Encoding: 932 932 612
Width: 632
Flags: W
LayerCount: 2
Fore
SplineSet
125 730 m 1,0,-1
 649 730 l 1,1,-1
 638 662 l 1,2,-1
 415 662 l 1,3,-1
 310 0 l 1,4,-1
 232 0 l 1,5,-1
 337 662 l 1,6,-1
 114 662 l 1,7,-1
 125 730 l 1,0,-1
EndSplineSet
EndChar

StartChar: Upsilon
Encoding: 933 933 613
Width: 652
Flags: W
LayerCount: 2
Fore
SplineSet
190 730 m 1,0,-1
 341 376 l 1,1,-1
 343 376 l 1,2,-1
 607 730 l 1,3,-1
 696 730 l 1,4,-1
 371 309 l 1,5,-1
 322 0 l 1,6,-1
 240 0 l 1,7,-1
 289 309 l 1,8,-1
 98 730 l 1,9,-1
 190 730 l 1,0,-1
EndSplineSet
EndChar

StartChar: Phi
Encoding: 934 934 614
Width: 710
Flags: W
CounterMasks: 1 0e
LayerCount: 2
Fore
SplineSet
376 165 m 1,0,1
 474 174 474 174 537 227.5 c 128,-1,2
 600 281 600 281 614 370 c 128,-1,3
 628 459 628 459 582 512.5 c 128,-1,4
 536 566 536 566 441 575 c 1,5,-1
 376 165 l 1,0,1
451 642 m 1,6,7
 582 632 582 632 646.5 559 c 128,-1,8
 711 486 711 486 692.5 370 c 128,-1,9
 674 254 674 254 586.5 181 c 128,-1,10
 499 108 499 108 365 98 c 1,11,-1
 349 0 l 1,12,-1
 271 0 l 1,13,-1
 287 98 l 1,14,15
 156 108 156 108 91.5 181 c 128,-1,16
 27 254 27 254 45.5 370 c 128,-1,17
 64 486 64 486 151.5 559 c 128,-1,18
 239 632 239 632 373 642 c 1,19,-1
 387 730 l 1,20,-1
 465 730 l 1,21,-1
 451 642 l 1,6,7
362 575 m 1,22,23
 264 566 264 566 201 512.5 c 128,-1,24
 138 459 138 459 124 370 c 128,-1,25
 110 281 110 281 156 227.5 c 128,-1,26
 202 174 202 174 297 165 c 1,27,-1
 362 575 l 1,22,23
EndSplineSet
EndChar

StartChar: Chi
Encoding: 935 935 615
Width: 630
Flags: W
LayerCount: 2
Fore
SplineSet
320 314 m 1,0,-1
 318 314 l 1,1,-1
 85 0 l 1,2,-1
 -4 0 l 1,3,-1
 279 370 l 1,4,-1
 116 730 l 1,5,-1
 208 730 l 1,6,-1
 338 426 l 1,7,-1
 340 426 l 1,8,-1
 567 730 l 1,9,-1
 655 730 l 1,10,-1
 379 370 l 1,11,-1
 545 0 l 1,12,-1
 453 0 l 1,13,-1
 320 314 l 1,0,-1
EndSplineSet
EndChar

StartChar: Psi
Encoding: 936 936 616
Width: 768
Flags: W
CounterMasks: 1 1c
LayerCount: 2
Fore
SplineSet
414 225 m 1,0,1
 621 243 621 243 653 448 c 2,2,-1
 698 730 l 1,3,-1
 775 730 l 1,4,-1
 731 453 l 2,5,6
 687 176 687 176 403 158 c 1,7,-1
 378 0 l 1,8,-1
 300 0 l 1,9,-1
 325 158 l 1,10,11
 47 176 47 176 90 453 c 2,12,-1
 134 730 l 1,13,-1
 212 730 l 1,14,-1
 167 448 l 2,15,16
 135 243 135 243 336 225 c 1,17,-1
 416 730 l 1,18,-1
 494 730 l 1,19,-1
 414 225 l 1,0,1
EndSplineSet
EndChar

StartChar: uni03A9
Encoding: 937 937 617
Width: 825
Flags: W
LayerCount: 2
Fore
SplineSet
485 740 m 128,-1,1
 641 740 641 740 722 640.5 c 128,-1,2
 803 541 803 541 778 385 c 0,3,4
 744 172 744 172 583 67 c 1,5,-1
 583 65 l 1,6,-1
 741 65 l 1,7,-1
 730 0 l 1,8,-1
 424 0 l 1,9,-1
 434 65 l 1,10,11
 534 84 534 84 605 166 c 128,-1,12
 676 248 676 248 696 372 c 0,13,14
 718 509 718 509 657 591 c 128,-1,15
 596 673 596 673 474.5 673 c 128,-1,16
 353 673 353 673 266 591 c 128,-1,17
 179 509 179 509 157 372 c 0,18,19
 137 248 137 248 182.5 166 c 128,-1,20
 228 84 228 84 322 65 c 1,21,-1
 312 0 l 1,22,-1
 5 0 l 1,23,-1
 15 65 l 1,24,-1
 173 65 l 1,25,-1
 173 67 l 1,26,27
 45 172 45 172 79 385 c 0,28,29
 104 541 104 541 216.5 640.5 c 128,-1,0
 329 740 329 740 485 740 c 128,-1,1
EndSplineSet
EndChar

StartChar: Iotadieresis
Encoding: 938 938 618
Width: 304
Flags: W
CounterMasks: 1 1c
LayerCount: 2
Fore
SplineSet
297 810 m 1,0,-1
 318 937 l 1,1,-1
 390 937 l 1,2,-1
 370 810 l 1,3,-1
 297 810 l 1,0,-1
101 810 m 1,4,-1
 122 937 l 1,5,-1
 194 937 l 1,6,-1
 174 810 l 1,7,-1
 101 810 l 1,4,-1
65 0 m 1,8,-1
 181 730 l 1,9,-1
 265 730 l 1,10,-1
 150 0 l 1,11,-1
 65 0 l 1,8,-1
EndSplineSet
EndChar

StartChar: Upsilondieresis
Encoding: 939 939 619
Width: 652
Flags: W
CounterMasks: 1 1c
LayerCount: 2
Fore
SplineSet
471 810 m 1,0,-1
 491 937 l 1,1,-1
 564 937 l 1,2,-1
 544 810 l 1,3,-1
 471 810 l 1,0,-1
275 810 m 1,4,-1
 295 937 l 1,5,-1
 368 937 l 1,6,-1
 348 810 l 1,7,-1
 275 810 l 1,4,-1
190 730 m 1,8,-1
 341 376 l 1,9,-1
 343 376 l 1,10,-1
 607 730 l 1,11,-1
 696 730 l 1,12,-1
 371 309 l 1,13,-1
 322 0 l 1,14,-1
 240 0 l 1,15,-1
 289 309 l 1,16,-1
 98 730 l 1,17,-1
 190 730 l 1,8,-1
EndSplineSet
EndChar

StartChar: alphatonos
Encoding: 940 940 620
Width: 602
Flags: W
LayerCount: 2
Fore
SplineSet
344 590 m 1,0,-1
 273 590 l 1,1,-1
 408 757 l 1,2,-1
 504 757 l 1,3,-1
 344 590 l 1,0,-1
460 246 m 1,4,5
 487 138 487 138 512 0 c 1,6,-1
 440 0 l 1,7,8
 423 105 423 105 411 165 c 1,9,10
 297 -10 297 -10 179 -10 c 0,11,12
 97 -10 97 -10 57 61.5 c 128,-1,13
 17 133 17 133 37 260 c 128,-1,14
 57 387 57 387 120 458.5 c 128,-1,15
 183 530 183 530 265 530 c 0,16,17
 326 530 326 530 363.5 490 c 128,-1,18
 401 450 401 450 437 329 c 1,19,20
 481 425 481 425 515 520 c 1,21,-1
 585 520 l 1,22,23
 522 361 522 361 460 246 c 1,4,5
395 244 m 1,24,25
 365 377 365 377 332.5 423.5 c 128,-1,26
 300 470 300 470 255 470 c 0,27,28
 203 470 203 470 164 416.5 c 128,-1,29
 125 363 125 363 109 260 c 0,30,31
 93 160 93 160 117.5 105 c 128,-1,32
 142 50 142 50 195 50 c 0,33,34
 290 50 290 50 395 244 c 1,24,25
EndSplineSet
EndChar

StartChar: epsilontonos
Encoding: 941 941 621
Width: 493
Flags: W
LayerCount: 2
Fore
SplineSet
170 277 m 1,0,-1
 170 279 l 1,1,2
 113 293 113 293 87 327 c 128,-1,3
 61 361 61 361 67 402 c 0,4,5
 76 459 76 459 139 494.5 c 128,-1,6
 202 530 202 530 304 530 c 0,7,8
 396 530 396 530 479 493 c 1,9,-1
 453 437 l 1,10,11
 376 472 376 472 301 472 c 0,12,13
 151 472 151 472 138 392 c 0,14,15
 125 307 125 307 325 307 c 2,16,-1
 367 307 l 1,17,-1
 357 248 l 1,18,-1
 316 248 l 2,19,20
 205 248 205 248 152 223 c 128,-1,21
 99 198 99 198 91 148 c 0,22,23
 75 50 75 50 231 50 c 0,24,25
 310 50 310 50 402 83 c 1,26,-1
 412 27 l 1,27,28
 312 -10 312 -10 218 -10 c 0,29,30
 110 -10 110 -10 58.5 30 c 128,-1,31
 7 70 7 70 18 140 c 0,32,33
 26 188 26 188 64.5 226.5 c 128,-1,34
 103 265 103 265 170 277 c 1,0,-1
288 590 m 1,35,-1
 217 590 l 1,36,-1
 352 757 l 1,37,-1
 447 757 l 1,38,-1
 288 590 l 1,35,-1
EndSplineSet
EndChar

StartChar: etatonos
Encoding: 942 942 622
Width: 532
Flags: W
LayerCount: 2
Fore
SplineSet
106 520 m 1,0,-1
 171 520 l 1,1,-1
 158 427 l 1,2,-1
 159 427 l 1,3,4
 195 475 195 475 243.5 502.5 c 128,-1,5
 292 530 292 530 344 530 c 0,6,7
 427 530 427 530 458.5 475.5 c 128,-1,8
 490 421 490 421 472 303 c 2,9,-1
 389 -220 l 1,10,-1
 321 -220 l 1,11,-1
 403 297 l 2,12,13
 418 394 418 394 397.5 431.5 c 128,-1,14
 377 469 377 469 312 469 c 0,15,16
 257 469 257 469 202.5 411.5 c 128,-1,17
 148 354 148 354 136 278 c 2,18,-1
 92 0 l 1,19,-1
 23 0 l 1,20,-1
 106 520 l 1,0,-1
300 590 m 1,21,-1
 229 590 l 1,22,-1
 363 757 l 1,23,-1
 460 757 l 1,24,-1
 300 590 l 1,21,-1
EndSplineSet
EndChar

StartChar: iotatonos
Encoding: 943 943 623
Width: 410
Flags: W
LayerCount: 2
Fore
SplineSet
211 520 m 1,0,-1
 155 167 l 2,1,2
 144 96 144 96 157.5 73 c 128,-1,3
 171 50 171 50 219 50 c 0,4,5
 263 50 263 50 305 67 c 1,6,-1
 307 8 l 1,7,8
 256 -10 256 -10 200 -10 c 0,9,10
 120 -10 120 -10 92.5 26.5 c 128,-1,11
 65 63 65 63 79 153 c 2,12,-1
 137 520 l 1,13,-1
 211 520 l 1,0,-1
149 590 m 1,14,-1
 282 757 l 1,15,-1
 378 757 l 1,16,-1
 219 590 l 1,17,-1
 149 590 l 1,14,-1
EndSplineSet
EndChar

StartChar: upsilondieresistonos
Encoding: 944 944 624
Width: 535
Flags: W
LayerCount: 2
Fore
SplineSet
383 610 m 1,0,-1
 403 737 l 1,1,-1
 472 737 l 1,2,-1
 452 610 l 1,3,-1
 383 610 l 1,0,-1
193 610 m 1,4,-1
 214 737 l 1,5,-1
 283 737 l 1,6,-1
 263 610 l 1,7,-1
 193 610 l 1,4,-1
402 524 m 1,8,-1
 471 539 l 1,9,10
 504 400 504 400 484 277 c 0,11,12
 439 -10 439 -10 222 -10 c 0,13,14
 114 -10 114 -10 73.5 39.5 c 128,-1,15
 33 89 33 89 50 197 c 2,16,-1
 101 520 l 1,17,-1
 169 520 l 1,18,-1
 119 203 l 2,19,20
 106 123 106 123 132.5 88 c 128,-1,21
 159 53 159 53 231 53 c 0,22,23
 306 53 306 53 352 108.5 c 128,-1,24
 398 164 398 164 417 285 c 0,25,26
 435 397 435 397 402 524 c 1,8,-1
336 790 m 1,27,-1
 265 790 l 1,28,-1
 399 957 l 1,29,-1
 495 957 l 1,30,-1
 336 790 l 1,27,-1
EndSplineSet
EndChar

StartChar: alpha
Encoding: 945 945 625
Width: 602
Flags: W
LayerCount: 2
Fore
SplineSet
460 246 m 1,0,1
 487 138 487 138 512 0 c 1,2,-1
 440 0 l 1,3,4
 423 105 423 105 411 165 c 1,5,6
 297 -10 297 -10 179 -10 c 0,7,8
 97 -10 97 -10 57 61.5 c 128,-1,9
 17 133 17 133 37 260 c 128,-1,10
 57 387 57 387 120 458.5 c 128,-1,11
 183 530 183 530 265 530 c 0,12,13
 326 530 326 530 363.5 490 c 128,-1,14
 401 450 401 450 437 329 c 1,15,16
 481 425 481 425 515 520 c 1,17,-1
 585 520 l 1,18,19
 522 361 522 361 460 246 c 1,0,1
395 244 m 1,20,21
 365 377 365 377 332.5 423.5 c 128,-1,22
 300 470 300 470 255 470 c 0,23,24
 203 470 203 470 164 416.5 c 128,-1,25
 125 363 125 363 109 260 c 0,26,27
 93 160 93 160 117.5 105 c 128,-1,28
 142 50 142 50 195 50 c 0,29,30
 290 50 290 50 395 244 c 1,20,21
EndSplineSet
EndChar

StartChar: beta
Encoding: 946 946 626
Width: 544
Flags: W
AnchorPoint: "Anchor-0" 250 -220 basechar 0
LayerCount: 2
Fore
SplineSet
-7 -220 m 1,0,-1
 111 523 l 2,1,2
 145 740 145 740 348 740 c 0,3,4
 440 740 440 740 486.5 690 c 128,-1,5
 533 640 533 640 521 563 c 0,6,7
 511 501 511 501 466.5 457 c 128,-1,8
 422 413 422 413 353 398 c 1,9,-1
 353 396 l 1,10,11
 434 383 434 383 471 334 c 128,-1,12
 508 285 508 285 496 210 c 0,13,14
 479 103 479 103 405 46.5 c 128,-1,15
 331 -10 331 -10 201 -10 c 0,16,17
 157 -10 157 -10 98 3 c 1,18,-1
 63 -220 l 1,19,-1
 -7 -220 l 1,0,-1
108 67 m 1,20,21
 161 52 161 52 210 52 c 0,22,23
 404 52 404 52 430 217 c 0,24,25
 442 293 442 293 395 328.5 c 128,-1,26
 348 364 348 364 231 364 c 2,27,-1
 205 364 l 1,28,-1
 214 421 l 1,29,-1
 240 421 l 2,30,31
 434 421 434 421 455 553 c 0,32,33
 464 609 464 609 432.5 643 c 128,-1,34
 401 677 401 677 340 677 c 0,35,36
 268 677 268 677 231 643 c 128,-1,37
 194 609 194 609 182 532 c 2,38,-1
 108 67 l 1,20,21
EndSplineSet
EndChar

StartChar: gamma
Encoding: 947 947 627
Width: 543
Flags: W
LayerCount: 2
Fore
SplineSet
246 110 m 1,0,1
 323 300 323 300 474 520 c 1,2,-1
 549 520 l 1,3,4
 363 269 363 269 265 20 c 1,5,-1
 227 -220 l 1,6,-1
 157 -220 l 1,7,-1
 195 20 l 1,8,9
 176 269 176 269 69 520 c 1,10,-1
 147 520 l 1,11,12
 227 304 227 304 244 110 c 1,13,-1
 246 110 l 1,0,1
EndSplineSet
EndChar

StartChar: delta
Encoding: 948 948 628
Width: 536
Flags: W
LayerCount: 2
Fore
SplineSet
280 473 m 0,0,1
 210 465 210 465 164 410 c 128,-1,2
 118 355 118 355 103 260 c 0,3,4
 87 161 87 161 121.5 105.5 c 128,-1,5
 156 50 156 50 231 50 c 128,-1,6
 306 50 306 50 358 105.5 c 128,-1,7
 410 161 410 161 426 260 c 0,8,9
 457 458 457 458 294 471 c 0,10,11
 289 471 289 471 280 473 c 0,0,1
192 496 m 1,12,13
 125 529 125 529 137 607 c 0,14,15
 147 668 147 668 200 704 c 128,-1,16
 253 740 253 740 340 740 c 0,17,18
 431 740 431 740 502 700 c 1,19,-1
 476 641 l 1,20,21
 409 680 409 680 331 680 c 0,22,23
 219 680 219 680 207 607 c 0,24,25
 196 538 196 538 304 530 c 0,26,27
 536 513 536 513 496 260 c 0,28,29
 476 136 476 136 401.5 63 c 128,-1,30
 327 -10 327 -10 222 -10 c 128,-1,31
 117 -10 117 -10 65 63 c 128,-1,32
 13 136 13 136 33 260 c 0,33,34
 60 436 60 436 192 496 c 1,12,13
EndSplineSet
EndChar

StartChar: epsilon
Encoding: 949 949 629
Width: 493
Flags: W
LayerCount: 2
Fore
SplineSet
170 277 m 1,0,-1
 170 279 l 1,1,2
 113 293 113 293 87 327 c 128,-1,3
 61 361 61 361 67 402 c 0,4,5
 76 459 76 459 139 494.5 c 128,-1,6
 202 530 202 530 304 530 c 0,7,8
 396 530 396 530 479 493 c 1,9,-1
 453 437 l 1,10,11
 376 472 376 472 301 472 c 0,12,13
 151 472 151 472 138 392 c 0,14,15
 125 307 125 307 325 307 c 2,16,-1
 367 307 l 1,17,-1
 357 248 l 1,18,-1
 316 248 l 2,19,20
 205 248 205 248 152 223 c 128,-1,21
 99 198 99 198 91 148 c 0,22,23
 75 50 75 50 231 50 c 0,24,25
 310 50 310 50 402 83 c 1,26,-1
 412 27 l 1,27,28
 312 -10 312 -10 218 -10 c 0,29,30
 110 -10 110 -10 58.5 30 c 128,-1,31
 7 70 7 70 18 140 c 0,32,33
 26 188 26 188 64.5 226.5 c 128,-1,34
 103 265 103 265 170 277 c 1,0,-1
EndSplineSet
EndChar

